<svg xmlns="http://www.w3.org/2000/svg" fill="none" viewBox="0 0 14 14" id="Code-Monitor-1--Streamline-Flex">
  <desc>
    Code Monitor 1 Streamline Icon: https://streamlinehq.com
  </desc>
  <g id="code-monitor-1--code-tags-angle-bracket-monitor">
    <path id="Union" fill="#000000" fill-rule="evenodd" d="M2.98841 0.44433c2.872 -0.259188 5.15137 -0.259188 8.02339 0 1.2957 0.116933 2.3398 1.1317 2.523 2.42145 0.2872 2.02086 0.2872 3.43664 0 5.4575 -0.1832 1.28975 -1.2273 2.30452 -2.523 2.42142 -0.655 0.0591 -1.27916 0.1048 -1.88655 0.1369l0.22157 1.2485c0.46308 0.032 0.92728 0.0734 1.39318 0.1243 0.4118 0.045 0.7091 0.4152 0.6642 0.827 -0.045 0.4117 -0.4152 0.7091 -0.827 0.6641 -2.39948 -0.2619 -4.74712 -0.2619 -7.14661 0 -0.41177 0.045 -0.78201 -0.2524 -0.82697 -0.6641 -0.04496 -0.4118 0.2524 -0.782 0.66416 -0.827 0.46368 -0.0506 0.92562 -0.0919 1.38646 -0.1238l0.2217 -1.2489c-0.60771 -0.0322 -1.23219 -0.0778 -1.88753 -0.137C1.69271 10.6278 0.648622 9.61303 0.465359 8.32328c-0.287145 -2.02086 -0.287146 -3.43664 0 -5.4575C0.648622 1.57603 1.69271 0.561263 2.98841 0.44433ZM10.877 1.93826c-2.78234 -0.25109 -4.97147 -0.25109 -7.75376 0 -0.58596 0.05288 -1.0851 0.52135 -1.1728 1.13854 -0.26725 1.88088 -0.26725 3.15458 0 5.03546 0.0877 0.61719 0.58684 1.08566 1.17279 1.13854 2.7823 0.2511 4.97143 0.2511 7.75377 0 0.5859 -0.05288 1.0851 -0.52135 1.1727 -1.13854 0.2673 -1.88088 0.2673 -3.15458 0 -5.03546 -0.0876 -0.61719 -0.5868 -1.08566 -1.1727 -1.13854Zm-2.53066 1.4614c0.10916 -0.32747 -0.06782 -0.68142 -0.39528 -0.79057 -0.32746 -0.10916 -0.68141 0.06782 -0.79057 0.39528l-1.5 4.5c-0.10915 0.32746 0.06782 0.68142 0.39529 0.79057 0.32746 0.10915 0.68141 -0.06782 0.79056 -0.39528l1.5 -4.5ZM4.78293 6.643c0.30873 0.15436 0.43387 0.52978 0.27951 0.83852 -0.15437 0.30874 -0.52979 0.43388 -0.83853 0.27951 -0.72095 -0.36048 -1.41903 -1.05855 -1.7795 -1.77948 -0.08798 -0.17595 -0.08799 -0.38306 -0.00001 -0.55902 0.36047 -0.72098 1.05855 -1.41906 1.77951 -1.77953 0.30874 -0.15437 0.68416 -0.02923 0.83853 0.2795 0.15436 0.30874 0.02922 0.68416 -0.27951 0.83853 -0.38605 0.19302 -0.78695 0.55645 -1.05341 0.94099 0.26647 0.38453 0.66736 0.74796 1.05341 0.94098Zm4.16147 0.83852c-0.15437 -0.30874 -0.02923 -0.68416 0.27951 -0.83852 0.38604 -0.19302 0.78699 -0.55645 1.05339 -0.94098 -0.2664 -0.38454 -0.66735 -0.74797 -1.05339 -0.94099 -0.30874 -0.15437 -0.43388 -0.52979 -0.27951 -0.83853 0.15437 -0.30873 0.52979 -0.43387 0.83853 -0.2795 0.72097 0.36047 1.41907 1.05855 1.77947 1.77953 0.088 0.17596 0.088 0.38307 0 0.55902 -0.3604 0.72093 -1.0585 1.419 -1.77947 1.77948 -0.30874 0.15437 -0.68416 0.02923 -0.83853 -0.27951Z" clip-rule="evenodd" stroke-width="1"></path>
  </g>
</svg>