<svg xmlns="http://www.w3.org/2000/svg" fill="none" viewBox="0 0 14 14" id="Layout-Grid--Streamline-Flex">
  <desc>
    Layout Grid Streamline Icon: https://streamlinehq.com
  </desc>
  <g id="layout-grid--layout-grid-design-view">
    <path id="Union" fill="#000000" fill-rule="evenodd" d="M3.15385 0.25c-0.45932 0 -0.90409 0.04198 -1.31976 0.088312C1.04827 0.425903 0.417908 1.0551 0.333555 1.84353 0.28928 2.25737 0.25 2.69851 0.25 3.15385c0 0.45533 0.03928 0.89648 0.083555 1.31031 0.084353 0.78843 0.714715 1.41763 1.500535 1.50522 0.41567 0.04633 0.86044 0.08831 1.31976 0.08831 0.45931 0 0.90408 -0.04198 1.31975 -0.08831 0.78582 -0.08759 1.41619 -0.71679 1.50054 -1.50522 0.04427 -0.41383 0.08355 -0.85498 0.08355 -1.31031 0 -0.45534 -0.03928 -0.89648 -0.08355 -1.31032C5.88979 1.0551 5.25942 0.425903 4.4736 0.338312 4.05793 0.29198 3.61316 0.25 3.15385 0.25Zm6.37263 0.088312C9.94214 0.29198 10.3869 0.25 10.8462 0.25c0.4593 0 0.9041 0.04198 1.3198 0.088312 0.7858 0.087591 1.4162 0.716788 1.5005 1.505218 0.0443 0.41384 0.0836 0.85498 0.0836 1.31032 0 0.45533 -0.0393 0.89648 -0.0836 1.31031 -0.0843 0.78843 -0.7147 1.41763 -1.5005 1.50522 -0.4157 0.04633 -0.8605 0.08831 -1.3198 0.08831 -0.4593 0 -0.90406 -0.04198 -1.31972 -0.08831 -0.78583 -0.08759 -1.41619 -0.71679 -1.50054 -1.50522 -0.04428 -0.41383 -0.08356 -0.85498 -0.08356 -1.31031 0 -0.45534 0.03928 -0.89648 0.08356 -1.31032 0.08435 -0.78843 0.71471 -1.417627 1.50054 -1.505218ZM1.83409 8.03063c0.41567 -0.04633 0.86044 -0.08831 1.31976 -0.08831 0.45931 0 0.90408 0.04198 1.31975 0.08831 0.78582 0.08759 1.41619 0.71679 1.50054 1.50522 0.04427 0.41384 0.08355 0.85495 0.08355 1.31035 0 0.4553 -0.03928 0.8964 -0.08355 1.3103 -0.08435 0.7884 -0.71472 1.4176 -1.50054 1.5052 -0.41567 0.0463 -0.86044 0.0883 -1.31975 0.0883 -0.45932 0 -0.90409 -0.042 -1.31976 -0.0883 -0.78582 -0.0876 -1.416182 -0.7168 -1.500535 -1.5052C0.28928 11.7426 0.25 11.3015 0.25 10.8462c0 -0.4554 0.03928 -0.89651 0.083555 -1.31035 0.084353 -0.78843 0.714715 -1.41763 1.500535 -1.50522Zm9.01211 -0.08831c-0.4593 0 -0.90406 0.04198 -1.31972 0.08831 -0.78583 0.08759 -1.41619 0.71679 -1.50054 1.50522 -0.04428 0.41384 -0.08356 0.85495 -0.08356 1.31035 0 0.4553 0.03928 0.8964 0.08356 1.3103 0.08435 0.7884 0.71471 1.4176 1.50054 1.5052 0.41566 0.0463 0.86042 0.0883 1.31972 0.0883 0.4593 0 0.9041 -0.042 1.3198 -0.0883 0.7858 -0.0876 1.4162 -0.7168 1.5005 -1.5052 0.0443 -0.4139 0.0836 -0.855 0.0836 -1.3103 0 -0.4554 -0.0393 -0.89651 -0.0836 -1.31035 -0.0843 -0.78843 -0.7147 -1.41763 -1.5005 -1.50522 -0.4157 -0.04633 -0.8605 -0.08831 -1.3198 -0.08831Z" clip-rule="evenodd" stroke-width="1"></path>
  </g>
</svg>