<svg preserveAspectRatio="none" width="100%" height="100%" overflow="visible" style="display: block;" viewBox="-0.94 -0.94 20 20" fill="none" xmlns="http://www.w3.org/2000/svg">
  <g id="briefcase-claim--wayfinder-briefcase-claim-handbag-tax-deduction">
    <path id="Vector 124" stroke="#999999" stroke-linecap="round" stroke-linejoin="round" d="M17.472857142857144 17.472857142857144c-5.624422114285714 -0.3803905714285714 -11.201292171428571 -0.3803905714285714 -16.825714285714284 0" stroke-width="1.88"></path>
    <path id="Vector" stroke="#999999" stroke-linecap="round" stroke-linejoin="round" d="M5.810385085714286 14.027339142857143V4.231705971428571" stroke-width="1.88"></path>
    <path id="Vector_2" stroke="#999999" stroke-linecap="round" stroke-linejoin="round" d="M12.309614914285714 14.052966V4.231705971428571" stroke-width="1.88"></path>
    <path id="Intersect" stroke="#999999" stroke-linecap="round" stroke-linejoin="round" d="M2.4519984 12.167334085714286c0.1516385142857143 1.0391690571428571 1.0165708285714286 1.8471916285714285 2.0699123142857143 1.9394742 3.0576852857142858 0.2677877142857143 6.018040285714286 0.2677877142857143 9.075725571428572 0 1.0532897142857143 -0.09228257142857144 1.918260857142857 -0.9003051428571428 2.0699511428571427 -1.9394742 0.29652085714285714 -2.0320156285714286 0.29652085714285714 -3.958003371428571 0 -5.990006057142858 -0.15169028571428572 -1.0391431714285713 -1.0166614285714286 -1.8471657428571429 -2.0699511428571427 -1.9394094857142856 -3.0576852857142858 -0.2678136 -6.018040285714286 -0.2678136 -9.075725571428572 0 -1.0533414857142858 0.09224374285714286 -1.9182738 0.9002663142857142 -2.0699123142857143 1.9394094857142856 -0.29652085714285714 2.0320026857142857 -0.29652085714285714 3.9579904285714287 0 5.990006057142858Z" stroke-width="1.88"></path>
    <path id="Vector_2_2" stroke="#999999" stroke-linecap="round" stroke-linejoin="round" d="M6.465047742857143 4.100491285714285c-0.008607 -0.1063902857142857 0.00025885714285714287 -0.7448096571428571 0.00025885714285714287 -0.8580208285714286C6.465306599999999 1.5814618285714286 7.3996255714285715 0.6471428571428571 9.060634199999999 0.6471428571428571s2.5953276 0.9343189714285713 2.5953276 2.5953276c0 0.11321117142857143 -0.017550514285714285 0.7516305428571428 -0.026157514285714285 0.8580208285714286" stroke-width="1.88"></path>
  </g>
</svg>
