<svg xmlns="http://www.w3.org/2000/svg" fill="none" viewBox="-1.25 -1.25 24 24" id="Home-3--Streamline-Flex" height="24" width="24">
  <desc>
    Home 3 Streamline Icon: https://streamlinehq.com
  </desc>
  <g id="home-3--home-house-roof-shelter">
    <path id="Intersect" stroke="#000000" stroke-linecap="round" stroke-linejoin="round" d="M1.23073525 17.120910714285714 1.1517857142857142 10.760289285714286C3.5929571428571423 6.727948928571427 5.585607857142857 4.418342142857143 9.908674285714286 1.4159070714285713c0.5070467857142857 -0.3521623214285714 1.1756046428571427 -0.3521623214285714 1.6826667857142856 0C15.91445357142857 4.418342142857143 17.907042857142855 6.727948928571427 20.348214285714285 10.760289285714286l-0.07893571428571428 6.360621428571428c-0.16555 1.4901035714285713 -1.3411392857142856 2.677825 -2.8146571428571425 2.8504392857142857 -4.288297857142857 0.5024857142857142 -9.120944999999999 0.5024857142857142 -13.409242857142857 0 -1.4735024999999997 -0.1726142857142857 -2.649147071428571 -1.3603357142857142 -2.814643321428571 -2.8504392857142857Z" stroke-width="2.5"></path>
    <path id="Vector (Stroke)" stroke="#000000" stroke-linecap="round" stroke-linejoin="round" d="M13.310788214285715 20.29953214285714V14.983257857142855c0 -1.414392857142857 -1.1465796428571429 -2.5609724999999997 -2.5609571428571427 -2.5609724999999997 -1.414392857142857 0 -2.5609724999999997 1.1465796428571429 -2.5609724999999997 2.5609724999999997v5.316274285714285" stroke-width="2.5"></path>
  </g>
</svg>