<svg xmlns="http://www.w3.org/2000/svg" fill="none" viewBox="0 0 14 14" id="X-Twitter-Logo--Streamline-Flex">
  <desc>
    X Twitter Logo Streamline Icon: https://streamlinehq.com
  </desc>
  <g id="x-twitter-logo--social-x-logo-twitter-media">
    <path id="Union" fill="#000000" fill-rule="evenodd" d="M0.750489 0.00195312c-0.183337 0 -0.351971 0.10033888 -0.439435 0.26146788 -0.087463 0.16113 -0.079727 0.357205 0.020159 0.510943C1.89076 3.17471 3.49932 5.53068 5.15949 7.84742L0.967686 12.7537c-0.269063 0.315 -0.231884 0.7884 0.083044 1.0574 0.31492 0.2691 0.78834 0.2319 1.0574 -0.083l3.95554 -4.62978c1.15659 1.58638 2.3379 3.15458 3.54477 4.70628 0.09472 0.1218 0.24038 0.1931 0.39466 0.1931h3.2466c0.1833 0 0.3519 -0.1004 0.4394 -0.2615 0.0874 -0.1611 0.0797 -0.3572 -0.0202 -0.511 -1.5971 -2.4582 -3.2457 -4.86993 -4.9485 -7.24063 0.01346 -0.01353 0.02652 -0.02768 0.03912 -0.04243L12.771 1.24695c0.269 -0.314928 0.2318 -0.788344 -0.0831 -1.057407 -0.3149 -0.2690631 -0.7883 -0.2318845 -1.0574 0.083041L7.81641 4.7368C6.69816 3.20649 5.55684 1.69305 4.3917 0.194987 4.29698 0.0731913 4.15132 0.00195312 3.99702 0.00195312H0.750489Z" clip-rule="evenodd" stroke-width="1"></path>
  </g>
</svg>