<svg preserveAspectRatio="none" width="100%" height="100%" overflow="visible" style="display: block;" viewBox="0 0 16 13.7166" fill="none" xmlns="http://www.w3.org/2000/svg">
<g id="ticket-1--hobby-ticket-event-entertainment-stub-theater-entertainment">
<path id="Subtract" fill-rule="evenodd" clip-rule="evenodd" d="M2.85417 0.462251C6.83157 -0.203943 9.12934 -0.101416 13.1309 0.459942C14.6127 0.667839 16 1.69346 16 3.37368V4.73937C16 4.96823 15.8634 5.17502 15.653 5.26489C15.0089 5.53991 14.5654 6.16955 14.5654 6.89544C14.5654 7.62131 15.0089 8.25097 15.653 8.52599C15.8634 8.61586 16 8.82264 16 9.05151V10.4171C16 11.2146 15.7055 11.9056 15.1753 12.419C14.6528 12.925 13.9345 13.228 13.124 13.3319C9.13133 13.8432 6.87618 13.8466 2.87562 13.3318C1.28617 13.1272 0 12.0835 0 10.4171V9.05156C0 8.8227 0.136567 8.6159 0.347062 8.52603C0.991178 8.25104 1.43479 7.62136 1.43479 6.89544C1.43479 6.16952 0.991178 5.53984 0.347063 5.26484C0.136567 5.17498 0 4.96818 0 4.7393V3.37368C0 2.56493 0.315246 1.88611 0.849331 1.3841C1.37285 0.892045 2.08106 0.591748 2.85417 0.462251ZM11 6.57262C11 6.17812 10.6802 5.85833 10.2857 5.85833C9.89122 5.85833 9.57143 6.17812 9.57143 6.57262V7.14404C9.57143 7.53854 9.89122 7.85833 10.2857 7.85833C10.6802 7.85833 11 7.53854 11 7.14404V6.57262ZM10.2857 2.42976C10.6802 2.42976 11 2.74955 11 3.14405V3.71547C11 4.10996 10.6802 4.42976 10.2857 4.42976C9.89122 4.42976 9.57143 4.10996 9.57143 3.71547V3.14405C9.57143 2.74955 9.89122 2.42976 10.2857 2.42976ZM11 10.0012C11 9.6067 10.6802 9.2869 10.2857 9.2869C9.89122 9.2869 9.57143 9.6067 9.57143 10.0012V10.5726C9.57143 10.9671 9.89122 11.2869 10.2857 11.2869C10.6802 11.2869 11 10.9671 11 10.5726V10.0012Z" fill="black"/>
</g>
</svg>
