<svg xmlns="http://www.w3.org/2000/svg" fill="none" viewBox="0 0 14 14" id="Peace-Hand--Streamline-Flex">
  <desc>
    Peace Hand Streamline Icon: https://streamlinehq.com
  </desc>
  <g id="peace-hand">
    <path id="Subtract" fill="#000000" fill-rule="evenodd" d="M7.19993 1.28858C7.36145 0.537781 8.04182 0 8.83016 0c1.03397 0 1.81814 0.907094 1.64094 1.89827l-0.77496 4.33572c0.58426 0.05903 1.25376 0.2667 1.79616 0.73631 0.6568 0.56877 1.0875 1.4874 0.9953 2.87355l-0.0638 0.96235c-0.0786 1.1687 -0.2331 2.0203 -0.8737 2.6465 -0.2155 0.2107 -0.5094 0.3142 -0.8083 0.3532 -2.60679 0.3397 -4.90243 0.1702 -6.36669 -0.029 -0.0104 -0.0014 -0.02072 -0.0034 -0.03089 -0.0059 -1.50865 -0.3785 -2.56231 -1.8658 -2.79495 -3.3503 -0.11759 -0.75028 -0.03139 -1.52666 0.33088 -2.18879 0.33703 -0.616 0.90387 -1.1156 1.72482 -1.3982l0.00001 0.00011c-0.81275 0.27976 -1.37645 0.77221 -1.71467 1.37974 0.25366 -0.3551 0.5636 -0.61594 0.92476 -0.76773 0.09873 -0.0415 0.22763 -0.06552 0.41114 -0.07795l1.95848 -0.13268c0.48751 -0.03303 0.90114 0.35352 0.90114 0.84215 0 0.3764 -0.24923 0.70732 -0.61099 0.81127l-0.49659 0.14268c-0.26972 0.0775 -0.45472 0.32528 -0.45238 0.60591 0.00234 0.28063 0.19144 0.52529 0.46242 0.59829l0.0877 0.0235c0.35164 0.0942 0.69685 0.1866 1.00139 0.35 0.31001 0.1664 0.52121 0.3776 0.61436 0.6939 0.09752 0.3311 0.44499 0.5205 0.77611 0.423 0.33112 -0.0975 0.52049 -0.445 0.42297 -0.7761 -0.20584 -0.699 -0.67357 -1.13167 -1.15505 -1.40504 0.37526 -0.38231 0.60006 -0.90434 0.60006 -1.46741 0 -1.21224 -1.02616 -2.17123 -2.23564 -2.0893l-1.63344 0.11066 -0.73698 -3.91735C2.54264 1.18669 3.32774 0.270244 4.367 0.270244c0.78092 0 1.45684 0.52826 1.62526 1.270216L6.5845 4.1494l0.61543 -2.86082Z" clip-rule="evenodd" stroke-width="1"></path>
  </g>
</svg>