<svg xmlns="http://www.w3.org/2000/svg" fill="none" viewBox="-0.94 -0.94 20 20" id="Camera-Video--Streamline-Flex" height="20" width="20">
  <desc>
    Camera Video Streamline Icon: https://streamlinehq.com
  </desc>
  <g id="camera-video--film-television-tv-camera-movies-video-recorder">
    <path id="Union" stroke="#000000" stroke-linecap="round" stroke-linejoin="round" d="M5.174476628571428 16.934952c-0.6192639428571428 -0.05358342857142857 -1.1251743428571428 -0.530916 -1.2165120857142857 -1.1458311428571428 -0.11627862857142858 -0.7826545714285714 -0.23310085714285717 -1.593006857142857 -0.23310085714285717 -2.4227734285714284 0 -0.8297924571428572 0.11682222857142857 -1.640054142857143 0.23310085714285717 -2.4227734285714284 0.09133774285714284 -0.6148374857142858 0.5972481428571429 -1.092183 1.2165120857142857 -1.145805257142857 0.10554899999999999 -0.009137657142857143 0.21149922857142855 -0.01840474285714286 0.3178248 -0.0277236 1.0472065714285714 -0.09167425714285715 2.1316368 -0.18661011428571428 3.242431628571428 -0.18661011428571428 1.1107948285714286 0 2.1952121142857144 0.09493585714285714 3.242418685714286 0.18661011428571428 0.10633851428571428 0.009318857142857143 0.2122758 0.018585942857142858 0.3178377428571429 0.0277236 0.6192639428571428 0.05362225714285714 1.1252002285714287 0.5309677714285714 1.2164473714285715 1.145805257142857 0.049571142857142855 0.3332138571428572 0.09914228571428571 0.6714107142857143 0.13978285714285713 1.0139952 0.7321774285714285 -0.32723425714285714 1.6064674285714287 -0.8282910857142857 2.1960145714285715 -1.181411057142857 0.3507514285714286 -0.21003668571428571 0.8133291428571428 -0.05791928571428571 0.9333094285714285 0.3328902857142857 0.4860042857142857 1.5840245142857141 0.4945465714285714 3.014456142857143 0.006730285714285714 4.536795000000001 -0.12282771428571428 0.38349685714285714 -0.5785457142857143 0.5275508571428572 -0.9238611428571428 0.32046514285714284 -0.5896765714285714 -0.35359885714285716 -1.4734148571428571 -0.8608294285714286 -2.212193142857143 -1.1910017142857143 -0.04064057142857142 0.342468 -0.09021171428571428 0.6806648571428572 -0.13978285714285713 1.013814 -0.09124714285714285 0.6149151428571429 -0.5971834285714285 1.0922477142857143 -1.2164473714285715 1.1458311428571428 -0.10556194285714285 0.009189428571428572 -0.21149922857142855 0.018378857142857145 -0.3178248 0.027697714285714284 -1.0472195142857144 0.09176485714285715 -2.1316368 0.186636 -3.242431628571428 0.186636 -1.1107948285714286 0 -2.1952121142857144 -0.09487114285714286 -3.242418685714286 -0.186636 -0.10632557142857142 -0.009318857142857143 -0.2122758 -0.018508285714285713 -0.3178377428571429 -0.027697714285714284Z" stroke-width="1.88"></path>
    <path id="Vector" stroke="#000000" stroke-linecap="round" stroke-linejoin="round" d="M4.1046847714285715 7.2386423142857135c2.0057286857142858 0 3.133957542857143 -1.1282288571428571 3.133957542857143 -3.133957542857143C7.2386423142857135 2.098943142857143 6.110413457142857 0.9707142857142856 4.1046847714285715 0.9707142857142856 2.098943142857143 0.9707142857142856 0.9707142857142856 2.098943142857143 0.9707142857142856 4.1046847714285715c0 2.0057286857142858 1.1282288571428571 3.133957542857143 3.133970485714286 3.133957542857143Z" stroke-width="1.88"></path>
    <path id="Vector_2" stroke="#000000" stroke-linecap="round" stroke-linejoin="round" d="M12.250841399999999 7.2391212c1.3873060285714287 0 2.167630885714286 -0.7803636857142856 2.167630885714286 -2.167682657142857 0 -1.3873060285714287 -0.7803248571428572 -2.167669714285714 -2.167630885714286 -2.167669714285714s-2.167669714285714 0.7803636857142856 -2.167669714285714 2.167669714285714c0 1.3873189714285714 0.7803636857142856 2.167682657142857 2.167669714285714 2.167682657142857Z" stroke-width="1.88"></path>
  </g>
</svg>