<svg width="20" height="20" viewBox="0 0 20 20" fill="none" xmlns="http://www.w3.org/2000/svg">
<g clip-path="url(#clip0_5_633)">
<path fill-rule="evenodd" clip-rule="evenodd" d="M12.4617 0.670931C12.8801 0.252512 13.5585 0.252512 13.977 0.670931C14.3954 1.08935 14.3954 1.76775 13.977 2.18616L12.215 3.9481C11.7966 4.36653 11.1182 4.36653 10.6998 3.9481C10.2814 3.52969 10.2814 2.8513 10.6998 2.43287L12.4617 0.670931ZM12.1203 5.8761C13.5197 5.43627 15.4594 5.2809 16.9841 6.82323C17.4621 7.30673 17.8141 7.85903 18.0611 8.44946C18.158 8.681 18.1261 8.94642 17.9774 9.14856C17.8286 9.35072 17.5846 9.45992 17.3347 9.43623C17.2291 9.42623 17.1174 9.42097 16.9994 9.42097C16.2597 9.42097 15.7834 9.62422 15.4926 9.91105C15.2031 10.1964 14.9997 10.6605 14.9997 11.3824C14.9997 12.1044 15.2031 12.5685 15.4926 12.8539C15.7834 13.1407 16.2597 13.3439 16.9994 13.3439C17.1027 13.3439 17.2011 13.3399 17.2949 13.3322C17.5307 13.3128 17.761 13.4116 17.9096 13.596C18.0581 13.7804 18.1056 14.0264 18.0364 14.2528C17.5803 15.7457 16.8766 17.0841 16.2111 17.8591C15.0749 19.1824 13.0053 19.8661 11.0342 18.6625C10.5521 18.3681 9.87737 18.3683 9.39527 18.6625C7.42424 19.8661 5.35463 19.1824 4.21837 17.8591C3.36574 16.8661 2.43076 14.9218 2.05536 12.8736C1.68152 10.8339 1.82544 8.46186 3.44533 6.82323C4.97002 5.2809 6.90976 5.43627 8.30922 5.8761C8.67022 5.98956 9.00964 6.142 9.32559 6.32727C9.84202 6.6301 10.5875 6.6301 11.1039 6.32727C11.4199 6.142 11.7593 5.98956 12.1203 5.8761Z" fill="white"/>
</g>
<defs>
<clipPath id="clip0_5_633">
<rect width="20" height="20" fill="white"/>
</clipPath>
</defs>
</svg>
