<svg xmlns="http://www.w3.org/2000/svg" fill="none" viewBox="-0.78 -0.78 20 20" id="Gif-Format--Streamline-Flex" height="20" width="20">
  <desc>
    Gif Format Streamline Icon: https://streamlinehq.com
  </desc>
  <g id="gif-format">
    <path id="Intersect" stroke="#000000" stroke-linecap="round" stroke-linejoin="round" d="M13.696573428571428 16.222458285714286c0.9636217142857143 -0.09206828571428573 1.8620448571428572 -0.4577071428571428 2.5486714285714287 -1.0373817142857142 0.6864948571428572 -0.5795428571428571 1.1208885714285715 -1.3388757142857142 1.2320554285714287 -2.154239828571429 0.16437942857142857 -1.2404719714285715 0.30412828571428574 -2.5122392571428573 0.30412828571428574 -3.8106786857142856 0 -1.2984394285714287 -0.13974885714285715 -2.5713658 -0.30412828571428574 -3.8106786857142856 -0.11116685714285715 -0.8153114285714286 -0.5455605714285715 -1.5746706285714285 -1.2320554285714287 -2.154279342857143 -0.6866265714285714 -0.5796087142857143 -1.5850497142857143 -0.9452475714285714 -2.5486714285714287 -1.0373158571428571C12.240472 2.085722057142857 10.7446192 1.9744234857142857 9.22 1.9744234857142857c-1.5246192 0 -3.0204720000000003 0.11129857142857144 -4.477969600000001 0.24346068571428572 -0.9636348857142857 0.09206828571428573 -1.8619921714285714 0.4577071428571428 -2.5485924 1.0373158571428571 -0.6865870571428572 0.5796087142857143 -1.1209056942857143 1.3389810857142859 -1.2321344571428572 2.1542925142857143C0.7996637714285715 6.649951342857143 0.6585714285714286 7.921731800000001 0.6585714285714286 9.220158057142857c0 1.2984394285714287 0.13972251428571428 2.5713658 0.30410194285714287 3.8106786857142856 0.11122876285714285 0.8153641142857143 0.5455474 1.5746969714285715 1.2321476285714286 2.154239828571429 0.6865870571428572 0.5796745714285715 1.5849443428571428 0.9453134285714286 2.5485792285714286 1.0373817142857142 1.4547579428571427 0.13210942857142857 2.9506107428571426 0.24340799999999999 4.476599771428572 0.24340799999999999s3.0204720000000003 -0.11129857142857144 4.476573428571428 -0.24340799999999999Z" stroke-width="1.56"></path>
    <path id="vector 2" stroke="#000000" stroke-linecap="round" stroke-linejoin="round" d="M5.081207857142857 9.555199685714285h1.0377900285714285c0 1.2206753142857143 -0.12080834285714286 2.0110137142857143 -1.5566784571428571 2.0110137142857143 -1.8327516 0 -1.5569814000000002 -1.6618786571428572 -1.5566126 -3.0793746285714287 0.0002897714285714286 -1.1242077714285714 0.8495176285714287 -1.6129994857142858 1.5566126 -1.6129994857142858 0.6028826285714286 0 1.1604818857142858 0.21180974285714288 1.3622681714285714 0.8309459142857144" stroke-width="1.56"></path>
    <path id="Vector" stroke="#000000" stroke-linecap="round" stroke-linejoin="round" d="M15.449163714285715 6.963786971428572c-0.6828068571428572 -0.07042762857142856 -1.351652 -0.09414937142857144 -2.0249754285714285 -0.0711784 -0.6010254571428572 0.020494742857142857 -1.0752363999999999 0.5030958857142858 -1.1054516571428572 1.103660342857143 -0.059877314285714286 1.1903415142857143 -0.035576028571428574 2.376257428571429 0.0729302 3.570194742857143m-0.10487091428571428 -2.4933646 2.653818942857143 0" stroke-width="1.56"></path>
    <g id="Group 5824">
      <path id="Vector 1" stroke="#000000" stroke-linecap="round" stroke-linejoin="round" d="M7.8835346571428575 7.098267257142858c0.8772171428571429 -0.2992416857142857 1.6644734285714287 -0.2992416857142857 2.541703742857143 0" stroke-width="1.56"></path>
      <path id="Vector 3" stroke="#000000" stroke-linecap="round" stroke-linejoin="round" d="M10.425238400000001 11.566134371428573c-0.8772303142857143 -0.2992416857142857 -1.6644866000000003 -0.2992416857142857 -2.541703742857143 0" stroke-width="1.56"></path>
      <path id="Vector 2" stroke="#000000" stroke-linecap="round" stroke-linejoin="round" d="m9.154235057142857 6.873839285714286 0 4.467972485714286" stroke-width="1.56"></path>
    </g>
  </g>
</svg>