<svg xmlns="http://www.w3.org/2000/svg" fill="none" viewBox="0 0 14 14">
  <g id="briefcase-claim--wayfinder-briefcase-claim-handbag-tax-deduction">
    <path id="Union" fill="#000000" fill-rule="evenodd" d="M7.00447 0c-0.7342 0 -1.40405 0.236391 -1.88055 0.769129 -0.46179 0.516301 -0.65252 1.211441 -0.65527 1.961061l-0.00764 0.00049v8.74022c1.70211 0.1074 3.3765 0.1074 5.07861 0V2.66828c-0.01281 -0.72593 -0.20555 -1.39709 -0.65461 -1.899151C8.40852 0.236391 7.73866 0 7.00447 0ZM1.40315 4.72422c0.13947 -0.95216 0.87937 -1.70062 1.80786 -1.88345v8.52003c-0.92849 -0.1828 -1.66839 -0.9313 -1.80786 -1.88341 -0.23601 -1.61132 -0.23601 -3.14185 0 -4.75317ZM12.5974 9.47739c-0.1394 0.95211 -0.8793 1.70061 -1.8078 1.88341V2.84078c0.9285 0.18284 1.6684 0.9313 1.8078 1.88344 0.236 1.61132 0.236 3.14185 0 4.75317ZM8.03917 2.66367c-0.01314 -0.47077 -0.13789 -0.74438 -0.2722 -0.89454C7.63628 1.62301 7.41321 1.5 7.00447 1.5c-0.40875 0 -0.63182 0.12301 -0.76251 0.26913 -0.13429 0.15014 -0.25902 0.42368 -0.27219 0.89432 0.69042 -0.01784 1.37896 -0.01777 2.0694 0.00022ZM13.1979 13.9982c0.4132 0.029 0.7717 -0.2824 0.8008 -0.6956 0.0291 -0.4132 -0.2823 -0.7717 -0.6955 -0.8008 -4.21368 -0.2964 -8.39213 -0.2964 -12.605797 0 -0.413193 0.0291 -0.7245882 0.3876 -0.69552304 0.8008 0.02906514 0.4132 0.38758704 0.7246 0.80077804 0.6956 4.143582 -0.2915 8.251692 -0.2915 12.395242 0Z" clip-rule="evenodd" stroke-width="1"></path>
  </g>
</svg>