<svg xmlns="http://www.w3.org/2000/svg" fill="none" viewBox="0 0 14 14" id="Map-Search--Streamline-Flex">
  <desc>
    Map Search Streamline Icon: https://streamlinehq.com
  </desc>
  <g id="map-search--map-search-magnifier-navigation-gps-travel">
    <path id="Union" fill="#000000" fill-rule="evenodd" d="M3.86938 0.235234c0 -0.114717 -0.10043 -0.2036665 -0.21371 -0.185569 -0.41241 0.065886 -0.81401 0.171195 -1.10662 0.25188 -0.41018 0.113102 -0.85378 0.319049 -1.25429 0.510257 -0.16793 0.080167 -0.29142 0.205878 -0.376625 0.312508 -0.08843 0.11067 -0.160122 0.23196 -0.21626 0.34077 -0.202006 0.39153 -0.278515 0.81702 -0.3392 1.15731l-0.049546 0.27783c-0.417505 2.34117 -0.417505 4.73775 0 7.07892 0.008208 0.04606 0.016558 0.09536 0.025322 0.14716 0.036835 0.2177 0.081 0.4787 0.152798 0.7188 0.09209 0.3078 0.245692 0.6456 0.545001 0.9108 0.15619 0.1384 0.41964 0.2963 0.75432 0.2325 0.3271 -0.0624 0.66758 -0.1832 0.97667 -0.2929l0.00006 0c0.08219 -0.0292 0.16217 -0.0576 0.23908 -0.0839 0.18895 -0.0645 0.3718 -0.1295 0.54968 -0.1926 0.18756 -0.0666 0.31332 -0.244 0.31332 -0.4431V0.235234Zm1.25 10.470866c0 0.2279 0.15411 0.427 0.37474 0.4841l0.29077 0.0752c-0.07098 -0.3572 -0.10301 -0.7213 -0.10301 -1.0826 0 -1.16707 0.33409 -2.36279 1.23593 -3.26462 0.42894 -0.42895 0.92437 -0.72945 1.45157 -0.92666V1.32114c0 -0.2279 -0.1541 -0.42696 -0.37473 -0.484056l-2.25 -0.582268C5.42809 0.172894 5.11938 0.41188 5.11938 0.73887v9.96723Zm8.05292 -8.69159c0.2924 1.6114 0.3795 3.25939 0.2637 4.89267 -0.9006 -0.89356 -2.0913 -1.22493 -3.2536 -1.22493 -0.18737 0 -0.37549 0.00861 -0.56302 0.02681V0.869625c0 -0.200476 0.11898 -0.383687 0.30695 -0.453375 0.11907 -0.044133 0.23667 -0.083152 0.35107 -0.114705 0.3728 -0.102806 0.9314 -0.2483592 1.4669 -0.29793637 0.3511 -0.03250043 0.6112 0.16128537 0.7583 0.30970337 0.2613 0.263611 0.4031 0.579595 0.4922 0.872428 0.0737 0.24253 0.1193 0.5007 0.1578 0.7184l0.0001 0.00047c0.0067 0.03797 0.0132 0.0747 0.0196 0.1099ZM8.88652 8.88616c-0.24657 0.24656 -0.43047 0.65794 -0.43047 1.32004 0 0.6621 0.1839 1.0735 0.43047 1.3201 0.24657 0.2466 0.65795 0.4305 1.32008 0.4305 0.6621 0 1.0735 -0.1839 1.32 -0.4305 0.2466 -0.2466 0.4305 -0.658 0.4305 -1.3201s-0.1839 -1.07348 -0.4305 -1.32004c-0.2465 -0.24657 -0.6579 -0.43047 -1.32 -0.43047 -0.66213 0 -1.07351 0.1839 -1.32008 0.43047ZM7.82586 7.8255c0.60361 -0.60362 1.4425 -0.86981 2.38074 -0.86981 0.9382 0 1.7771 0.26619 2.3807 0.86981 0.6036 0.60361 0.8698 1.4425 0.8698 2.3807 0 0.6559 -0.1301 1.2633 -0.4146 1.7756l0.7378 0.7378c0.2929 0.2929 0.2929 0.7678 0 1.0607 -0.2929 0.2929 -0.7678 0.2929 -1.0607 0l-0.7378 -0.7379c-0.5123 0.2843 -1.1195 0.4144 -1.7752 0.4144 -0.93824 0 -1.77713 -0.2662 -2.38074 -0.8699 -0.60361 -0.6036 -0.86981 -1.4425 -0.86981 -2.3807 0 -0.9382 0.2662 -1.77709 0.86981 -2.3807Z" clip-rule="evenodd" stroke-width="1"></path>
  </g>
</svg>