<svg xmlns="http://www.w3.org/2000/svg" fill="none" viewBox="-0.625 -0.625 16 16" id="Chat-Two-Bubbles-Oval--Streamline-Flex" height="16" width="16">
  <desc>
    Chat Two Bubbles Oval Streamline Icon: https://streamlinehq.com
  </desc>
  <g id="chat-two-bubbles-oval--messages-message-bubble-chat-oval-conversation">
    <path id="Vector" stroke="#000000" stroke-linecap="round" stroke-linejoin="round" d="M9.604451964285714 13.922419642857143c-2.7594510714285714 0 -4.31164625 -1.5521214285714287 -4.31164625 -4.311604107142857 0 -2.7594510714285714 1.5521951785714287 -4.31164625 4.31164625 -4.31164625 2.7594194642857146 0 4.31164625 1.5521951785714287 4.31164625 4.31164625 0 0.8424251785714286 -0.14465535714285715 1.572318392857143 -0.42416785714285715 2.1799130357142857l0.7089482142857144 1.949739285714286c0.10272321428571429 0.2824625 -0.1661482142857143 0.5587089285714286 -0.4512446428571429 0.4636767857142857l-2.0301267857142857 -0.6767089285714286c-0.5944250000000001 0.26044285714285714 -1.3024144642857143 0.3949839285714286 -2.1150551785714287 0.3949839285714286Z" stroke-width="1.25"></path>
    <path id="Subtract" stroke="#000000" stroke-linecap="round" stroke-linejoin="round" d="M12.12492142857143 3.3878958928571428c-0.062160714285714284 -0.13122232142857143 -0.12895714285714285 -0.2581882142857143 -0.20028392857142857 -0.38084500000000004C10.98622142857143 1.3946651785714286 9.249324642857141 0.5267857142857143 6.837457321428571 0.5267857142857143 3.067230892857143 0.5267857142857143 0.9464695714285715 2.6475407142857144 0.9464695714285715 6.4177776785714284c0 1.1509951785714287 0.19765632142857142 2.14826375 0.5795548928571428 2.97839375l-0.9687125714285715 2.6639553571428576c-0.14034519642857143 0.3859232142857143 0.22700250000000002 0.7633125000000001 0.6165984642857143 0.6335124999999999l2.0502816071428573 -0.6834517857142858" stroke-width="1.25"></path>
  </g>
</svg>