<svg xmlns="http://www.w3.org/2000/svg" fill="none" viewBox="-1.25 -1.25 24 24" id="Mail-Send-Envelope--Streamline-Flex" height="24" width="24">
  <desc>
    Mail Send Envelope Streamline Icon: https://streamlinehq.com
  </desc>
  <g id="mail-send-envelope--envelope-email-message-unopened-sealed-close">
    <path id="Vector 15" stroke="#000000" stroke-linecap="round" stroke-linejoin="round" d="M1.6795032142857143 4.837407857142857C3.7744017857142853 6.862492857142857 5.956406071428571 8.737891785714286 8.354592857142856 10.39095c1.4450457142857143 0.9960489285714285 3.3455535714285713 0.9960335714285714 4.7905839285714285 -0.00003071428571428572C15.543425 8.737845714285713 17.725367857142857 6.862431428571428 19.82023571428571 4.837346428571428" stroke-width="2.5"></path>
    <path id="Intersect" stroke="#000000" stroke-linecap="round" stroke-linejoin="round" d="M5.530537142857143 2.585743571428571c-1.1235439285714284 0.10734642857142856 -2.170977857142857 0.5336607142857142 -2.971515 1.2094517857142855 -0.8005217857142857 0.6757757142857143 -1.3069143571428572 1.5611610714285713 -1.4366008214285713 2.511768214285714C0.9307641785714286 7.753283928571428 0.7678556071428572 9.236092857142856 0.7678556071428572 10.75c0 1.5139071428571427 0.1629085714285714 2.9980674999999994 0.35456571428571426 4.443036428571428 0.12968646428571426 0.9505457142857141 0.6360790357142856 1.8360385714285712 1.4366008214285713 2.5117528571428567 0.8005371428571427 0.675867857142857 1.8479710714285713 1.1021821428571428 2.971515 1.2095285714285713 1.6977628571428571 0.15403214285714284 3.441842857142857 0.28379999999999994 5.219462857142856 0.28379999999999994 1.77762 0 3.5217 -0.12976785714285713 5.221121428571428 -0.28379999999999994 1.1235285714285714 -0.10734642857142856 2.170885714285714 -0.5336607142857142 2.9714535714285715 -1.2095285714285713 0.800567857142857 -0.6757142857142857 1.306892857142857 -1.5612071428571426 1.4366607142857142 -2.5117528571428567C20.567667857142855 13.746716071428569 20.732142857142854 12.263907142857143 20.732142857142854 10.75c0 -1.5139071428571427 -0.1629392857142857 -2.9980674999999994 -0.35459642857142853 -4.443036428571428 -0.1296142857142857 -0.9506071428571428 -0.6360928571428571 -1.8359925 -1.4365071428571428 -2.511768214285714 -0.800567857142857 -0.6757910714285714 -1.8480785714285712 -1.1021053571428572 -2.9716071428571427 -1.2094517857142855C14.273297142857142 2.43165 12.52921714285714 2.3018821428571425 10.75 2.3018821428571425s-3.5217 0.12976785714285713 -5.219462857142856 0.28386142857142854Z" stroke-width="2.5"></path>
  </g>
</svg>