<svg xmlns="http://www.w3.org/2000/svg" fill="none" viewBox="-0.545 -0.545 14 14" id="Map-Search--Streamline-Flex" height="14" width="14">
  <desc>
    Map Search Streamline Icon: https://streamlinehq.com
  </desc>
  <g id="map-search--map-search-magnifier-navigation-gps-travel">
    <path id="Subtract" stroke="#000000" stroke-linecap="round" stroke-linejoin="round" d="M11.964434714285716 5.690562014285715c0.042141928571428566 -1.2509421142857142 -0.04785921428571429 -2.5063289571428573 -0.27138664285714287 -3.7376202071428573 -0.006547214285714286 -0.03628632142857143 -0.013002214285714285 -0.0728124 -0.019549428571428572 -0.10949524285714286 -0.0781055 -0.44043387142857143 -0.160084 -0.9025473214285714 -0.47176828571428575 -1.217039532142857 -0.09608728571428572 -0.09689323857142858 -0.20738992857142857 -0.16232019642857143 -0.3292972142857143 -0.15103316785714285 -0.4494524285714286 0.04161354071428572 -0.9300732857142857 0.16566019785714287 -1.2726493571428572 0.26011529071428574 -0.37356007142857145 0.10302456642857143 -0.7983728428571428 0.3067259235714286 -1.2174683285714285 0.5077069592857143 -0.02783027142857143 0.013343407142857143 -0.0556421 0.026677592857142857 -0.08340782142857144 0.039974892857142855 -0.19212846428571428 0.09198375 -0.41052877857142855 0.11151473571428572 -0.6167475857142857 0.05815032857142858L4.437720285714286 0.5017056535714286C3.8735993928571433 0.36985766785714286 3.0062133785714287 0.5885023500000001 2.473150257142857 0.735489155c-0.3329765642857143 0.09181407571428572 -0.7065643 0.26358808071428574 -1.0805577785714287 0.4421333807142857 -0.1345498642857143 0.06423647142857143 -0.2488679142857143 0.22959512857142858 -0.3356138928571429 0.39772943571428576 -0.14972464714285716 0.29019835714285713 -0.2112998142857143 0.6152721571428572 -0.2686294357142857 0.9367496000000001l-0.04568941214285714 0.2562081714285714c-0.3754513864285714 2.105344357142857 -0.3754513864285714 4.260521314285715 0 6.365874892857143 0.009015790714285713 0.05055187142857143 0.017708831428571426 0.10172157857142858 0.026458122857142857 0.15326936428571428 0.07634512928571428 0.4494524285714286 0.1569256607142857 0.9238949285714286 0.49226291071428574 1.2211015714285716 0.09020401428571428 0.07985757142857143 0.1926448642857143 0.12762457142857142 0.30343110714285715 0.1065075 0.2633732214285714 -0.05025678571428571 0.53182745 -0.14532971428571428 0.8122603142857142 -0.2446445 0.08099180714285714 -0.028770857142857143 0.16297952857142858 -0.05781835714285715 0.24613837142857142 -0.08622035714285714 0.16149487857142858 -0.05514414285714286 0.3229805357142857 -0.11250142857142857 0.4834057285714286 -0.16939764285714287 0.38102020714285717 -0.13527835714285713 0.7560833714285714 -0.2684357857142857 1.1111175928571428 -0.3658140714285714 0.14383584285714288 -0.0393755 0.2954084642857143 -0.03651685714285715 0.43979759285714287 0.0008299285714285714l0.32239036428571427 0.08880235714285714" stroke-width="1.09"></path>
    <path id="Intersect" stroke="#000000" stroke-linecap="round" stroke-linejoin="round" d="M4.376572992857143 9.717264785714285V0.618821485c0 -0.038888608571428576 0.002342242857142857 -0.07738991714285715 0.0069160714285714285 -0.11531211999999999l3.388008185714286 0.8476881207142858c0.09569998571428572 0.023948050000000002 0.19393586428571427 0.03127908571428571 0.2906317642857143 0.022002328571428573V5.071785714285714" stroke-width="1.09"></path>
    <path id="Vector" stroke="#000000" stroke-linecap="round" stroke-linejoin="round" d="m12.44892857142857 12.44892857142857 -1.0945835714285714 -1.0946757857142857" stroke-width="1.09"></path>
    <path id="Vector_2" stroke="#000000" stroke-linecap="round" stroke-linejoin="round" d="M9.452425357142857 11.987857142857143c1.6229714285714285 0 2.535892857142857 -0.9129214285714286 2.535892857142857 -2.535892857142857s-0.9129214285714286 -2.535892857142857 -2.535892857142857 -2.535892857142857c-1.6229806500000001 0 -2.5359020785714286 0.9129214285714286 -2.5359020785714286 2.535892857142857s0.9129214285714286 2.535892857142857 2.5359020785714286 2.535892857142857Z" stroke-width="1.09"></path>
  </g>
</svg>