<svg xmlns="http://www.w3.org/2000/svg" fill="none" viewBox="0 0 14 14" id="Globe--Streamline-Flex">
  <desc>
    Globe Streamline Icon: https://streamlinehq.com
  </desc>
  <g id="globe--model-planet-earth-globe-world">
    <path id="Union" fill="#000000" fill-rule="evenodd" d="M7.82666 0.393659c0.19684 -0.3644503 0.65187 -0.500318 1.01632 -0.3034704C9.70202 0.554179 10.4355 1.22458 10.9807 2.04175c0.5452 0.81708 0.8861 1.75665 0.9943 2.73695 0.1081 0.98028 -0.0195 1.973 -0.3725 2.89224 -0.3529 0.91929 -0.9209 1.73826 -1.6559 2.38486 -0.73513 0.6467 -1.61505 1.1013 -2.56375 1.3229 -0.15294 0.0357 -0.30688 0.0652 -0.46146 0.0884v0.8691c0.30116 0.0401 0.605 0.1041 0.91474 0.1922 0.39842 0.1133 0.62954 0.5282 0.51624 0.9266 -0.11331 0.3984 -0.52814 0.6295 -0.92656 0.5162 -0.86829 -0.2469 -1.64123 -0.2469 -2.50952 0 -0.39841 0.1133 -0.81325 -0.1178 -0.92655 -0.5162 -0.11331 -0.3984 0.11781 -0.8133 0.51623 -0.9266 0.30997 -0.0881 0.61404 -0.1522 0.91542 -0.1923v-0.838c-0.30793 -0.0333 -0.61381 -0.0912 -0.91482 -0.1735 -0.93993 -0.257 -1.80268 -0.7442 -2.51382 -1.41788 -0.3007 -0.28486 -0.31355 -0.75956 -0.02868 -1.06027 0.28486 -0.30071 0.75956 -0.31355 1.06027 -0.02869 0.53346 0.50536 1.17827 0.86871 1.87783 1.05998 0.6995 0.19126 1.43381 0.20506 2.13958 0.04022 0.70582 -0.16482 1.36304 -0.5036 1.91409 -0.98837 0.55114 -0.48485 0.97948 -1.10118 1.24636 -1.79629 0.2669 -0.69517 0.3638 -1.4471 0.2818 -2.19009 -0.0819 -0.74297 -0.3402 -1.45315 -0.75104 -2.06892 -0.41081 -0.61568 -0.96143 -1.11787 -1.60283 -1.46431 -0.36445 -0.19685 -0.50032 -0.651872 -0.30347 -1.016321ZM5.87411 2.05646c-1.06307 0 -1.9289 0.29976 -2.52872 0.89958 -0.59983 0.59982 -0.89959 1.46565 -0.89959 2.52873s0.29976 1.92891 0.89959 2.52873c0.59982 0.59982 1.46565 0.89958 2.52872 0.89958 1.06308 0 1.92891 -0.29976 2.52873 -0.89958s0.89958 -1.46565 0.89958 -2.52873 -0.29976 -1.92891 -0.89958 -2.52873 -1.46565 -0.89958 -2.52873 -0.89958Z" clip-rule="evenodd" stroke-width="1"></path>
  </g>
</svg>