<svg xmlns="http://www.w3.org/2000/svg" fill="none" viewBox="0 0 48 48" id="Circle-Clock--Streamline-Flex" height="48" width="48">
  <desc>
    Circle Clock Streamline Icon: https://streamlinehq.com
  </desc>
  <g id="circle-clock--clock-loading-measure-time-circle">
    <path id="Subtract" fill="#000000" fill-rule="evenodd" d="M6.2984914285714275 6.2984914285714275C10.499417142857142 2.097534857142857 16.561645714285714 0 24 0s13.500685714285714 2.097534857142857 17.701371428571427 6.2984914285714275C45.90239999999999 10.499417142857142 48 16.561645714285714 48 24s-2.0976 13.500685714285714 -6.298628571428571 17.701371428571427C37.50068571428571 45.90239999999999 31.438354285714286 48 24 48c-7.438354285714285 0 -13.500582857142856 -2.0976 -17.70150857142857 -6.298628571428571C2.097534857142857 37.50068571428571 0 31.438354285714286 0 24c0 -7.438354285714285 2.097534857142857 -13.500582857142856 6.2984914285714275 -17.70150857142857Zm17.812834285714285 4.506205714285715c1.4201485714285715 0 2.571428571428571 1.1512457142857142 2.571428571428571 2.571428571428571v9.43841142857143l5.44752 5.543931428571429c0.9953828571428571 1.0129714285714284 0.9810857142857143 2.641028571428571 -0.03188571428571428 3.636377142857143 -1.0129714285714284 0.9953828571428571 -2.641028571428571 0.9810857142857143 -3.636411428571428 -0.03188571428571428l-6.1848 -6.294205714285714c-0.47252571428571427 -0.4808914285714285 -0.7372799999999999 -1.128102857142857 -0.7372799999999999 -1.8022628571428572V13.376125714285713c0 -1.420182857142857 1.1512799999999999 -2.571428571428571 2.571428571428571 -2.571428571428571Z" clip-rule="evenodd" stroke-width="3.4286"></path>
  </g>
</svg>