<svg preserveAspectRatio="none" width="100%" height="100%" overflow="visible" style="display: block;" viewBox="0 0 10.3682 13.0859" fill="none" xmlns="http://www.w3.org/2000/svg">
<g id="peace-hand">
<path id="Vector 107" d="M2.50976 6.62341L1.71789 2.31016C1.58268 1.5737 2.14994 0.895164 2.90083 0.895164C3.46506 0.895164 3.95343 1.28628 4.07512 1.83564L4.83026 5.24448L5.59341 1.60919C5.71013 1.05323 6.20178 0.655 6.77145 0.655C7.51863 0.655 8.08526 1.3267 7.95727 2.06067L7.23893 6.17879C8.28427 6.19148 9.85517 6.80298 9.70299 9.1475L9.64764 10.0028C9.56856 11.208 9.40207 11.9269 8.68411 12.4308" stroke="#999999" stroke-width="1.31" stroke-linecap="round" stroke-linejoin="round"/>
<path id="Vector 1232" d="M2.94084 12.4206C0.563918 11.8095 -0.521594 7.53607 2.4917 6.65924H3.77648C4.4013 6.65924 4.91116 7.1579 4.92321 7.78077C4.93296 8.28514 4.6101 8.73631 4.1286 8.89118L3.51814 9.06473C4.16076 9.24211 5.16807 9.47682 5.44602 10.444" stroke="#999999" stroke-width="1.31" stroke-linecap="round" stroke-linejoin="round"/>
</g>
</svg>
