<svg xmlns="http://www.w3.org/2000/svg" fill="none" viewBox="-0.545 -0.545 14 14" id="Chat-Bubble-Question-Circle--Streamline-Flex" height="14" width="14">
  <desc>
    Chat Bubble Question Circle Streamline Icon: https://streamlinehq.com
  </desc>
  <g id="chat-bubble-question-circle--chat-bubble-question-circle-conversation-message-faq-letter">
    <path id="Vector 1509" stroke="#000000" stroke-linecap="round" stroke-linejoin="round" d="M4.871708378571428 4.878384692857143c-0.11745333571428572 0.7177406714285715 -0.11745333571428572 1.419233185714286 0 2.1369738571428574 0.12824240714285715 0.7836001142857143 0.8613090928571429 1.285273492857143 1.6553294214285714 1.285273492857143 0.79402955 0 1.5270870142857143 -0.5016733785714286 1.6553294214285714 -1.285273492857143 0.11746255714285714 -0.7177406714285715 0.11746255714285714 -1.419233185714286 0 -2.1369738571428574 -0.12824240714285715 -0.7836001142857143 -0.8612998714285715 -1.285273492857143 -1.6553294214285714 -1.285273492857143 -0.7940203285714286 0 -1.5270870142857143 0.5016733785714286 -1.6553294214285714 1.285273492857143Z" stroke-width="1.09"></path>
    <path id="Vector 4" stroke="#000000" stroke-linecap="round" stroke-linejoin="round" d="M7.774724750000001 7.838214285714286v0.2032034c0 0.4489083642857143 0.36391445714285714 0.8128228214285714 0.8128228214285714 0.8128228214285714v0" stroke-width="1.09"></path>
    <path id="Vector" stroke="#000000" stroke-linecap="round" stroke-linejoin="round" d="M6.661163478571428 12.044937785714286c3.7041833071428574 0 5.787765092857144 -2.0851494285714285 5.787765092857144 -5.791951621428572C12.44892857142857 2.5461563071428572 10.365346785714287 0.4610714285714286 6.661163478571428 0.4610714285714286 2.9569986142857143 0.4610714285714286 0.8734011521428571 2.5461563071428572 0.8734011521428571 6.252986164285714c0 1.1316352714285713 0.19419129785714287 2.11214055 0.5693927835714285 2.9283015285714282L0.4910622807142857 11.800477714285714c-0.13788525499999998 0.3794617857142857 0.2230248607142857 0.7504398571428571 0.6057989835714286 0.6228152857142857l2.725190342857143 -0.9090484285714285c0.7979394357142857 0.34986100000000003 1.7482537571428574 0.5306932142857143 2.8391118714285715 0.5306932142857143Z" stroke-width="1.09"></path>
  </g>
</svg>