<svg preserveAspectRatio="none" width="100%" height="100%" overflow="visible" style="display: block;" viewBox="0 0 11.2236 9.67232" fill="none" xmlns="http://www.w3.org/2000/svg">
<g id="ticket-1--hobby-ticket-event-entertainment-stub-theater-entertainment">
<path id="Subtract" d="M10.6586 2.46878V3.39659C10.0852 3.64144 9.68392 4.20513 9.68392 4.86137C9.68392 5.51762 10.0852 6.08131 10.6586 6.32615V7.25401C10.6586 8.13487 10.0179 8.72425 9.0436 8.84903C6.36359 9.19228 4.86472 9.19454 2.17997 8.84903C1.23268 8.72713 0.565 8.13487 0.565 7.25401V6.32619C1.13846 6.08137 1.53976 5.51766 1.53976 4.86137C1.53976 4.20509 1.13846 3.64138 0.565 3.39656V2.46878C0.565 1.58784 1.23916 1.03129 2.17997 0.873706C4.83285 0.429364 6.35251 0.496183 9.0436 0.873706C9.93347 0.998548 10.6586 1.58784 10.6586 2.46878Z" stroke="#6A1B9A" stroke-width="1.13" stroke-linecap="round" stroke-linejoin="round"/>
<path id="Vector 556" d="M7.16464 4.64206V5.03027" stroke="#6A1B9A" stroke-width="1.13" stroke-linecap="round" stroke-linejoin="round"/>
<path id="Vector 558" d="M7.16464 2.31277V2.70098" stroke="#6A1B9A" stroke-width="1.13" stroke-linecap="round" stroke-linejoin="round"/>
<path id="Vector 560" d="M7.16464 6.97134V7.35952" stroke="#6A1B9A" stroke-width="1.13" stroke-linecap="round" stroke-linejoin="round"/>
</g>
</svg>
