<svg xmlns="http://www.w3.org/2000/svg" fill="none" viewBox="-0.78 -0.78 20 20" id="Landscape-1--Streamline-Flex" height="20" width="20">
  <desc>
    Landscape 1 Streamline Icon: https://streamlinehq.com
  </desc>
  <g id="landscape-1--photos-photo-landscape-picture-photography-camera-pictures-image">
    <path id="Intersect" stroke="#000000" stroke-linecap="round" stroke-linejoin="round" d="M1.264281962857143 13.36043857142857C1.467297142857143 15.258046285714284 2.9934705714285714 16.784219714285715 4.8901036 16.995621142857143c1.408750142857143 0.15700342857142857 2.855183742857143 0.29187885714285716 4.3298964 0.29187885714285716s2.921146257142857 -0.1348754285714286 4.3298437142857145 -0.29187885714285716c1.8966857142857143 -0.21140142857142857 3.422859142857143 -1.737574857142857 3.6258308571428572 -3.6351825714285715 0.14989085714285713 -1.4007550857142856 0.2764682857142857 -2.838903857142857 0.2764682857142857 -4.3050814285714285 0 -1.4661907428571428 -0.1265774285714286 -2.9043263428571433 -0.2764682857142857 -4.305120942857143 -0.20297171428571428 -1.897541857142857 -1.729145142857143 -3.423728457142857 -3.6258308571428572 -3.635131202857143C12.141146257142859 0.9580791771428572 10.694712657142858 0.8232142857142857 9.22 0.8232142857142857S6.298853742857143 0.9580791771428572 4.8901036 1.115104997142857C2.9934705714285714 1.3265077428571428 1.467297142857143 2.852694342857143 1.264281962857143 4.7502362 1.11441218 6.1510308 0.9878571428571429 7.589166400000001 0.9878571428571429 9.055357142857144c0 1.4661775714285716 0.1265563542857143 2.9043263428571433 0.27642482 4.3050814285714285Z" stroke-width="1.56"></path>
    <path id="Vector" stroke="#000000" stroke-linecap="round" stroke-linejoin="round" d="M12.098681571428571 7.555566085714285c1.179699 0 1.8432755714285716 -0.6635633999999999 1.8432755714285716 -1.8432360571428574 0 -1.1796594857142857 -0.6635765714285715 -1.8432228857142858 -1.8432755714285716 -1.8432228857142858 -1.1796726571428573 0 -1.8432360571428574 0.6635633999999999 -1.8432360571428574 1.8432228857142858 0 1.1796726571428573 0.6635633999999999 1.8432360571428574 1.8432360571428574 1.8432360571428574Z" stroke-width="1.56"></path>
    <path id="Intersect_2" stroke="#000000" stroke-linecap="round" stroke-linejoin="round" d="M4.890248485714285 16.995621142857143c-1.8966198571428572 -0.21140142857142857 -3.422793285714286 -1.737574857142857 -3.6258137342857144 -3.6351825714285715 -0.060954737142857145 -0.5697038000000001 -0.11805419714285714 -1.1456245142857142 -0.16435045142857144 -1.7270904C2.2216512 10.1708586 3.5664145428571428 9.055357142857144 5.041377457142858 9.055357142857144c3.2823858571428572 0 5.919924914285714 5.524360571428572 6.887945885714286 8.103326285714285 -0.890678342857143 0.07692114285714285 -1.7944886 0.12881657142857142 -2.7091652857142856 0.12881657142857142 -1.4747258285714286 0 -2.9211594285714284 -0.1348754285714286 -4.329909571428572 -0.29187885714285716Z" stroke-width="1.56"></path>
    <path id="Intersect_3" stroke="#000000" stroke-linecap="round" stroke-linejoin="round" d="M16.93503257142857 14.365155142857143c-1.1959657142857143 -1.7234946000000002 -2.6871031428571426 -3.1282801428571427 -4.342330228571429 -3.1282801428571427 -1.0439542571428573 0 -2.0226836 0.5588242 -2.9032067714285716 1.4039689142857144 1.0243551714285715 1.586538085714286 1.8024441428571427 3.352826657142857 2.2397619142857144 4.517839514285714 0.5453366571428572 -0.047022 1.0857603714285715 -0.10339571428571429 1.620717942857143 -0.16306228571428572 1.5473794285714286 -0.1725457142857143 2.848189714285714 -1.2200694285714286 3.3850571428571428 -2.630466Z" stroke-width="1.56"></path>
  </g>
</svg>