<svg width="28" height="28" viewBox="0 0 28 28" fill="none" xmlns="http://www.w3.org/2000/svg">
<g clip-path="url(#clip0_198_124)">
<path fill-rule="evenodd" clip-rule="evenodd" d="M3.67412 3.67412C6.12466 1.22356 9.66096 0 14 0C18.339 0 21.8754 1.22356 24.3258 3.67412C26.7764 6.12466 28 9.66096 28 14C28 18.339 26.7764 21.8754 24.3258 24.3258C21.8754 26.7764 18.339 28 14 28C9.66096 28 6.12466 26.7764 3.67412 24.3258C1.22356 21.8754 0 18.339 0 14C0 9.66096 1.22356 6.12466 3.67412 3.67412ZM14.0649 6.30274C14.8934 6.30274 15.5649 6.9743 15.5649 7.80274V13.3085L18.7427 16.5424C19.3233 17.1333 19.315 18.083 18.7241 18.6637C18.1332 19.2443 17.1835 19.236 16.6028 18.6451L12.995 14.9734C12.7194 14.6929 12.5649 14.3154 12.5649 13.9221V7.80274C12.5649 6.9743 13.2365 6.30274 14.0649 6.30274Z" fill="black"/>
</g>
<defs>
<clipPath id="clip0_198_124">
<rect width="28" height="28" fill="white"/>
</clipPath>
</defs>
</svg>
