<svg preserveAspectRatio="none" width="100%" height="100%" overflow="visible" style="display: block;" viewBox="-0.94 -0.94 20 20" fill="none" xmlns="http://www.w3.org/2000/svg">
  <g id="circle-flask--science-experiment-lab-flask-chemistry-solution">
    <path id="Subtract" stroke="#999999" stroke-linecap="round" stroke-linejoin="round" d="M5.978486914285714 0.8067179314285714V5.533291457142857c-2.121631971428571 1.144200342857143 -4.038637371428571 3.332915142857143 -4.038637371428571 6.092189914285714 0 4.423661485714286 3.559285714285714 5.847375771428571 7.118571428571428 5.847375771428571s7.118597314285714 -1.4237142857142857 7.118597314285714 -5.847375771428571c0 -2.759093571428571 -1.916837142857143 -4.947717771428572 -4.038274971428572 -6.091969885714285V0.8067308742857143C10.073373942857144 0.5939515971428572 8.043856285714286 0.59394642 5.978486914285714 0.8067179314285714Z" stroke-width="1.88"></path>
    <path id="Intersect" stroke="#999999" stroke-linecap="round" stroke-linejoin="round" d="M16.163687142857142 11.229002828571428c-4.799793857142857 -0.7669419428571428 -9.410686714285713 -0.7667736857142857 -14.210597057142857 0.0005047714285714286 -0.008762314285714286 0.13061931428571427 -0.013240542857142856 0.2626364571428571 -0.013240542857142856 0.39597377142857143 0 4.423661485714286 3.559285714285714 5.847375771428571 7.118571428571428 5.847375771428571s7.118597314285714 -1.4237142857142857 7.118597314285714 -5.847375771428571c0 -0.1335185142857143 -0.00453 -0.2656909714285714 -0.013331142857142857 -0.39647854285714285Z" stroke-width="1.88"></path>
    <path id="Vector 466" stroke="#999999" stroke-linecap="round" stroke-linejoin="round" d="M4.923411085714285 0.9334013228571428c2.7852769714285714 -0.38167838571428575 5.484393342857143 -0.38167838571428575 8.269631485714285 0" stroke-width="1.88"></path>
  </g>
</svg>
