<svg xmlns="http://www.w3.org/2000/svg" fill="none" viewBox="0 0 48 48" id="Chat-Bubble-Oval--Streamline-Flex" height="48" width="48">
  <desc>
    Chat Bubble Oval Streamline Icon: https://streamlinehq.com
  </desc>
  <g id="chat-bubble-oval--messages-message-bubble-chat-oval">
    <path id="Union" fill="#000000" fill-rule="evenodd" d="M24.76638857142857 0C17.564365714285714 0 11.695851428571428 2.0323645714285714 7.6295657142857145 6.101519999999999 3.56352 10.170514285714285 1.5329245714285713 16.042594285714287 1.5329245714285713 23.248902857142856c0 4.111577142857143 0.6591154285714286 7.786868571428571 1.9855097142857143 10.947702857142858L0.21444925714285712 43.289142857142856c-1.0013989714285714 2.755885714285714 1.6196204571428572 5.456914285714285 4.406030742857143 4.527428571428572l9.521005714285714 -3.175885714285714c3.087085714285714 1.240457142857143 6.65208 1.8572571428571427 10.624902857142857 1.8572571428571427 7.202022857142857 0 13.07064 -2.0324571428571425 17.136925714285713 -6.101828571428571C45.96925714285714 36.32742857142857 48 30.45517714285714 48 23.248902857142856c0 -7.206308571428572 -2.030742857142857 -13.07838857142857 -6.096685714285714 -17.147382857142855C37.83702857142857 2.0323645714285714 31.96841142857143 0 24.76638857142857 0Z" clip-rule="evenodd" stroke-width="3.4286"></path>
  </g>
</svg>