<svg xmlns="http://www.w3.org/2000/svg" fill="none" viewBox="0 0 48 48" id="Calendar-Event--Streamline-Flex" height="48" width="48">
  <desc>
    Calendar Event Streamline Icon: https://streamlinehq.com
  </desc>
  <g id="calendar-event">
    <path id="Subtract" fill="#000000" fill-rule="evenodd" d="M17.149542857142855 3.4285714285714284c0 -1.4201622857142857 -1.1512457142857142 -2.571428571428571 -2.571428571428571 -2.571428571428571 -1.4201485714285715 0 -2.571428571428571 1.1512662857142855 -2.571428571428571 2.571428571428571v2.7509485714285713C6.483668571428571 6.833519999999999 2.0956834285714288 11.176834285714285 1.4613462857142856 16.6248c-0.8056045714285714 6.918857142857142 -0.8056045714285714 12.831702857142856 0 19.75062857142857 0.6674948571428571 5.732571428571428 5.491282285714285 10.242171428571428 11.420345142857142 10.517142857142856 3.553782857142857 0.16457142857142856 7.182651428571427 0.2502857142857143 11.117965714285713 0.2502857142857143 3.9353485714285714 0 7.564217142857143 -0.08571428571428572 11.117828571428571 -0.2502857142857143 5.929371428571429 -0.27497142857142853 10.75302857142857 -4.784571428571428 11.420571428571428 -10.517142857142856 0.8053714285714285 -6.918925714285714 0.8053714285714285 -12.831771428571427 0 -19.75062857142857 -0.6342857142857142 -5.447725714285714 -5.022171428571428 -9.790937142857143 -10.544914285714286 -10.445177142857142V3.4285714285714284c0 -1.4201622857142857 -1.1509714285714285 -2.571428571428571 -2.5712571428571427 -2.571428571428571 -1.420182857142857 0 -2.571428571428571 1.1512662857142855 -2.571428571428571 2.571428571428571v2.5210628571428573c-2.2057028571428567 -0.06109714285714285 -4.472262857142857 -0.09236571428571427 -6.8508 -0.09236571428571427 -2.378262857142857 0 -4.644617142857143 0.03126857142857142 -6.850114285714285 0.09236571428571427V3.4285714285714284Zm-2.9874171428571428 16.17288c0.9693257142857143 -0.10882285714285712 2.024708571428571 -0.2085942857142857 3.1213714285714285 -0.2085942857142857 1.096902857142857 0 2.1520457142857143 0.10079999999999999 3.118011428571428 0.20732571428571428l0.008708571428571428 0.0009942857142857143c1.0118742857142857 0.11681142857142858 1.954285714285714 0.5730171428571428 2.6736 1.2941485714285714 0.7193142857142856 0.7211657142857142 1.1730857142857143 1.664742857142857 1.2873599999999998 2.676857142857143l0.001097142857142857 0.009668571428571427 -0.00003428571428571428 0c0.10340571428571428 0.9652457142857143 0.19697142857142858 2.0113371428571427 0.19697142857142858 3.0967199999999995 0 1.0854171428571426 -0.09356571428571428 2.1314742857142854 -0.19700571428571426 3.096l-0.0009942857142857143 0.009497142857142857h-0.00003428571428571428c-0.1142742857142857 1.0121142857142857 -0.5680457142857143 1.9556914285714284 -1.2873599999999998 2.676857142857143 -0.7193142857142856 0.7211314285714285 -1.6617257142857143 1.1773371428571426 -2.6736 1.2941485714285714l-0.005382857142857142 0.0006171428571428571c-0.9692914285714286 0.10882285714285712 -2.024708571428571 0.2085942857142857 -3.1213371428571426 0.2085942857142857 -1.0966971428571428 0 -2.1512571428571428 -0.09980571428571428 -3.1212 -0.20856l-0.005554285714285714 -0.0006514285714285715c-1.0118399999999999 -0.11681142857142858 -1.954285714285714 -0.5730171428571428 -2.6736 -1.2941485714285714 -0.7193142857142856 -0.7211657142857142 -1.1730857142857143 -1.664742857142857 -1.2873599999999998 -2.676857142857143l-0.0010628571428571427 -0.009497142857142857 0.00003428571428571428 0c-0.10343999999999999 -0.9644914285714286 -0.19697142857142858 -2.0096914285714287 -0.19697142857142858 -3.096 0 -1.0862742857142857 0.09353142857142856 -2.1323314285714283 0.19697142857142858 -3.0961714285714286l0.0009942857142857143 -0.009325714285714286 0.00003428571428571428 0c0.1142742857142857 -1.0121142857142857 0.5680457142857143 -1.9556914285714284 1.2873599999999998 -2.676857142857143 0.7193142857142856 -0.7211314285714285 1.66176 -1.1773371428571426 2.6736 -1.2941485714285714l0.005382857142857142 -0.0006171428571428571Z" clip-rule="evenodd" stroke-width="3.4286"></path>
  </g>
</svg>