<svg xmlns="http://www.w3.org/2000/svg" fill="none" viewBox="-1.25 -1.25 28 28" id="Horizontal-Menu--Streamline-Flex" height="28" width="28">
  <desc>
    Horizontal Menu Streamline Icon: https://streamlinehq.com
  </desc>
  <g id="horizontal-menu--navigation-dots-three-circle-button-horizontal-menu">
    <path id="Vector" stroke="#000000" stroke-linecap="round" stroke-linejoin="round" d="M3.642857142857143 15.482142857142858c1.7485714285714284 0 2.732142857142857 -0.9835714285714287 2.732142857142857 -2.732142857142857S5.3914285714285715 10.017857142857142 3.642857142857143 10.017857142857142 0.9107142857142857 11.001428571428571 0.9107142857142857 12.75 1.8942857142857144 15.482142857142858 3.642857142857143 15.482142857142858Z" stroke-width="2.5"></path>
    <path id="Vector_2" stroke="#000000" stroke-linecap="round" stroke-linejoin="round" d="M12.793131428571428 15.482142857142858c1.7485714285714284 0 2.732142857142857 -0.9835714285714287 2.732142857142857 -2.732142857142857s-0.9835714285714287 -2.732142857142857 -2.732142857142857 -2.732142857142857 -2.732142857142857 0.9835714285714287 -2.732142857142857 2.732142857142857 0.9835714285714287 2.732142857142857 2.732142857142857 2.732142857142857Z" stroke-width="2.5"></path>
    <path id="Vector_3" stroke="#000000" stroke-linecap="round" stroke-linejoin="round" d="M21.857142857142858 15.482142857142858c1.7485714285714284 0 2.732142857142857 -0.9835714285714287 2.732142857142857 -2.732142857142857s-0.9835714285714287 -2.732142857142857 -2.732142857142857 -2.732142857142857 -2.732142857142857 0.9835714285714287 -2.732142857142857 2.732142857142857 0.9835714285714287 2.732142857142857 2.732142857142857 2.732142857142857Z" stroke-width="2.5"></path>
  </g>
</svg>