<svg preserveAspectRatio="none" width="100%" height="100%" overflow="visible" style="display: block;" viewBox="-0.94 -0.94 20 20" fill="none" xmlns="http://www.w3.org/2000/svg">
  <g id="paint-palette--color-colors-design-paint-painting-palette">
    <path id="Vector" stroke="#999999" stroke-linecap="round" stroke-linejoin="round" d="M6.032173885714285 13.383043714285714c-0.4307253428571428 0 -0.6730285714285714 -0.23297142857142855 -0.6730285714285714 -0.6471558 0 -0.4141714285714286 0.24230322857142855 -0.6471428571428571 0.6730285714285714 -0.6471428571428571" stroke-width="1.88"></path>
    <path id="Vector_2" stroke="#999999" stroke-linecap="round" stroke-linejoin="round" d="M6.031578514285714 13.383043714285714c0.4307382857142857 0 0.6730285714285714 -0.23297142857142855 0.6730285714285714 -0.6471558 0 -0.4141714285714286 -0.2422902857142857 -0.6471428571428571 -0.6730285714285714 -0.6471428571428571" stroke-width="1.88"></path>
    <path id="Vector_3" stroke="#999999" stroke-linecap="round" stroke-linejoin="round" d="M0.6471428571428571 9.06c0 5.384228571428571 3.028628571428571 8.412857142857142 8.412857142857142 8.412857142857142 1.3330107428571427 0 3.091970914285714 -0.3449271428571429 3.555661714285714 -1.6741585714285716 0.672252 -1.9268031428571426 -2.8466131714285714 -1.4322565714285715 -2.8466131714285714 -3.8581103999999997 0 -4.298245199999999 7.7038085999999995 0.5779891714285714 7.7038085999999995 -5.1766510285714284C17.472857142857144 4.231900114285715 14.444228571428571 0.6471428571428571 9.06 0.6471428571428571S0.6471428571428571 3.6757714285714282 0.6471428571428571 9.06Z" stroke-width="1.88"></path>
    <path id="Vector_4" stroke="#999999" stroke-linecap="round" stroke-linejoin="round" d="M11.0784774 6.367846885714286c0.8614765714285714 0 1.3460571428571428 -0.4845805714285714 1.3460571428571428 -1.3460571428571428s-0.4845805714285714 -1.3460571428571428 -1.3460571428571428 -1.3460571428571428 -1.3460571428571428 0.4845805714285714 -1.3460571428571428 1.3460571428571428 0.4845805714285714 1.3460571428571428 1.3460571428571428 1.3460571428571428Z" stroke-width="1.88"></path>
    <path id="Vector_5" stroke="#999999" stroke-linecap="round" stroke-linejoin="round" d="M5.695310142857143 8.386997314285713c0.8614765714285714 0 1.3460571428571428 -0.4845805714285714 1.3460571428571428 -1.3460571428571428s-0.4845805714285714 -1.3460571428571428 -1.3460571428571428 -1.3460571428571428 -1.3460571428571428 0.4845805714285714 -1.3460571428571428 1.3460571428571428 0.4845805714285714 1.3460571428571428 1.3460571428571428 1.3460571428571428Z" stroke-width="1.88"></path>
  </g>
</svg>
