<svg xmlns="http://www.w3.org/2000/svg" fill="none" viewBox="0 0 14 14" id="Github-Logo--Streamline-Flex">
  <desc>
    Github Logo Streamline Icon: https://streamlinehq.com
  </desc>
  <g id="github--github-code-branch-developer-portal">
    <path id="Subtract" fill="#000000" fill-rule="evenodd" d="M1.83631 1.91406C3.06031 0.68912 4.82786 0.0761719 7 0.0761719c2.17214 0 3.9397 0.6129481 5.1637 1.8378881C13.3876 3.13895 14 4.90767 14 7.08121c0 2.17354 -0.6124 3.94229 -1.8363 5.16709 -0.8619 0.8626 -1.9934 1.4217 -3.34579 1.677v-2.7564c0 -0.6383 -0.10391 -1.41549 -0.30253 -1.81857 1.63582 -0.3592 2.53182 -1.10485 2.53182 -2.62079 0 -0.59328 -0.1372 -1.1069 -0.4024 -1.53387 0.0786 -0.74938 -0.0057 -1.46635 -0.1069 -1.87093 -0.0256 -0.10245 -0.1224 -0.1563 -0.2229 -0.12395 -0.35267 0.11358 -0.90781 0.36889 -1.44427 0.74923 -0.53362 -0.15897 -1.15938 -0.24095 -1.87058 -0.24095 -0.71125 0 -1.33705 0.082 -1.8707 0.24099 -0.53648 -0.38037 -1.09165 -0.63569 -1.44435 -0.74927 -0.10045 -0.03235 -0.1973 0.0215 -0.22291 0.12395 -0.10117 0.40463 -0.18551 1.12171 -0.10689 1.87118 -0.265 0.42692 -0.40218 0.94046 -0.40218 1.53362 0 1.51595 0.89599 2.26159 2.53181 2.62079 -0.17739 0.36 -0.27923 1.01847 -0.29897 1.60987h-0.06903c-0.54902 0.0002 -0.82821 -0.0719 -0.97818 -0.1722 -0.10527 -0.0704 -0.23641 -0.2152 -0.28252 -0.6728 -0.01566 -0.15545 -0.08894 -0.29937 -0.20542 -0.40344l-0.4375 -0.39093c-0.25739 -0.22999 -0.65249 -0.20778 -0.88249 0.04962 -0.22999 0.25739 -0.20778 0.65245 0.04962 0.88245l0.26633 0.238c0.09914 0.5651 0.34036 1.0307 0.79713 1.3362 0.47785 0.3195 1.08275 0.3833 1.67329 0.3831h0.06522v1.7152c-1.35258 -0.2553 -2.48413 -0.8144 -3.3461 -1.6771C0.612369 11.0235 0 9.25475 0 7.08121s0.612369 -3.94226 1.83631 -5.16715Z" clip-rule="evenodd" stroke-width="1"></path>
  </g>
</svg>