<svg preserveAspectRatio="none" width="100%" height="100%" overflow="visible" style="display: block;" viewBox="0 0 19.2857 19.2857" fill="none" xmlns="http://www.w3.org/2000/svg">
<g id="mention-account-username-email-address--mention-account-username-email-address-mail-contact-symbol-sign">
<path id="Subtract" fill-rule="evenodd" clip-rule="evenodd" d="M9.64286 0C8.0024 0 6.4016 0.149986 4.86753 0.32098C2.47903 0.587213 0.559867 2.50471 0.303863 4.89754C0.140583 6.42369 0 8.01377 0 9.64286C0 11.2719 0.140583 12.862 0.303863 14.3881C0.559869 16.781 2.47903 18.6986 4.86753 18.9647C6.4016 19.1357 8.0024 19.2857 9.64286 19.2857C11.2833 19.2857 12.8841 19.1357 14.4181 18.9647C16.8067 18.6986 18.7259 16.781 18.9819 14.3881C19.1451 12.862 19.2857 11.2719 19.2857 9.64286C19.2857 8.01377 19.1451 6.42369 18.9819 4.89754C18.7259 2.50471 16.8067 0.587213 14.4181 0.32098C12.8841 0.149986 11.2833 0 9.64286 0ZM6.24384 6.24384C5.53049 6.95721 5.08929 8.06434 5.08929 9.64286C5.08929 11.2214 5.53049 12.3285 6.24384 13.0419C6.95721 13.7552 8.06434 14.1964 9.64286 14.1964C10.3091 14.1964 10.8929 14.1173 11.397 13.9729C11.871 13.837 12.3654 14.1111 12.5012 14.5851C12.637 15.0593 12.3628 15.5536 11.8888 15.6894C11.201 15.8866 10.4487 15.9821 9.64286 15.9821C7.73566 15.9821 6.11957 15.443 4.98116 14.3046C3.84273 13.1661 3.30357 11.5501 3.30357 9.64286C3.30357 7.73566 3.84273 6.11957 4.98116 4.98116C6.11957 3.84273 7.73566 3.30357 9.64286 3.30357C11.5501 3.30357 13.1661 3.84273 14.3046 4.98116C15.443 6.11957 15.9821 7.73566 15.9821 9.64286C15.9821 10.3861 15.8489 11.1752 15.505 11.8135C15.1471 12.4781 14.5063 13.0499 13.5643 13.0499C12.9856 13.0499 12.4647 12.909 12.0532 12.577C11.978 12.5163 11.9099 12.4521 11.8484 12.3853C11.2427 12.8474 10.4744 13.0501 9.64283 13.0501C8.67394 13.0501 7.79093 12.7749 7.15099 12.1349C6.51104 11.495 6.23579 10.612 6.23579 9.64309C6.23579 8.6742 6.51104 7.79119 7.15099 7.15124C7.79093 6.51131 8.67394 6.23604 9.64283 6.23604C10.6117 6.23604 11.4947 6.51131 12.1347 7.15124C12.7715 7.78804 13.0472 8.66553 13.0499 9.62881C13.0548 9.7832 13.049 9.98937 13.044 10.1657C13.0415 10.2539 13.0393 10.3349 13.0387 10.3979C13.0362 10.6535 13.0492 10.85 13.0862 10.9995C13.121 11.1396 13.1615 11.1767 13.1744 11.1871C13.1849 11.1956 13.2716 11.2642 13.5643 11.2642C13.668 11.2642 13.7897 11.2325 13.9329 10.9667C14.0901 10.6747 14.1964 10.2067 14.1964 9.64286C14.1964 8.06434 13.7552 6.95721 13.0419 6.24384C12.3285 5.53049 11.2214 5.08929 9.64286 5.08929C8.06434 5.08929 6.95721 5.53049 6.24384 6.24384ZM11.2641 9.63087C11.264 9.63854 11.264 9.64624 11.2641 9.65396C11.2621 10.2875 11.0856 10.6586 10.872 10.8722C10.6571 11.0871 10.283 11.2644 9.64283 11.2644C9.00264 11.2644 8.62856 11.0871 8.41368 10.8722C8.19878 10.6574 8.0215 10.2833 8.0215 9.64309C8.0215 9.0029 8.19878 8.62883 8.41368 8.41394C8.62856 8.19906 9.00264 8.02176 9.64283 8.02176C10.283 8.02176 10.6571 8.19906 10.872 8.41394C11.0855 8.62746 11.2619 8.99813 11.2641 9.63087Z" fill="#727374"/>
</g>
</svg>
