<svg xmlns="http://www.w3.org/2000/svg" fill="none" viewBox="0 0 48 48" id="Pencil-Square--Streamline-Flex" height="48" width="48">
  <desc>
    Pencil Square Streamline Icon: https://streamlinehq.com
  </desc>
  <g id="pencil-square--change-document-edit-modify-paper-pencil-write-writing">
    <path id="Union" fill="#000000" fill-rule="evenodd" d="M44.982857142857135 2.258653714285714c3.5324571428571425 3.121152 4.0416 8.251666285714284 1.1232 11.319140571428571L32.49771428571429 27.881245714285715c-0.18054857142857142 0.18980571428571427 -0.4081028571428571 0.3305142857142857 -0.6646285714285713 0.4110857142857143l-8.447965714285713 2.652925714285714c-2.6676685714285715 0.8377028571428571 -5.514651428571429 -1.7452114285714286 -4.9339885714285705 -4.473222857142857l1.8049371428571428 -8.479851428571427c0.056537142857142855 -0.26554285714285714 0.17736 -0.5074628571428571 0.3526628571428571 -0.7061828571428571L33.78380571428571 2.35308C36.519085714285715 -0.7471097142857142 41.53302857142857 -0.7893771428571428 44.982857142857135 2.258653714285714ZM17.257817142857142 14.334274285714287l7.527119999999999 -8.531382857142857c-1.1927314285714286 -0.06442285714285714 -2.3976685714285715 -0.10213714285714286 -3.6120342857142855 -0.10213714285714286 -4.214674285714286 0 -8.315622857142857 0.4543885714285714 -12.186102857142856 0.9016114285714285C4.732868571428571 7.093919999999999 1.334166857142857 10.48313142857143 0.8578937142857144 14.74213714285714 0.4271348571428571 18.59413714285714 0 22.66573714285714 0 26.85037714285714c0 4.184605714285714 0.4271348571428571 8.256137142857144 0.8578937142857144 12.108137142857142 0.47627314285714284 4.258971428571428 3.874974857142857 7.648457142857142 8.128906285714285 8.139771428571427 3.8704457142857143 0.4474285714285714 7.9714285714285715 0.9017142857142857 12.186102857142856 0.9017142857142857 4.21464 0 8.315588571428572 -0.4542857142857143 12.18606857142857 -0.9017142857142857 4.253828571428571 -0.4913142857142857 7.652571428571429 -3.8807999999999994 8.128799999999998 -8.139771428571427 0.43097142857142856 -3.8519999999999994 0.8578285714285713 -7.923531428571429 0.8578285714285713 -12.108137142857142 0 -0.9312342857142857 -0.020914285714285715 -1.856845714285714 -0.058628571428571426 -2.775702857142857L35.73942857142857 30.95670857142857c-0.7169142857142857 0.7534628571428571 -1.6036799999999998 1.2929485714285713 -2.5639885714285713 1.594525714285714l-8.447965714285713 2.6529942857142856c-3.1132799999999996 0.9774857142857143 -6.102102857142857 -0.10525714285714285 -8.029542857142857 -1.8530057142857144 -1.927062857142857 -1.7475428571428573 -3.2955771428571428 -4.6164 -2.6163085714285716 -7.807611428571428l1.8049371428571428 -8.479817142857142c0.21216 -0.9966857142857143 0.6748799999999999 -1.9402285714285712 1.371257142857143 -2.72952Z" clip-rule="evenodd" stroke-width="3.4286"></path>
  </g>
</svg>