<svg preserveAspectRatio="none" width="100%" height="100%" overflow="visible" style="display: block;" viewBox="0 0 15.4286 15.4286" fill="none" xmlns="http://www.w3.org/2000/svg">
<g id="upload-box-2--arrow-button-download-internet-network-server-up-upload">
<path id="Union" fill-rule="evenodd" clip-rule="evenodd" d="M6.85717 8.74526V3.89456C6.40877 3.92827 5.95726 3.98834 5.49777 4.07478C5.17778 4.13497 4.85131 4.00866 4.65517 3.74878C4.45901 3.48889 4.42704 3.14031 4.57265 2.84909C5.13065 1.7331 6.21526 0.648489 7.3312 0.0904959C7.57251 -0.0301613 7.85654 -0.0301659 8.09785 0.0904856C9.21389 0.648479 10.2985 1.7331 10.8565 2.84909C11.0021 3.14031 10.9701 3.48889 10.774 3.74878C10.5778 4.00866 10.2514 4.13497 9.93138 4.07478C9.47171 3.98831 9.02002 3.92823 8.57145 3.89453V8.74526C8.57145 9.21864 8.18769 9.6024 7.71431 9.6024C7.24093 9.6024 6.85717 9.21864 6.85717 8.74526ZM3.51491 4.64122C3.20099 4.22531 3.04477 3.72421 3.05395 3.2221C2.84593 3.24543 2.63768 3.27031 2.42919 3.29674C1.32422 3.43687 0.436707 4.25285 0.28421 5.33375C0.151771 6.27248 0.0109566 7.62631 5.37038e-05 9.19088V9.19855C0.0109554 10.7629 0.151754 12.1163 0.284194 13.0549C0.436727 14.1357 1.32421 14.9514 2.42905 15.0915C5.9764 15.5415 9.45147 15.5405 12.9987 15.0913C14.1039 14.9513 14.9919 14.1354 15.1445 13.0542C15.2769 12.1158 15.4176 10.7626 15.4286 9.19855V9.19088C15.4176 7.62659 15.2768 6.27297 15.1443 5.33426C14.9918 4.25298 14.1038 3.43702 12.9986 3.29706C12.7905 3.27072 12.5827 3.24592 12.3752 3.22265C12.3842 3.72457 12.228 4.22546 11.9142 4.64122C11.4591 5.24419 10.741 5.57751 10 5.54824V8.77709C10 10.0395 8.97666 11.0628 7.7143 11.0628C6.45193 11.0628 5.42858 10.0395 5.42858 8.77709V5.54826C4.68782 5.57736 3.9699 5.24405 3.51491 4.64122Z" fill="#2D2D2D"/>
</g>
</svg>
