<svg preserveAspectRatio="none" width="100%" height="100%" overflow="visible" style="display: block;" viewBox="0 0 20 17.146" fill="none" xmlns="http://www.w3.org/2000/svg">
<g id="camera-1--photos-picture-camera-photography-photo-pictures">
<path id="Subtract" fill-rule="evenodd" clip-rule="evenodd" d="M7.31673 0.18431C9.12263 -0.0614368 10.8775 -0.0614368 12.6834 0.18431C13.3737 0.278253 13.9496 0.714825 14.2551 1.31088L14.9579 2.6823C15.3309 2.71205 15.7011 2.74274 16.0676 2.77311L16.2823 2.79088C17.9604 2.92975 19.3663 4.18075 19.622 5.83522C19.8154 7.08704 20 8.42065 20 9.79467C20 11.1687 19.8154 12.5023 19.622 13.7541C19.3663 15.4086 17.9604 16.6596 16.2823 16.7984L16.0687 16.8161L16.0559 16.8173C14.1229 16.9774 12.0884 17.146 10 17.146C7.91163 17.146 5.87714 16.9774 3.94427 16.8173L3.93127 16.8161L3.7177 16.7984C2.03959 16.6596 0.633679 15.4086 0.377976 13.7541C0.184503 12.5023 0 11.1687 0 9.79467C0 8.42065 0.184503 7.08704 0.377976 5.83522C0.633677 4.18075 2.03959 2.92975 3.7177 2.79088L3.93121 2.7732C4.2977 2.74282 4.66919 2.71204 5.04219 2.6823L5.74501 1.31088C6.05049 0.714825 6.62636 0.278253 7.31673 0.18431ZM7.36889 6.87354C8.00033 6.24211 8.90569 5.93322 10 5.93322C11.0943 5.93322 11.9997 6.24211 12.6311 6.87354C13.2625 7.50498 13.5714 8.41034 13.5714 9.50465C13.5714 10.599 13.2625 11.5043 12.6311 12.1358C11.9997 12.7672 11.0943 13.0761 10 13.0761C8.90569 13.0761 8.00033 12.7672 7.36889 12.1358C6.73746 11.5043 6.42857 10.599 6.42857 9.50465C6.42857 8.41034 6.73746 7.50498 7.36889 6.87354Z" fill="#727374"/>
</g>
</svg>
