<svg preserveAspectRatio="none" width="100%" height="100%" overflow="visible" style="display: block;" viewBox="0 0 12.8308 12.8308" fill="none" xmlns="http://www.w3.org/2000/svg">
<g id="application-add--application-new-add-square">
<path id="Vector" d="M9.87167 0.655V5.26333" stroke="#727374" stroke-width="1.31" stroke-linecap="round" stroke-linejoin="round"/>
<path id="Vector_2" d="M7.5675 2.95906H12.1758" stroke="#727374" stroke-width="1.31" stroke-linecap="round" stroke-linejoin="round"/>
<path id="Intersect" d="M0.749044 8.51388C0.79809 8.07146 1.15229 7.71738 1.59451 7.66652C2.03676 7.61567 2.49291 7.5675 2.95917 7.5675C3.42542 7.5675 3.88157 7.61567 4.32382 7.66652C4.76604 7.71738 5.12024 8.07146 5.16929 8.51388C5.21807 8.95394 5.26333 9.40779 5.26333 9.87167C5.26333 10.3355 5.21807 10.7894 5.16929 11.2295C5.12024 11.6719 4.76604 12.026 4.32382 12.0768C3.88157 12.1276 3.42542 12.1758 2.95917 12.1758C2.49291 12.1758 2.03676 12.1276 1.59451 12.0768C1.15229 12.026 0.79809 11.6719 0.749044 11.2295C0.70026 10.7894 0.655 10.3355 0.655 9.87167C0.655 9.40779 0.70026 8.95394 0.749044 8.51388Z" stroke="#727374" stroke-width="1.31" stroke-linecap="round" stroke-linejoin="round"/>
<path id="Intersect_2" d="M0.749044 1.60138C0.79809 1.15896 1.15229 0.804884 1.59451 0.754027C2.03676 0.703164 2.49291 0.655 2.95917 0.655C3.42542 0.655 3.88157 0.703164 4.32382 0.754027C4.76604 0.804884 5.12024 1.15896 5.16929 1.60138C5.21807 2.04144 5.26333 2.49529 5.26333 2.95917C5.26333 3.42305 5.21807 3.8769 5.16929 4.31696C5.12024 4.75938 4.76604 5.11345 4.32382 5.16431C3.88157 5.21517 3.42542 5.26333 2.95917 5.26333C2.49291 5.26333 2.03676 5.21517 1.59451 5.16431C1.15229 5.11345 0.79809 4.75938 0.749044 4.31696C0.70026 3.8769 0.655 3.42305 0.655 2.95917C0.655 2.49529 0.70026 2.04144 0.749044 1.60138Z" stroke="#727374" stroke-width="1.31" stroke-linecap="round" stroke-linejoin="round"/>
<path id="Intersect_3" d="M7.66155 8.51388C7.71059 8.07146 8.06479 7.71738 8.50701 7.66652C8.94926 7.61567 9.4054 7.5675 9.87167 7.5675C10.3379 7.5675 10.7941 7.61567 11.2363 7.66652C11.6785 7.71738 12.0327 8.07146 12.0818 8.51388C12.1306 8.95394 12.1758 9.40779 12.1758 9.87167C12.1758 10.3355 12.1306 10.7894 12.0818 11.2295C12.0327 11.6719 11.6785 12.026 11.2363 12.0768C10.7941 12.1276 10.3379 12.1758 9.87167 12.1758C9.4054 12.1758 8.94926 12.1276 8.50701 12.0768C8.06479 12.026 7.71059 11.6719 7.66155 11.2295C7.61276 10.7894 7.5675 10.3355 7.5675 9.87167C7.5675 9.40779 7.61276 8.95394 7.66155 8.51388Z" stroke="#727374" stroke-width="1.31" stroke-linecap="round" stroke-linejoin="round"/>
</g>
</svg>
