<svg preserveAspectRatio="none" width="100%" height="100%" overflow="visible" style="display: block;" viewBox="0 0 10.6333 11.4102" fill="none" xmlns="http://www.w3.org/2000/svg">
<g id="open-hand">
<path id="Vector 107" d="M5.6621 2.35648V5.40788M5.6621 2.35648V1.68333C5.6621 1.1154 6.12006 0.655 6.68497 0.655C7.24988 0.655 7.70783 1.1154 7.70783 1.68333V2.96734M5.6621 2.35648C5.66189 1.75772 5.17901 1.272 4.58337 1.272C4.03308 1.272 3.56944 1.68855 3.515 2.23908C3.35993 3.80744 3.2985 5.03895 3.41159 6.74784L2.1178 6.26548C1.59845 6.07186 1.01738 6.30248 0.769662 6.80056C0.545109 7.25206 0.657923 7.79946 1.04243 8.1241L4.15876 10.7552M7.70783 2.96734C7.70838 2.37169 8.18891 1.88901 8.78149 1.88901C9.33327 1.88901 9.79671 2.30771 9.84209 2.86055C10.0376 5.24406 10.2118 9.47186 8.93532 10.7552M7.70783 2.96734V5.38532" stroke="#FF0023" stroke-width="1.13" stroke-linecap="round" stroke-linejoin="round"/>
<path id="Vector 526" d="M3.41869 6.74798C4.52903 6.74798 5.37303 7.1412 5.78006 8.03339" stroke="#FF0023" stroke-width="1.13" stroke-linecap="round" stroke-linejoin="round"/>
</g>
</svg>
