<svg xmlns="http://www.w3.org/2000/svg" fill="none" viewBox="0 0 24 24" id="Champagne-Party-Alcohol--Streamline-Flex" height="24" width="24">
  <desc>
    Champagne Party Alcohol Streamline Icon: https://streamlinehq.com
  </desc>
  <g id="champagne-party-alcohol">
    <path id="Union" fill="#000000" fill-rule="evenodd" d="M14.451531428571426 17.03706857142857c0.6291942857142857 0.08934857142857142 1.2795771428571427 0.08936571428571428 1.9340914285714286 -0.010662857142857142l0.8576914285714285 3.0936514285714285c-0.9000171428571427 0.2813142857142857 -1.7899714285714283 0.6132 -2.6781599999999997 0.9977142857142856 -0.6489771428571428 0.28097142857142854 -0.9374914285714284 1.0345714285714285 -0.6444171428571429 1.6832571428571428 0.2930742857142857 0.6486857142857143 1.0567542857142855 0.9468 1.7057314285714285 0.6658285714285714 1.1674114285714285 -0.5053714285714286 2.334788571428571 -0.9095999999999999 3.5281028571428568 -1.2190285714285714l0.009771428571428572 -0.0025714285714285713 0.008057142857142856 -0.0020571428571428568c1.1936571428571428 -0.30874285714285715 2.4137142857142853 -0.5228571428571428 3.6860571428571425 -0.6493714285714286 0.7074857142857143 -0.07028571428571428 1.2145714285714286 -0.6975428571428571 1.1328 -1.4009142857142858 -0.08177142857142856 -0.7033714285714285 -0.7213714285714286 -1.2166285714285714 -1.4288571428571428 -1.146342857142857 -0.9673714285714285 0.09617142857142856 -1.9091999999999998 0.2388 -2.833542857142857 0.4299428571428572l-0.863142857142857 -3.1136914285714283 -0.0041142857142857136 -0.016422857142857142c2.823942857142857 -1.1964 4.410342857142857 -4.198422857142857 3.798857142857143 -7.196091428571429 -0.5413714285714286 -2.6537142857142855 -1.6673142857142857 -5.079445714285714 -2.883428571428571 -7.389994285714286 -0.49902857142857143 -0.9479091428571428 -1.5461142857142858 -1.4554954285714286 -2.5964571428571426 -1.3055605714285712 -0.45603428571428567 0.06507942857142857 -0.9070285714285714 0.13782342857142857 -1.3539771428571428 0.21846685714285713C17.295942857142855 1.4222982857142856 18.30137142857143 2.9143714285714286 18.34782857142857 4.632857142857143c0.8003999999999999 1.668 1.4429142857142856 3.31524 1.7929714285714287 5.031428571428571 0.3178285714285714 1.557942857142857 -0.35382857142857144 3.1235142857142852 -1.6585714285714286 3.9807428571428565 1.2008571428571428 -0.7890342857142857 1.8654857142857142 -2.1781542857142857 1.7158285714285713 -3.6090685714285713 -0.7546285714285713 -0.06426857142857142 -1.5701142857142858 -0.12521142857142856 -2.3730857142857142 -0.16961142857142855 -0.09582857142857142 0.5325428571428571 -0.2086285714285714 1.0678971428571429 -0.342 1.6041771428571427l0 0.00003428571428571428c-0.15994285714285714 0.6424285714285715 -0.3496114285714286 1.2861771428571427 -0.5754171428571428 1.9279885714285714 -0.11969142857142856 0.3402342857142857 -0.2591485714285714 0.66924 -0.41674285714285714 0.9860228571428571l-0.00005142857142857143 0.00001714285714285714c-0.5088685714285713 1.022862857142857 -1.20684 1.9182342857142856 -2.0392285714285716 2.6524799999999997Zm-7.972971428571428 -14.034017142857142C5.30244 5.241359999999999 4.326411428571428 7.392411428571428 3.8629542857142853 9.664285714285715c-0.3920057142857143 1.9216457142857142 0.7214742857142857 3.8549314285714282 2.671182857142857 4.4562 0.4266514285714285 0.1315542857142857 0.8031599999999999 0.22923428571428572 1.2406114285714287 0.32177142857142854 0.09395999999999999 0.019885714285714284 0.18788571428571427 0.03632571428571429 0.28163999999999995 0.04944 -0.09372 -0.013114285714285714 -0.18761142857142854 -0.02957142857142857 -0.2815371428571428 -0.04944 -0.4374685714285714 -0.09253714285714285 -0.8139771428571428 -0.19021714285714286 -1.2406114285714287 -0.32177142857142854 -1.8239485714285715 -0.5624914285714285 -2.916085714285714 -2.2906971428571428 -2.72844 -4.08456 1.5117085714285714 -0.12879428571428572 3.2687142857142852 -0.24416571428571426 4.676897142857142 -0.23998285714285714 1.3536857142857142 0.004011428571428571 3.0426857142857138 0.12049714285714286 4.495028571428572 0.2478685714285714 0.38268 -1.6478914285714283 0.5517085714285714 -3.3746228571428567 0.652062857142857 -5.191628571428571 -2.3390914285714284 -0.8918571428571428 -4.661382857142857 -1.492422857142857 -7.151228571428571 -1.8491314285714284Zm8.40750857142857 9.684291428571427c0.9006 -2.5598742857142858 1.1774914285714284 -5.205839999999999 1.3168114285714285 -7.79574857142857 0.05790857142857142 -1.0764342857142857 -0.598662857142857 -2.0364857142857145 -1.5936 -2.41788C12.064045714285713 1.4980319999999998 9.530982857142856 0.8412222857142857 6.823302857142856 0.4547537142857142c-1.0504799999999999 -0.14993485714285712 -2.0975828571428567 0.35765142857142856 -2.5965257142857143 1.3055605714285712C3.010594285714286 4.070862857142857 1.8847542857142856 6.496594285714286 1.3434154285714286 9.150308571428571c-0.6114 2.9971371428571425 0.9742817142857143 5.998645714285714 3.7972645714285713 7.195457142857142l-0.002297142857142857 0.008057142857142856 -0.8656799999999999 3.1226914285714282c-0.9248571428571428 -0.19131428571428571 -1.8671828571428573 -0.33394285714285715 -2.8352022857142853 -0.4301142857142857 -0.707376 -0.07028571428571428 -1.3470954857142858 0.4427999999999999 -1.4288532857142857 1.1461714285714284 -0.08175779999999999 0.7035428571428571 0.4254064285714286 1.3306285714285713 1.1327824285714285 1.4010857142857143 2.551244571428571 0.2535428571428571 4.891433142857143 0.859542857142857 7.232067428571428 1.8728571428571428 0.6489771428571428 0.28097142857142854 1.4126571428571426 -0.017142857142857144 1.7057314285714285 -0.6656571428571428 0.2930742857142857 -0.6486857142857143 0.004542857142857143 -1.4024571428571428 -0.6444342857142856 -1.6832571428571428 -0.8876742857142856 -0.38434285714285715 -1.7771485714285713 -0.7160571428571428 -2.676582857142857 -0.9973714285714285l0.8577942857142857 -3.0941485714285712c3.159445714285714 0.4839771428571429 6.223337142857142 -1.3635085714285713 7.270062857142857 -4.338737142857143Z" clip-rule="evenodd" stroke-width="1.7143"></path>
  </g>
</svg>