<svg xmlns="http://www.w3.org/2000/svg" fill="none" viewBox="0 0 14 14" id="Ticket-1--Streamline-Flex">
  <desc>
    Ticket 1 Streamline Icon: https://streamlinehq.com
  </desc>
  <g id="ticket-1--hobby-ticket-event-entertainment-stub-theater-entertainment">
    <path id="Subtract" fill="#000000" fill-rule="evenodd" d="M2.4974 1.40337c3.48022 -0.58292 5.49077 -0.493208 8.9921 -0.00202C12.7861 1.58326 14 2.48068 14 3.95087v1.19498c0 0.20025 -0.1195 0.38119 -0.3036 0.45983 -0.5636 0.24064 -0.9517 0.79158 -0.9517 1.42673 0 0.63514 0.3881 1.18609 0.9517 1.42673 0.1841 0.07864 0.3036 0.25957 0.3036 0.45983v1.19493c0 0.6978 -0.2577 1.3024 -0.7216 1.7516 -0.4572 0.4428 -1.0857 0.7079 -1.7949 0.7988 -3.49359 0.4474 -5.46684 0.4504 -8.96733 -0.0001C1.1254 12.4852 0 11.572 0 10.1139V8.91902c0 -0.20026 0.119496 -0.38121 0.303679 -0.45984 0.563602 -0.24062 0.951761 -0.79159 0.951761 -1.42677 0 -0.63518 -0.388159 -1.18615 -0.95176 -1.42677C0.119496 5.52701 0 5.34606 0 5.14579V3.95087c0 -0.70766 0.27584 -1.30162 0.743165 -1.74088 0.458075 -0.43055 1.077765 -0.69331 1.754235 -0.80662ZM9.625 6.74994c0 -0.34518 -0.27982 -0.625 -0.625 -0.625s-0.625 0.27982 -0.625 0.625v0.5c0 0.34518 0.27982 0.625 0.625 0.625s0.625 -0.27982 0.625 -0.625v-0.5ZM9 3.12494c0.34518 0 0.625 0.27982 0.625 0.625v0.5c0 0.34518 -0.27982 0.625 -0.625 0.625s-0.625 -0.27982 -0.625 -0.625v-0.5c0 -0.34518 0.27982 -0.625 0.625 -0.625Zm0.625 6.625c0 -0.34518 -0.27982 -0.625 -0.625 -0.625s-0.625 0.27982 -0.625 0.625v0.49996c0 0.3452 0.27982 0.625 0.625 0.625s0.625 -0.2798 0.625 -0.625v-0.49996Z" clip-rule="evenodd" stroke-width="1"></path>
  </g>
</svg>