<svg preserveAspectRatio="none" width="100%" height="100%" overflow="visible" style="display: block;" viewBox="0 0 64.0091 64.0042" fill="none" xmlns="http://www.w3.org/2000/svg">
<g id="chat-two-bubbles-oval--messages-message-bubble-chat-oval-conversation">
<path id="Union" fill-rule="evenodd" clip-rule="evenodd" d="M29.6721 0C21.0719 0 14.0302 2.42588 9.14083 7.31529C4.2514 12.2047 1.82552 19.2464 1.82552 27.8466C1.82552 32.714 2.60006 37.0797 4.16549 40.8475L0.274584 51.5474C-0.987823 55.019 2.31648 58.4137 5.82092 57.2457L17.044 53.5049L17.1206 53.5351C15.6371 49.909 14.9699 45.8834 14.9699 41.7012C14.9699 34.2447 17.091 27.2864 22.1771 22.2003C27.2633 17.1142 34.2216 14.993 41.678 14.993C47.0143 14.993 52.0959 16.0795 56.4182 18.5616C55.7901 16.1382 54.8918 13.9102 53.7206 11.8978C49.1299 4.01024 40.7069 0 29.6721 0ZM26.2177 26.2409C29.9422 22.5164 35.2707 20.7073 41.678 20.7073C48.0854 20.7073 53.4138 22.5164 57.1382 26.2409C60.8625 29.9653 62.6719 35.2939 62.6719 41.7012C62.6719 45.2332 62.1247 48.4352 61.0033 51.2293L63.7699 58.8384C64.8694 61.861 61.9921 64.8169 58.9411 63.7998L50.937 61.1319C48.207 62.1819 45.0974 62.6949 41.678 62.6949C35.2707 62.6949 29.9422 60.8859 26.2177 57.1616C22.4933 53.4368 20.6841 48.1083 20.6841 41.7012C20.6841 35.2939 22.4933 29.9653 26.2177 26.2409Z" fill="#727374"/>
</g>
</svg>
