<svg xmlns="http://www.w3.org/2000/svg" fill="none" viewBox="-0.78 -0.78 20 20" id="Sign-At--Streamline-Flex" height="20" width="20">
  <desc>
    Sign At Streamline Icon: https://streamlinehq.com
  </desc>
  <g id="sign-at--mail-email-at-sign-read-address">
    <path id="Vector" stroke="#000000" stroke-linecap="round" stroke-linejoin="round" d="M12.243000914285716 17.061873428571428c-0.9007676571428572 0.25816 -1.9104893714285716 0.3902694285714286 -3.023000914285714 0.3902694285714286C3.9514285714285715 17.452142857142857 0.9878571428571429 14.48857142857143 0.9878571428571429 9.22S3.9514285714285715 0.9878571428571429 9.22 0.9878571428571429 17.452142857142857 3.9514285714285715 17.452142857142857 9.22c0 1.9757142857142858 -0.7244285714285715 3.800128371428572 -2.305 3.800128371428572 -2.6342857142857143 0 -2.076686457142857 -2.5334189142857144 -2.1271725428571426 -3.800128371428572" stroke-width="1.56"></path>
    <path id="Vector_2" stroke="#000000" stroke-linecap="round" stroke-linejoin="round" d="M9.219841942857142 13.020128371428571c2.4320779428571426 0 3.800128371428572 -1.3680504285714288 3.800128371428572 -3.800128371428572 0 -2.4320779428571426 -1.3680504285714288 -3.800128371428572 -3.800128371428572 -3.800128371428572 -2.4320911142857145 0 -3.800128371428572 1.3680504285714288 -3.800128371428572 3.800128371428572 0 2.4320779428571426 1.3680372571428572 3.800128371428572 3.800128371428572 3.800128371428572Z" stroke-width="1.56"></path>
  </g>
</svg>