<svg preserveAspectRatio="none" width="100%" height="100%" overflow="visible" style="display: block;" viewBox="0 0 13.0946 13.0976" fill="none" xmlns="http://www.w3.org/2000/svg">
<g id="tools-design-services--tools-design-services-pen-ruler">
<path id="Vector" d="M8.23919 1.46288L2.07187 7.81109L0.681541 11.884C0.565486 12.224 0.870741 12.5314 1.21041 12.4168L5.30811 11.0277L11.6097 4.94213C12.6572 3.93059 12.7208 2.2907 11.7502 1.32431C10.8025 0.380687 9.23057 0.442722 8.23919 1.46288Z" stroke="#999999" stroke-width="1.31" stroke-linecap="round" stroke-linejoin="round"/>
<path id="Intersect" d="M1.93003 5.13585C1.56266 4.74682 1.21008 4.37126 0.89045 4.02929C0.611462 3.7308 0.570024 3.27969 0.824085 2.95972C1.40188 2.23203 2.23034 1.40357 2.95802 0.825776C3.278 0.571714 3.7291 0.613153 4.0276 0.892141C4.36958 1.21178 4.74513 1.56435 5.13417 1.93172M7.97695 11.1818C8.36009 11.5436 8.72987 11.8908 9.06701 12.2058C9.36552 12.4848 9.81656 12.5263 10.1366 12.2722C10.8643 11.6944 11.6927 10.866 12.2705 10.1383C12.5246 9.8183 12.4832 9.36717 12.2042 9.06869C11.889 8.73156 11.5419 8.36179 11.1802 7.97863" stroke="#999999" stroke-width="1.31" stroke-linecap="round" stroke-linejoin="round"/>
</g>
</svg>
