<svg preserveAspectRatio="none" width="100%" height="100%" overflow="visible" style="display: block;" viewBox="-0.94 -0.94 20 20" fill="none" xmlns="http://www.w3.org/2000/svg">
  <g id="tools-design-services--tools-design-services-pen-ruler">
    <path id="Vector" stroke="#999999" stroke-linecap="round" stroke-linejoin="round" d="M11.475784285714285 1.7978146285714287 2.6694901714285715 10.8623964 0.6842435571428572 16.678036285714285c-0.1657151657142857 0.4854865714285714 0.2701575514285714 0.9245082857142858 0.7551704142857143 0.7607811428571428l5.851090371428572 -1.9833634285714286L16.288585714285716 6.765826799999999c1.4956765714285714 -1.4443840285714284 1.5865354285714286 -3.785966914285714 0.20061428571428572 -5.1658696285714285 -1.353305142857143 -1.3474006114285713 -3.597829542857143 -1.2588209914285713 -5.013415714285714 0.19785745714285716Z" stroke-width="1.88"></path>
    <path id="Intersect" stroke="#999999" stroke-linecap="round" stroke-linejoin="round" d="M2.466960342857143 7.0424415428571425c-0.524574 -0.5555074285714285 -1.0280123142857143 -1.0917558857142857 -1.48441758 -1.5800640000000001C0.5841771514285714 5.036169257142857 0.5250075857142857 4.392029142857143 0.8877816342857142 3.9351462857142856 1.712805942857143 2.8960807714285712 2.895770142857143 1.7131295142857141 3.934822714285714 0.88809744c0.45689579999999996 -0.3627740485714286 1.1010229714285713 -0.3036031885714286 1.5272442000000002 0.09476242285714286 0.4883081142857143 0.45641173714285715 1.0245565714285714 0.9598500514285714 1.5800640000000001 1.4844111085714284M11.101321542857143 15.67548257142857c0.5470945714285714 0.5165494285714286 1.0750984285714285 1.012260857142857 1.556495057142857 1.4621545714285713 0.42624711428571427 0.3983811428571429 1.0702836857142857 0.45753 1.5272959714285712 0.09474171428571429 1.0390525714285714 -0.8249777142857142 2.2219002857142853 -2.007954857142857 3.047007428571429 -3.047007428571429 0.3627882857142857 -0.4568828571428571 0.30363942857142856 -1.1010488571428572 -0.09474171428571429 -1.5272442000000002 -0.45002314285714284 -0.48139662857142856 -0.9456051428571429 -1.0093875428571428 -1.4621545714285713 -1.556495057142857" stroke-width="1.88"></path>
  </g>
</svg>
