<svg width="126" height="126" viewBox="0 0 126 126" fill="none" xmlns="http://www.w3.org/2000/svg">
<path d="M50.7684 0.048135C54.7161 -0.166812 58.5459 0.306975 62.0671 2.10209C65.8838 4.02334 68.6972 7.33071 69.8536 11.2546C71.3665 16.2059 70.2231 21.7855 67.5748 26.1956C64.6993 30.983 60.4923 33.911 54.9497 35.4788C53.4281 35.9091 51.874 36.2602 50.3611 36.646C43.8159 38.235 38.2551 41.9631 34.8469 47.4974C31.4972 52.937 29.3052 58.6664 22.174 60.5372C21.5331 60.6938 20.8791 60.7979 20.2191 60.8482C10.197 61.6647 3.25169 53.1255 2.66608 44.439C2.04913 35.2868 6.80212 26.588 13.0382 19.8749C21.8421 10.3975 37.1936 0.974894 50.7684 0.048135Z" fill="#2D2D2D"/>
<path d="M93.8836 19.4516C102.508 18.7866 110.739 23.1449 116.112 29.2521C122.672 36.7105 126.704 46.4997 125.898 56.2537C125.053 66.4617 117.287 77.9808 105.138 76.8875C103.269 76.7226 101.039 75.9507 99.4865 74.9479C91.1962 69.5927 94.2769 60.7557 88.8681 53.7972C86.0737 49.7906 81.2625 49.0155 77.5302 46.1243C71.0054 41.0711 72.0333 32.4407 77.2959 26.9213C81.6067 22.3996 87.52 19.8831 93.8836 19.4516Z" fill="#2D2D2D"/>
<path d="M13.6279 65.281C18.0782 64.9076 24.0024 67.2967 27.7566 69.6361C37.2041 75.5253 47.285 85.9183 49.8354 96.5615C51.0876 101.787 50.2869 107.76 47.1317 112.234C44.6198 115.796 41.2527 117.678 36.8755 118.542C17.9648 121.245 1.37423 98.9967 0.0774468 83.1623C-0.634404 74.4718 3.53586 65.9488 13.6279 65.281Z" fill="#2D2D2D"/>
<path d="M90.1724 79.323C96.2761 78.9957 101.91 80.2992 106.733 83.9137C117.643 92.0915 113.965 105.937 106.163 114.762C100.724 120.913 93.4018 125.112 84.8449 125.874C79.3623 126.527 72.6957 124.592 68.5192 121.291C57.9499 112.936 60.3298 98.9272 68.5852 89.948C74.2278 83.8121 81.5245 79.9682 90.1724 79.323Z" fill="#2D2D2D"/>
</svg>
