<svg preserveAspectRatio="none" width="100%" height="100%" overflow="visible" style="display: block;" viewBox="0 0 10.8353 10.7064" fill="none" xmlns="http://www.w3.org/2000/svg">
<g id="user-friendship-group">
<path id="Vector 1228" d="M4.62525 6.238C4.58188 7.02487 4.42449 8.73243 4.14196 9.26778C3.7888 9.93691 3.32412 10.1414 2.91519 10.1414C2.50627 10.1414 2.07877 9.82541 1.89289 9.37927C1.74419 9.02243 1.55831 8.04102 1.48395 7.59489C1.14319 7.64446 0.483967 7.55772 0.573187 6.81422C0.662407 6.07072 0.783828 5.40157 0.833388 5.15993C0.944914 4.68906 1.47652 3.74729 2.71073 3.74729H8.12459C9.3588 3.74729 9.89034 4.68906 10.0019 5.15993C10.0515 5.40157 10.1729 6.07072 10.2621 6.81422C10.3513 7.55772 9.69212 7.64446 9.35135 7.59489C9.27696 8.04102 9.09109 9.02243 8.9424 9.37927C8.75652 9.82541 8.32902 10.1414 7.92008 10.1414C7.51118 10.1414 7.04649 9.93691 6.69333 9.26778C6.41081 8.73243 6.25342 7.02487 6.21005 6.238" stroke="#0051FF" stroke-width="1.13" stroke-linecap="round" stroke-linejoin="round"/>
<path id="Vector" d="M2.74264 3.74244C3.75943 3.74244 4.33136 3.1705 4.33136 2.15372C4.33136 1.13694 3.75943 0.565 2.74264 0.565C1.72586 0.565 1.15392 1.13694 1.15392 2.15372C1.15392 3.1705 1.72586 3.74244 2.74264 3.74244Z" stroke="#0051FF" stroke-width="1.13" stroke-linecap="round" stroke-linejoin="round"/>
<path id="Vector_2" d="M8.10789 3.74244C9.1247 3.74244 9.69662 3.1705 9.69662 2.15372C9.69662 1.13694 9.1247 0.565 8.10789 0.565C7.09111 0.565 6.51917 1.13694 6.51917 2.15372C6.51917 3.1705 7.09111 3.74244 8.10789 3.74244Z" stroke="#0051FF" stroke-width="1.13" stroke-linecap="round" stroke-linejoin="round"/>
</g>
</svg>
