<svg xmlns="http://www.w3.org/2000/svg" fill="none" viewBox="0 0 48 48" id="User-Multiple-Group--Streamline-Flex" height="48" width="48">
  <desc>
    User Multiple Group Streamline Icon: https://streamlinehq.com
  </desc>
  <g id="user-multiple-group--close-geometric-human-multiple-person-up-user">
    <path id="Union" fill="#000000" fill-rule="evenodd" d="M18.127885714285714 27.99901714285714c-5.60544 0 -10.82238857142857 1.6856914285714284 -15.165185142857142 4.578102857142857 -1.430664 0.9528685714285714 -2.374422857142857 2.2098514285714286 -2.763940114285714 3.6344228571428574 -0.38687074285714285 1.4146285714285713 -0.18728866285714285 2.8505142857142856 0.41059268571428564 4.0968 1.1873108571428572 2.475085714285714 3.947698285714286 4.266857142857142 7.283492571428571 4.266857142857142h20.470114285714285c3.3357942857142855 0 6.09624 -1.7917714285714283 7.283554285714285 -4.266857142857142 0.5979428571428571 -1.2462857142857142 0.7974857142857142 -2.6821714285714284 0.4104 -4.0968 -0.38948571428571427 -1.4245714285714284 -1.3330285714285712 -2.681554285714286 -2.763805714285714 -3.6344228571428574 -4.3427999999999995 -2.8924114285714286 -9.559748571428571 -4.578102857142857 -15.165222857142856 -4.578102857142857Z" clip-rule="evenodd" stroke-width="3.4286"></path>
    <path id="Subtract" fill="#000000" fill-rule="evenodd" d="M40.199999999999996 35.07805714285714c0.6905142857142856 2.5248 0.3106285714285714 5.0211428571428565 -0.6809142857142857 7.088228571428571 -0.41897142857142855 0.8732571428571427 -0.9473142857142857 1.68 -1.5665142857142855 2.4085714285714284h2.983885714285714c2.985257142857143 0 5.455542857142857 -1.6035428571428572 6.518057142857143 -3.8183999999999996 0.5351999999999999 -1.1153142857142855 0.7138285714285714 -2.400342857142857 0.3675428571428571 -3.6665142857142854 -0.34868571428571427 -1.2747428571428572 -1.193142857142857 -2.3996571428571425 -2.4737142857142858 -3.252445714285714 -2.3890285714285713 -1.5913371428571428 -5.074285714285714 -2.774502857142857 -7.953942857142857 -3.4499314285714284 1.3162285714285715 1.2807085714285713 2.3053714285714286 2.8614171428571424 2.8056 4.690491428571429Z" clip-rule="evenodd" stroke-width="3.4286"></path>
    <path id="Vector" fill="#000000" d="M18.132994285714283 25.075851428571426c6.928354285714286 0 10.825542857142857 -3.897188571428571 10.825542857142857 -10.82550857142857 0 -6.928354285714286 -3.897188571428571 -10.825539428571428 -10.825542857142857 -10.825539428571428 -6.92832 0 -10.82550857142857 3.8971851428571425 -10.82550857142857 10.825539428571428 0 6.92832 3.897188571428571 10.82550857142857 10.82550857142857 10.82550857142857Z" stroke-width="3.4286"></path>
    <path id="Subtract_2" fill="#000000" fill-rule="evenodd" d="m28.31629714285714 9.85416 0.00020571428571428572 -0.00010285714285714286c0.42479999999999996 1.28832 0.6429257142857142 2.7577714285714285 0.6429257142857142 4.396868571428571 0 3.7346742857142856 -1.132422857142857 6.588617142857142 -3.261565714285714 8.426125714285714 -0.00010285714285714286 -0.00017142857142857143 -0.00020571428571428572 -0.00030857142857142856 -0.00030857142857142856 -0.00047999999999999996 2.1291085714285716 -1.8375085714285713 3.2614971428571424 -4.6914171428571425 3.2614971428571424 -8.426057142857141 0 -1.6388914285714284 -0.21809142857142855 -3.1081371428571427 -0.6427542857142857 -4.396354285714286Zm0.8888571428571428 15.42222857142857c2.8464342857142855 -2.8608685714285715 4.049931428571428 -6.781954285714285 4.049931428571428 -11.025462857142857 0 -1.8429599999999997 -0.22697142857142855 -3.625062857142857 -0.7169828571428571 -5.285965714285714 0.05509714285714286 -0.0006171428571428571 0.11046857142857142 -0.0009599999999999999 0.16607999999999998 -0.0009599999999999999 5.388617142857142 0 8.419474285714285 3.031028571428571 8.419474285714285 8.41950857142857 0 5.3884799999999995 -3.0308571428571427 8.41950857142857 -8.419474285714285 8.41950857142857 -1.308582857142857 0 -2.478137142857143 -0.17876571428571428 -3.4990285714285716 -0.5266285714285713Z" clip-rule="evenodd" stroke-width="3.4286"></path>
  </g>
</svg>