<svg preserveAspectRatio="none" width="100%" height="100%" overflow="visible" style="display: block;" viewBox="-0.94 -0.94 20 20" fill="none" xmlns="http://www.w3.org/2000/svg">
  <g id="hammer--construction-hammer-mallet-tool-tools-setting-edit-adjust">
    <path id="Vector 86" stroke="#999999" stroke-linecap="round" stroke-linejoin="round" d="M8.467010057142856 11.797362514285714 6.322443342857143 9.6527958C4.458180085714286 10.928767371428572 2.7748838571428567 12.3371832 1.2190631228571427 13.926902571428572c-0.7962808114285714 0.8137174285714286 -0.7465103485714286 2.1103328571428572 0.05849912571428571 2.915378571428571 0.8050081800000001 0.8049162857142858 2.101662437142857 0.8547462857142857 2.9153151514285716 0.05850171428571428 1.5897582000000001 -1.555860857142857 2.998161085714286 -3.239208857142857 4.274132657142857 -5.1034203428571425Z" stroke-width="1.88"></path>
    <path id="Intersect" stroke="#999999" stroke-linecap="round" stroke-linejoin="round" d="M11.506873028571428 1.5160227428571427C10.905858514285713 1.0198388999999999 10.186261542857142 0.7165644600000001 9.465409114285714 0.6556553742857143 7.143667628571428 0.4594804885714286 3.9072285428571427 3.6959234571428574 4.103403428571428 6.0176649428571425c0.06089614285714286 0.7208524285714285 0.3641731714285714 1.4404493999999999 0.8603634857142857 2.0414639142857145 1.5540618 1.8643150285714285 3.2336693142857142 3.5436378 5.097854914285715 5.097803142857143 0.6010015714285714 0.49622914285714287 1.3206114857142857 0.7994802857142858 2.0414509714285716 0.8604411428571428 2.3205766285714287 0.1960842857142857 5.557326342857142 -3.0424774285714284 5.361242057142857 -5.362821085714286 -0.06096085714285714 -0.7208394857142857 -0.364212 -1.4404493999999999 -0.8603117142857142 -2.0414509714285716 -1.5536605714285714 -1.8641208857142857 -3.2331257142857144 -3.5433012857142856 -5.097130114285714 -5.097078342857143Z" stroke-width="1.88"></path>
  </g>
</svg>
