<svg xmlns="http://www.w3.org/2000/svg" fill="none" viewBox="0 0 24 24" id="Heart--Streamline-Flex" height="24" width="24">
  <desc>
    Heart Streamline Icon: https://streamlinehq.com
  </desc>
  <g id="heart--reward-social-rating-media-heart-it-like-favorite-love">
    <path id="Union" fill="#000000" fill-rule="evenodd" d="M23.99982857142857 8.40210857142857c-0.04165714285714285 -2.768142857142857 -1.6405714285714283 -5.481668571428571 -4.081542857142857 -6.596331428571428 -1.2385714285714287 -0.5656217142857143 -2.6734285714285715 -0.7062942857142857 -4.171114285714285 -0.24033085714285715C14.487634285714284 1.9573028571428572 13.222131428571428 2.7652971428571425 12 4.042508571428571 10.777868571428572 2.7652971428571425 9.512348571428571 1.9573199999999997 8.252811428571428 1.5654891428571427 6.755074285714285 1.099554857142857 5.320234285714286 1.2402754285714284 4.081645714285714 1.8059314285714285 1.6407531428571427 2.92068 0.04184897142857143 5.634274285714286 0.0000974790857142857 8.402417142857143L0 8.402417142857143v0.012925714285714285c0 4.032102857142856 2.4462685714285715 7.60176 5.033657142857143 10.105114285714286 1.306542857142857 1.2641142857142857 2.6852571428571426 2.292685714285714 3.887057142857143 3.0102857142857142 0.6005999999999999 0.3586285714285714 1.1683885714285716 0.6464571428571428 1.6705199999999998 0.8472 0.4809771428571428 0.1925142857142857 0.9769885714285714 0.33617142857142857 1.4087485714285715 0.33617142857142857s0.9277714285714286 -0.14382857142857142 1.4087485714285715 -0.33617142857142857c0.5021485714285714 -0.2007428571428571 1.0699371428571427 -0.4885714285714285 1.6705371428571427 -0.8472 1.2017999999999998 -0.7177714285714285 2.5804457142857142 -1.7461714285714285 3.8870742857142853 -3.0104571428571427C21.553714285714285 16.01688 24 12.447137142857143 24 8.415034285714285h0.00017142857142857143l-0.00034285714285714285 -0.012925714285714285Z" clip-rule="evenodd" stroke-width="1.7143"></path>
  </g>
</svg>