<svg xmlns="http://www.w3.org/2000/svg" fill="none" viewBox="0 0 48 48" id="Check--Streamline-Flex" height="48" width="48">
  <desc>
    Check Streamline Icon: https://streamlinehq.com
  </desc>
  <g id="check--check-form-validation-checkmark-success-add-addition-tick">
    <path id="Vector (Stroke)" fill="#000000" fill-rule="evenodd" d="M46.314857142857136 1.9045645714285715c1.1845714285714284 1.305750857142857 1.0861714285714286 3.324486857142857 -0.21942857142857142 4.508989714285714 -6.317142857142857 5.7303428571428565 -10.74102857142857 10.58952 -14.421737142857141 16.334331428571428 -3.693222857142857 5.764525714285714 -6.724868571428571 12.556457142857143 -10.100159999999999 22.252114285714285 -0.3641142857142857 1.0460571428571428 -1.2444 1.8284571428571428 -2.32584 2.067428571428571 -1.0814057142857143 0.2393142857142857 -2.20944 -0.09942857142857142 -2.9804571428571425 -0.8945142857142857L1.7576399999999999 31.209839999999996C0.5303657142857142 29.94421714285714 0.561456 27.923314285714284 1.8270822857142857 26.696022857142857c1.2656262857142857 -1.2272571428571428 3.2865291428571424 -1.1961600000000001 4.513786285714286 0.06946285714285715l10.950582857142857 11.292685714285714c2.8269257142857143 -7.535897142857143 5.623714285714286 -13.47408 9.006651428571427 -18.75432C30.387017142857143 12.921702857142856 35.24502857142857 7.636697142857143 41.80594285714286 1.6850057142857142c1.3056 -1.1844925714285712 3.324342857142857 -1.0861919999999998 4.508914285714285 0.2195588571428571Z" clip-rule="evenodd" stroke-width="3.4286"></path>
  </g>
</svg>