<svg xmlns="http://www.w3.org/2000/svg" fill="none" viewBox="0 0 14 14" id="Select-App-Object-Mark--Streamline-Flex">
  <desc>
    Select App Object Mark Streamline Icon: https://streamlinehq.com
  </desc>
  <g id="select-app-object-mark">
    <path id="Subtract" stroke="#000000" stroke-linecap="round" d="M4.9928 11.4722c-0.53582 -0.0292 -1.06524 -0.078 -1.5872 -0.1337C1.96491 11.1848 0.800587 10.0201 0.653473 8.57868 0.56759 7.73722 0.5 6.87634 0.5 6.00049c0 -0.87586 0.067589 -1.73673 0.153472 -2.57819C0.800586 1.98092 1.96491 0.816144 3.4056 0.662464 4.25244 0.572132 5.1189 0.5 6.00049 0.5c0.88159 0 1.74805 0.072132 2.59488 0.162464C10.0361 0.816144 11.2004 1.98092 11.3475 3.4223c0.0539 0.52823 0.1006 1.06411 0.1279 1.60655" stroke-width="1"></path>
    <path id="Vector" stroke="#000000" stroke-linecap="round" stroke-linejoin="round" d="m9 10.5643 0.91468 0.9433c0.43042 -1.2364 0.78892 -1.77898 1.60072 -2.51541" stroke-width="1"></path>
    <path id="Vector_2" stroke="#000000" stroke-linecap="round" stroke-linejoin="round" d="M10.25 13.5c2.08 0 3.25 -1.17 3.25 -3.25S12.33 7 10.25 7 7 8.17 7 10.25s1.17 3.25 3.25 3.25Z" stroke-width="1"></path>
  </g>
</svg>