<svg xmlns="http://www.w3.org/2000/svg" fill="none" viewBox="0 0 14 14" id="Circle-Flask--Streamline-Flex">
  <desc>
    Circle Flask Streamline Icon: https://streamlinehq.com
  </desc>
  <g id="circle-flask--science-experiment-lab-flask-chemistry-solution">
    <path id="Union" fill="#000000" fill-rule="evenodd" d="M5.61914 3.98405c0 0.5287 -0.27833 1.01836 -0.7326 1.28884 -1.06273 0.63277 -1.92803 1.59842 -2.25125 2.73693 2.93241 -0.37098 5.79452 -0.37109 8.72691 -0.00032 -0.3233 -1.13828 -1.1884 -2.10375 -2.25093 -2.73647 -0.45424 -0.27049 -0.73255 -0.76012 -0.73255 -1.2888V1.5435c-0.92197 -0.058 -1.83761 -0.058 -2.75958 0v2.44055Zm7.37966 4.99811c0 -2.25692 -1.4823 -4.02265 -3.12008 -4.99793V1.68602c0.07088 0.00907 0.14188 0.01847 0.21288 0.02821 0.4104 0.05623 0.7886 -0.23086 0.8449 -0.64124 0.0562 -0.410374 -0.2309 -0.788639 -0.6413 -0.844875C9.19624 0.0775151 8.11334 0.00148396 7.03058 0.0000215315L6.99883 0c-1.0934 -0.000004655 -2.1868 0.0760336 -3.29661 0.228115 -0.41038 0.056236 -0.69747 0.434501 -0.64123 0.844875 0.05624 0.41038 0.4345 0.69747 0.84488 0.64124 0.07117 -0.00976 0.14226 -0.01918 0.21327 -0.02826v2.29808C2.48123 4.95929 0.998779 6.7251 0.998779 8.98216c0 1.86624 0.762721 3.15404 1.937331 3.95384C4.08185 13.7162 5.56985 14 6.99878 14c1.42892 0 2.91693 -0.2838 4.06272 -1.064 0.1468 -0.0999 0.2872 -0.2075 0.4204 -0.323 0.9329 -0.8078 1.5169 -1.9979 1.5169 -3.63084Z" clip-rule="evenodd" stroke-width="1"></path>
  </g>
</svg>