<svg xmlns="http://www.w3.org/2000/svg" fill="none" viewBox="-0.94 -0.94 20 20" id="Dollar-Coin--Streamline-Flex" height="20" width="20">
  <desc>
    Dollar Coin Streamline Icon: https://streamlinehq.com
  </desc>
  <g id="dollar-coin--accounting-billing-payment-cash-coin-currency-money-finance">
    <path id="Vector" stroke="#000000" stroke-linecap="round" stroke-linejoin="round" d="M9.06 17.472857142857144c5.384228571428571 0 8.412857142857142 -3.028628571428571 8.412857142857142 -8.412857142857142S14.444228571428571 0.6471428571428571 9.06 0.6471428571428571 0.6471428571428571 3.6757714285714282 0.6471428571428571 9.06s3.028628571428571 8.412857142857142 8.412857142857142 8.412857142857142Z" stroke-width="1.88"></path>
    <path id="Vector_2" stroke="#000000" stroke-linecap="round" stroke-linejoin="round" d="M11.188685828571428 6.738983314285714s-0.7352190000000001 -0.8195805428571428 -1.9392412285714287 -0.7894625142857142M6.931184742857143 11.427378000000001c0.674064 0.6151222285714286 1.5420378857142856 0.8129020285714286 2.318259857142857 0.742635257142857m0 -7.779990257142857v1.5594978m0 7.780262057142857V12.170013257142857m0 -6.220492457142857c-0.05214677142857143 0.0013072285714285715 -0.10517365714285713 0.004206428571428571 -0.1590547714285714 0.008839971428571429 -1.298013257142857 0.11148977142857142 -1.923696857142857 0.9089380285714285 -1.923696857142857 1.7085865714285715 0 2.332276971428571 4.021992857142857 0.7159859142857142 4.021992857142857 3.107657657142857 0 0.7101486857142856 -0.8849808 1.2999935142857142 -1.9392412285714287 1.3954082571428572" stroke-width="1.88"></path>
  </g>
</svg>