<svg width="28" height="28" viewBox="0 0 28 28" fill="none" xmlns="http://www.w3.org/2000/svg">
<g clip-path="url(#clip0_198_128)">
<path fill-rule="evenodd" clip-rule="evenodd" d="M3.67412 3.67412C6.12466 1.22356 9.66096 0 14 0C18.339 0 21.8754 1.22356 24.3258 3.67412C26.7764 6.12466 28 9.66096 28 14C28 18.339 26.7764 21.8754 24.3258 24.3258C21.8754 26.7764 18.339 28 14 28C9.66096 28 6.12466 26.7764 3.67412 24.3258C1.22356 21.8754 0 18.339 0 14C0 9.66096 1.22356 6.12466 3.67412 3.67412ZM14 6.75C14.6904 6.75 15.25 7.30964 15.25 8V12.75H20C20.6904 12.75 21.25 13.3096 21.25 14C21.25 14.6904 20.6904 15.25 20 15.25H15.25V20C15.25 20.6904 14.6904 21.25 14 21.25C13.3096 21.25 12.75 20.6904 12.75 20V15.25H8C7.30964 15.25 6.75 14.6904 6.75 14C6.75 13.3096 7.30964 12.75 8 12.75H12.75V8C12.75 7.30964 13.3096 6.75 14 6.75Z" fill="black"/>
</g>
<defs>
<clipPath id="clip0_198_128">
<rect width="28" height="28" fill="white"/>
</clipPath>
</defs>
</svg>
