<svg xmlns="http://www.w3.org/2000/svg" fill="none" viewBox="0 0 24 24" id="Mail-Send-Envelope--Streamline-Flex" height="24" width="24">
  <desc>
    Mail Send Envelope Streamline Icon: https://streamlinehq.com
  </desc>
  <g id="mail-send-envelope--envelope-email-message-unopened-sealed-close">
    <path id="Subtract" fill="#000000" fill-rule="evenodd" d="M23.596799999999998 6.927634285714285C23.811942857142856 8.55012 24 10.25202857142857 24 12c0 1.7481257142857143 -0.18994285714285714 3.448902857142857 -0.40114285714285713 5.070411428571428l-0.0006857142857142857 0.0051085714285714285c-0.17622857142857143 1.2913371428571427 -0.8605714285714285 2.4654514285714284 -1.9001142857142856 3.3429942857142856 -1.0373142857142856 0.8756571428571429 -2.374628571428571 1.4132571428571428 -3.7884 1.548342857142857l-0.0041142857142857136 0.00034285714285714285c-1.9041085714285713 0.1726285714285714 -3.88176 0.3204 -5.905542857142857 0.3204 -2.023782857142857 0 -4.001434285714285 -0.14777142857142855 -5.903862857142856 -0.3204l-0.004028571428571428 -0.00034285714285714285c-1.4137199999999999 -0.13508571428571428 -2.751068571428571 -0.6726857142857143 -3.788434285714285 -1.548342857142857C1.264128 19.540971428571428 0.5798331428571428 18.366857142857143 0.40365942857142856 17.07552L0.4032342857142857 17.072365714285713C0.18803142857142857 15.44988 0 13.747971428571429 0 12c0 -1.7479885714285714 0.18803999999999998 -3.448422857142857 0.40322057142857143 -5.0722628571428565l0.0004388571428571428 -0.003257142857142857c0.008876571428571428 -0.06507428571428571 0.019044000000000002 -0.12983999999999998 0.03048 -0.19429714285714283C2.8939714285714286 9.04146857142857 5.47032 11.201417142857142 8.278234285714285 13.136897142857142c2.244497142857143 1.5471085714285713 5.198862857142857 1.5470742857142856 7.443325714285714 -0.00003428571428571428C18.529542857142854 11.201314285714284 21.105942857142857 9.041331428571429 23.565771428571427 6.729977142857142c0.011485714285714285 0.06452571428571428 0.021599999999999998 0.12936 0.030514285714285713 0.19450285714285714l0.0005142857142857142 0.003154285714285714Zm-0.9286285714285714 -2.2993028571428566c-2.577257142857143 2.4641142857142855 -5.249485714285714 4.736091428571428 -8.16276 6.744205714285714 -1.5122571428571427 1.0424057142857142 -3.4987542857142855 1.042422857142857 -5.011028571428571 0.00003428571428571428C6.58116 9.364508571428571 3.908982857142857 7.092548571428571 1.3317462857142857 4.628485714285714c0.27389142857142856 -0.3814285714285714 0.6002022857142857 -0.7331485714285714 0.9719279999999999 -1.0469657142857143 1.0373657142857142 -0.8757085714285714 2.3747142857142856 -1.4133085714285714 3.788434285714285 -1.548377142857143l0.004028571428571428 -0.00037714285714285714C7.998531428571427 1.8601028571428568 9.974417142857142 1.7124017142857142 12 1.7124017142857142c2.0255485714285713 0 4.0032 0.14770114285714284 5.904 0.32038114285714286l0.003942857142857143 0.00035999999999999997c1.4136 0.13506857142857143 2.7510857142857144 0.6726685714285714 3.7884 1.548377142857143 0.3716571428571428 0.31376571428571426 0.6978857142857143 0.6654342857142858 0.9718285714285713 1.0468114285714285Z" clip-rule="evenodd" stroke-width="1.7143"></path>
  </g>
</svg>