<svg width="28" height="28" viewBox="0 0 28 28" fill="none" xmlns="http://www.w3.org/2000/svg">
<g clip-path="url(#clip0_198_116)">
<path fill-rule="evenodd" clip-rule="evenodd" d="M3.6729 3.6729C6.12092 1.22486 9.65594 0 14 0C18.3441 0 21.879 1.22486 24.3272 3.6729C26.7752 6.12092 28 9.65594 28 14C28 18.3441 26.7752 21.879 24.3272 24.3272C21.879 26.7752 18.3441 28 14 28C9.65594 28 6.12092 26.7752 3.6729 24.3272C1.22486 21.879 0 18.3441 0 14C0 9.65594 1.22486 6.12092 3.6729 3.6729ZM19.8399 9.92584C20.3512 9.462 20.3896 8.67148 19.9258 8.16016C19.462 7.64884 18.6715 7.61034 18.1602 8.07418C16.4987 9.58138 15.2506 10.9359 14.1971 12.5803C13.4298 13.7779 12.7839 15.1009 12.1515 16.7043L9.89738 14.3798C9.41678 13.8842 8.62542 13.872 8.12982 14.3526C7.63422 14.8332 7.62204 15.6246 8.10262 16.1202L11.739 19.8702C12.0409 20.1816 12.4826 20.3142 12.9061 20.2206C13.3296 20.127 13.6743 19.8206 13.8169 19.411C14.6574 16.9966 15.4035 15.3315 16.3021 13.929C17.1957 12.5341 18.2739 11.3464 19.8399 9.92584Z" fill="black"/>
</g>
<defs>
<clipPath id="clip0_198_116">
<rect width="28" height="28" fill="white"/>
</clipPath>
</defs>
</svg>
