<svg xmlns="http://www.w3.org/2000/svg" fill="none" viewBox="0 0 24 24" id="Home-1--Streamline-Flex" height="24" width="24">
  <desc>
    Home 1 Streamline Icon: https://streamlinehq.com
  </desc>
  <g id="home-1--home-house-roof-shelter">
    <path id="Union" fill="#000000" fill-rule="evenodd" d="M13.428102857142855 0.8765399999999999c-0.8600057142857142 -0.5972914285714286 -1.9962 -0.5972914285714286 -2.8562057142857142 0C5.638902857142857 4.302582857142857 3.3341999999999996 6.972702857142856 0.5524714285714285 11.56758857142857c-0.08292171428571428 0.13697142857142855 -0.1258217142857143 0.29442857142857143 -0.12383314285714284 0.45454285714285714l0.08812971428571428 7.100211428571429c0.000348 0.028114285714285717 0.002074285714285714 0.05622857142857143 0.005172 0.084 0.22830857142857142 2.0557714285714286 1.8487285714285713 3.698914285714286 3.894094285714286 3.938571428571428 4.853194285714285 0.5686285714285714 10.314737142857142 0.5686285714285714 15.167965714285714 0 2.045314285714286 -0.23965714285714285 3.665828571428571 -1.8828 3.894 -3.938571428571428 0.0030857142857142854 -0.02777142857142857 0.0048 -0.055885714285714275 0.005314285714285714 -0.084l0.08811428571428571 -7.100211428571429c0.0018857142857142857 -0.1601142857142857 -0.04097142857142857 -0.31757142857142856 -0.12394285714285715 -0.45454285714285714C20.665714285714284 6.972702857142856 18.36102857142857 4.302582857142857 13.428102857142855 0.8765399999999999Z" clip-rule="evenodd" stroke-width="1.7143"></path>
  </g>
</svg>
