<svg xmlns="http://www.w3.org/2000/svg" fill="none" viewBox="0 0 24 24" id="Home-3--Streamline-Flex" height="24" width="24">
  <desc>
    Home 3 Streamline Icon: https://streamlinehq.com
  </desc>
  <g id="home-3--home-house-roof-shelter">
    <path id="Subtract" fill="#000000" fill-rule="evenodd" d="M10.571897142857143 0.8765399999999999c0.8600057142857142 -0.5972914285714286 1.9962 -0.5972914285714286 2.8562057142857142 0C18.36102857142857 4.302582857142857 20.665714285714284 6.972702857142856 23.447485714285712 11.56758857142857c0.08297142857142857 0.13697142857142855 0.12582857142857143 0.29442857142857143 0.12394285714285715 0.45454285714285714l-0.08811428571428571 7.100211428571429c-0.0005142857142857142 0.028114285714285717 -0.0022285714285714283 0.05622857142857143 -0.005314285714285714 0.084 -0.22817142857142855 2.0557714285714286 -1.8486857142857143 3.698914285714286 -3.894 3.938571428571428 -1.5275999999999998 0.17897142857142856 -3.1153199999999996 0.30171428571428566 -4.725445714285714 0.36788571428571426V16.725394285714284c0 -1.5788571428571427 -1.279902857142857 -2.8587599999999997 -2.858742857142857 -2.8587599999999997 -1.5788571428571427 0 -2.8587599999999997 1.279902857142857 -2.8587599999999997 2.8587599999999997v6.787405714285714c-1.6099885714285713 -0.06634285714285713 -3.197622857142857 -0.1889142857142857 -4.725017142857143 -0.36788571428571426 -2.045365714285714 -0.23965714285714285 -3.6657857142857138 -1.8828 -3.894094285714286 -3.938571428571428 -0.0030977142857142857 -0.02777142857142857 -0.004824 -0.055885714285714275 -0.005172 -0.084L0.4286382857142857 12.022131428571427c-0.0019885714285714285 -0.1601142857142857 0.04091142857142857 -0.31757142857142856 0.12383314285714284 -0.45454285714285714C3.3341999999999996 6.972702857142856 5.638902857142857 4.302582857142857 10.571897142857143 0.8765399999999999Z" clip-rule="evenodd" stroke-width="1.7143"></path>
  </g>
</svg>