<svg width="20" height="20" viewBox="0 0 20 20" fill="none" xmlns="http://www.w3.org/2000/svg">
<path fill-rule="evenodd" clip-rule="evenodd" d="M3.82 17.9143C3.15179 17.8429 2.52717 17.5483 2.04709 17.0781C1.56701 16.6078 1.25951 15.9895 1.17429 15.3229C0.960002 13.6014 0.745716 11.8229 0.745716 10C0.745716 8.65858 0.862859 7.34001 1.00857 6.05287C1.01575 5.98985 1.03966 5.92989 1.07781 5.87921C1.11595 5.82853 1.16696 5.78898 1.22554 5.76464C1.28411 5.74031 1.34813 5.73208 1.41096 5.74081C1.47379 5.74954 1.53314 5.77491 1.58286 5.8143L7.67857 10.6214C8.34003 11.1428 9.15776 11.4264 10 11.4264C10.8422 11.4264 11.66 11.1428 12.3214 10.6214L18.4186 5.8143C18.4683 5.77529 18.5275 5.75023 18.5901 5.74171C18.6528 5.73318 18.7165 5.7415 18.7749 5.7658C18.8332 5.7901 18.884 5.8295 18.9221 5.87995C18.9602 5.93041 18.9841 5.99009 18.9914 6.05287C19.1371 7.34001 19.2543 8.65858 19.2543 10C19.2543 11.8229 19.04 13.6029 18.8257 15.3229C18.7405 15.9895 18.433 16.6078 17.9529 17.0781C17.4728 17.5483 16.8482 17.8429 16.18 17.9143L15.9886 17.9343C14.0543 18.1357 12.0514 18.3457 10 18.3457C7.94857 18.3457 5.94572 18.1357 4.01143 17.9343L3.82 17.9143ZM18.2571 3.27001C18.307 3.34002 18.3275 3.4268 18.3142 3.51173C18.3008 3.59666 18.2547 3.67297 18.1857 3.7243L11.2157 9.21858C10.8695 9.49204 10.4412 9.64078 10 9.64078C9.55881 9.64078 9.13051 9.49204 8.78429 9.21858L1.81429 3.7243C1.74532 3.67297 1.69921 3.59666 1.68585 3.51173C1.6725 3.4268 1.69296 3.34002 1.74286 3.27001C1.98866 2.93987 2.30006 2.66412 2.65751 2.46008C3.01497 2.25603 3.41075 2.12809 3.82 2.0843L4.01143 2.06573C5.94572 1.86287 7.94857 1.6543 10 1.6543C12.0514 1.6543 14.0543 1.86287 15.9886 2.06573L16.18 2.08573C16.5891 2.12935 16.9849 2.25706 17.3423 2.46086C17.6997 2.66466 18.0112 2.94014 18.2571 3.27001Z" fill="#333333"/>
</svg>
