<svg xmlns="http://www.w3.org/2000/svg" fill="none" viewBox="-1.32 -1.32 28 28" id="Archive-Box--Streamline-Flex" height="28" width="28">
  <desc>
    Archive Box Streamline Icon: https://streamlinehq.com
  </desc>
  <g id="archive-box--box-content-banker-archive-file">
    <path id="Subtract" stroke="#000000" stroke-linecap="round" stroke-linejoin="round" d="M3.102614857142857 8.847741714285714c0.5853993714285715 0.016755714285714284 1.1761424571428571 0.03476131428571428 1.7718850857142856 0.05291182857142857 2.5210013714285715 0.0768408 5.131614114285714 0.15638062857142856 7.8056993142857145 0.15638062857142856 2.6740852 0 5.284679828571428 -0.07953982857142856 7.805608742857143 -0.15638062857142856 0.5885331428571429 -0.01793314285714286 1.1721754285714285 -0.03570325714285714 1.7505645714285714 -0.052295942857142855 0.10814228571428572 1.2001801142857143 0.1842222857142857 2.421227885714286 0.1842222857142857 3.659158171428571 0 2.0455013714285712 -0.207952 4.2473471428571425 -0.4240554285714286 6.322284228571428 -0.18875085714285714 1.8121531428571427 -1.6359011428571428 3.2603902857142857 -3.4456994285714284 3.469066857142857 -3.9755604 0.4584725714285714 -7.787150285714285 0.4584725714285714 -11.762692571428571 0 -1.809888857142857 -0.2086765714285714 -3.257002914285714 -1.6569137142857142 -3.445735657142857 -3.469066857142857 -0.21610342857142859 -2.0749370857142857 -0.4240554285714286 -4.276782857142857 -0.4240554285714286 -6.322284228571428 0 -1.2381476571428571 0.0761886857142857 -2.4593946857142854 0.1842585142857143 -3.6597740571428568Z" stroke-width="2.64"></path>
    <path id="Vector" stroke="#000000" stroke-linecap="round" stroke-linejoin="round" d="M9.945159485714287 14.806091828571429h5.440879314285714" stroke-width="2.64"></path>
    <path id="Intersect" stroke="#000000" stroke-linecap="round" stroke-linejoin="round" d="M1.1620278057142857 7.605627028571428c0.1961795257142857 0.7305853714285714 0.8776226514285713 1.2124253714285715 1.6338035085714286 1.2335466285714285C5.950633428571429 8.927281542857143 9.263500800000001 9.057142857142857 12.68 9.057142857142857c3.4164992 0 6.729457142857142 -0.1298613142857143 9.884241142857142 -0.2179692 0.7560902857142857 -0.021121257142857144 1.437549714285714 -0.5029612571428571 1.6337274285714285 -1.2335466285714285 0.3418165714285714 -1.2727097142857142 0.3418165714285714 -2.1642586285714285 0 -3.436968342857143 -0.19617771428571426 -0.7305853714285714 -0.8776371428571428 -1.2124253714285715 -1.6337274285714285 -1.2335466285714285C19.409457142857143 2.8470041714285714 16.0964992 2.717142857142857 12.68 2.717142857142857c-3.4164992 0 -6.729366571428571 0.1298613142857143 -9.884168685714284 0.2179692 -0.7561808571428571 0.021121257142857144 -1.4376257942857142 0.5029612571428571 -1.6338035085714286 1.2335466285714285 -0.34175136 1.2727097142857142 -0.34175136 2.1642586285714285 0 3.436968342857143Z" stroke-width="2.64"></path>
  </g>
</svg>