<svg xmlns="http://www.w3.org/2000/svg" fill="none" viewBox="0 0 48 48" id="Coffee-Takeaway-Cup--Streamline-Flex" height="48" width="48">
  <desc>
    Coffee Takeaway Cup Streamline Icon: https://streamlinehq.com
  </desc>
  <g id="coffee-takeaway-cup--cup-coffee-hot-takeaway-drink-caffeine">
    <path id="Union" fill="#000000" fill-rule="evenodd" d="M24.000445714285714 0c-3.1863771428571424 0 -7.47384 0.39764228571428567 -10.004742857142856 0.6649062857142857 -2.0300914285714287 0.2143817142857143 -3.70584 1.6226639999999999 -4.31112 3.541505142857143 -0.3119314285714286 0.9889028571428572 -0.6980571428571428 2.2092685714285714 -1.0826399999999998 3.415542857142857 10.295142857142856 -0.35375999999999996 20.501862857142857 -0.35372571428571425 30.797142857142855 0.00003428571428571428 -0.38468571428571424 -1.2062742857142856 -0.7707428571428571 -2.4266742857142853 -1.0827428571428572 -3.415577142857143C37.710857142857144 2.287563428571428 36.035314285714286 0.879288 34.00515428571428 0.6649097142857142 31.474285714285713 0.39764228571428567 27.18678857142857 0 24.000445714285714 0ZM8.413851428571428 34.09645714285714c-0.23163428571428568 -1.3857257142857142 -0.4205142857142857 -2.9992457142857143 -0.5715085714285714 -4.573302857142857 10.805794285714285 0.38938285714285714 21.509485714285713 0.38938285714285714 32.31514285714285 0 -0.15085714285714283 1.5740571428571428 -0.33977142857142856 3.1875771428571427 -0.571542857142857 4.573302857142857 -0.5180571428571429 3.0997714285714286 -1.608342857142857 7.197942857142857 -2.2878857142857143 9.624342857142857 -0.5502857142857143 1.9652571428571428 -2.2278857142857142 3.4014857142857142 -4.261405714285714 3.632914285714286 -2.340137142857143 0.2664 -6.165702857142857 0.6459428571428572 -9.036651428571428 0.6459428571428572 -2.870982857142857 0 -6.696548571428571 -0.3795428571428571 -9.036651428571428 -0.6459428571428572 -2.0335885714285715 -0.23142857142857143 -3.7110514285714284 -1.6676571428571427 -4.261542857142857 -3.632914285714286 -0.6795428571428571 -2.4263999999999997 -1.7697942857142857 -6.524571428571428 -2.2879542857142856 -9.624342857142857Zm-0.4549028571428571 -22.16472c10.724365714285714 -0.38581714285714286 21.346251428571428 -0.38581714285714286 32.07065142857142 0 1.9518857142857142 0.07021714285714285 3.7398857142857143 1.3918285714285712 4.139314285714286 3.394765714285714 0.2564571428571429 1.2858171428571428 0.3953142857142857 2.263062857142857 0.3953142857142857 3.259405714285714 0 0.9963771428571427 -0.13885714285714285 1.9736228571428571 -0.3953142857142857 3.2594399999999997 -0.3994285714285714 2.0029371428571427 -2.1874285714285713 3.324548571428571 -4.139314285714286 3.394765714285714 -10.7244 0.38581714285714286 -21.346285714285713 0.38581714285714286 -32.07065142857142 0 -1.9519199999999999 -0.07021714285714285 -3.73992 -1.3918285714285712 -4.139451428571428 -3.394765714285714 -0.25652571428571425 -1.2858171428571428 -0.39511199999999996 -2.263062857142857 -0.39511199999999996 -3.2594399999999997 0 -0.9963428571428572 0.1385862857142857 -1.9735885714285712 0.39511199999999996 -3.2594399999999997 0.39953142857142854 -2.0029028571428573 2.1875314285714285 -3.3245142857142858 4.139451428571428 -3.3947314285714283Z" clip-rule="evenodd" stroke-width="3.4286"></path>
  </g>
</svg>