<svg xmlns="http://www.w3.org/2000/svg" fill="none" viewBox="0 0 14 14">
  <g id="chart-column--chart-column-bar-graph">
    <path id="Union" fill="#000000" fill-rule="evenodd" d="M1.75 1c0 -0.414214 -0.33579 -0.75 -0.75 -0.75C0.585786 0.25 0.25 0.585786 0.25 1v9.8893c0 1.4484 1.12602 2.6564 2.58428 2.7298 1.24597 0.0627 2.8912 0.1309 4.16572 0.1309 1.19167 0 2.70676 -0.0596 3.9159 -0.1185 0.6063 -0.0296 1.1388 -0.0591 1.5199 -0.0813 0.1906 -0.0111 0.3434 -0.0203 0.4486 -0.0268l0.1212 -0.0075 0.0315 -0.002 0.0082 -0.0006 0.0021 -0.0001 0.0006 0 0.0001 0L13 12.7647l0.0482 0.7485c0.4133 -0.0267 0.7269 -0.3833 0.7003 -0.7967 -0.0267 -0.4133 -0.3833 -0.7269 -0.7967 -0.7002l-0.0001 0 -0.0004 0 -0.0019 0.0001 -0.0076 0.0005 -0.0306 0.0019 -0.1189 0.0074c-0.0539 0.0033 -0.1205 0.0074 -0.1985 0.0121V9.82422c0 -0.55229 -0.4478 -1 -1 -1h-0.6063c-0.5522 0 -0.99995 0.44771 -0.99995 1v2.34818c-0.3276 0.014 -0.66419 0.0271 -0.99999 0.0384V3.28125c0 -0.55228 -0.44771 -1 -1 -1h-0.60621c-0.55229 0 -1 0.44772 -1 1v8.96395c-0.32173 -0.0047 -0.65847 -0.0126 -0.99974 -0.0227l0 -5.08969c0 -0.55228 -0.44772 -1 -1 -1h-0.60622c-0.55228 0 -1 0.44772 -1 1v4.97399C2.19204 12.0123 1.75 11.504 1.75 10.8893V1Z" clip-rule="evenodd" stroke-width="1"></path>
  </g>
</svg>