<svg width="20" height="20" viewBox="0 0 20 20" fill="none" xmlns="http://www.w3.org/2000/svg">
<g clip-path="url(#clip0_5_639)">
<path fill-rule="evenodd" clip-rule="evenodd" d="M9.99953 0.000427246C4.47694 0.000427246 0 4.47736 0 9.99995C0 15.5225 4.47694 19.9995 9.99953 19.9995C14.854 19.9995 18.8956 16.5427 19.807 11.9579C19.9643 11.1664 19.9973 10.3737 20.002 9.59935C20.0074 8.71774 19.355 7.95369 18.4659 7.85738C16.3966 7.63326 14.369 7.65796 12.2913 7.93131C11.7593 8.00129 11.3743 8.45789 11.3743 8.98464V11.3949C11.3743 11.9867 11.854 12.4664 12.4457 12.4664H14.4271C13.5605 14.0181 11.9008 15.0667 9.99953 15.0667C7.20127 15.0667 4.93283 12.7982 4.93283 9.99995C4.93283 7.20169 7.20127 4.93325 9.99953 4.93325C11.0539 4.93325 12.0317 5.25396 12.8428 5.80512C13.2325 6.06994 13.7784 6.10254 14.1847 5.78501L16.4579 4.00864C16.955 3.62021 17.0273 2.85504 16.5169 2.41618C14.7681 0.9125 12.4898 0.000427246 9.99953 0.000427246Z" fill="#333333"/>
</g>
<defs>
<clipPath id="clip0_5_639">
<rect width="20" height="20" fill="white"/>
</clipPath>
</defs>
</svg>
