<svg xmlns="http://www.w3.org/2000/svg" fill="none" viewBox="0 0 28 28" id="Ai-Spark-Starlight--Streamline-Flex" height="28" width="28">
  <desc>
    Ai Spark Starlight Streamline Icon: https://streamlinehq.com
  </desc>
  <g id="ai-spark-starlight--ai-spark-starlight-generating-creation-automate">
    <path id="Union" fill="#000000" fill-rule="evenodd" d="M0.937874 0.93934c0.585788 -0.585786 1.535526 -0.585786 2.121326 0l3.47468 3.47468c0.58578 0.5858 0.58578 1.53554 0 2.12132 -0.58578 0.5858 -1.53554 0.5858 -2.12132 0L0.937874 3.06066c-0.585786 -0.58578 -0.585786 -1.535534 0 -2.12132m0 26.12406c0.585788 0.5858 1.535526 0.5858 2.121326 0l3.47468 -3.4748c0.58578 -0.5858 0.58578 -1.5354 0 -2.1212s-1.53554 -0.5858 -2.12132 0L0.937874 24.942c-0.585786 0.5858 -0.585786 1.5356 0 2.1214M24.9406 0.93934c0.5858 -0.585786 1.5354 -0.585786 2.1212 0s0.5858 1.53554 0 2.12132l-3.4746 3.47468c-0.5858 0.5858 -1.5356 0.5858 -2.1214 0 -0.5858 -0.58578 -0.5858 -1.53552 0 -2.12132zm2.1212 26.12406c-0.5858 0.5858 -1.5354 0.5858 -2.1212 0l-3.4748 -3.4748c-0.5858 -0.5858 -0.5858 -1.5354 0 -2.1212s1.5356 -0.5858 2.1214 0l3.4746 3.4746c0.5858 0.5858 0.5858 1.5356 0 2.1214M12.93598 4.01502c0.1884 -0.21402 0.54204 -0.51502 1.0641 -0.51502 0.52204 0 0.8757 0.301 1.06408 0.51502 0.19122 0.21722 0.33488 0.47992 0.4452 0.71044 0.17688 0.36954 0.35622 0.85212 0.53568 1.335l0.00002 0.00004c0.04346 0.11696 0.08694 0.23396 0.13038 0.34934 0.4802 1.2754 1.04874 2.60932 1.93912 3.4997 0.88186 0.88186 2.19524 1.40736 3.47164 1.86496l0.2488 0.08874c0.516 0.1835 1.0462 0.37206 1.4516 0.57178 0.2378 0.1172 0.5096 0.2737 0.7326 0.48986 0.2344 0.22738 0.4786 0.58664 0.4786 1.07288s-0.2442 0.8455 -0.4786 1.07286c-0.223 0.21618 -0.4948 0.37266 -0.7326 0.48988 -0.4054 0.1997 -0.9356 0.38826 -1.4516 0.57176l-0.2488 0.08874c-1.2764 0.4576 -2.58978 0.98312 -3.47164 1.86498 -0.89038 0.89038 -1.45892 2.22422 -1.93912 3.49962 -0.04344 0.1154 -0.08692 0.2324 -0.1304 0.3494 -0.17946 0.483 -0.3588 0.9656 -0.53568 1.335 -0.11032 0.2306 -0.25398 0.4932 -0.4452 0.7104 -0.18838 0.2142 -0.54204 0.5152 -1.06408 0.5152 -0.52206 0 -0.8757 -0.301 -1.0641 -0.5152 -0.19122 -0.2172 -0.33486 -0.4798 -0.4452 -0.7104 -0.17686 -0.3694 -0.35622 -0.852 -0.53568 -1.335 -0.04346 -0.117 -0.08694 -0.234 -0.1304 -0.3494 -0.4802 -1.2754 -1.04874 -2.60924 -1.93912 -3.49962 -0.88186 -0.88186 -2.19532 -1.40738 -3.47162 -1.86498l-0.24884 -0.08874c-0.51594 -0.1835 -1.04612 -0.37206 -1.45152 -0.57176 -0.23794 -0.11722 -0.5096 -0.2737 -0.7326 -0.48988 -0.23454 -0.22736 -0.47856 -0.58662 -0.47856 -1.07286s0.24402 -0.8455 0.47856 -1.07288c0.223 -0.21616 0.49466 -0.37266 0.7326 -0.48986 0.4054 -0.19972 0.93558 -0.38828 1.45152 -0.57178l0.24884 -0.08874c1.2763 -0.4576 2.58976 -0.9831 3.47162 -1.86496 0.89038 -0.89038 1.45892 -2.2243 1.93912 -3.4997 0.04338 -0.11522 0.08678 -0.232 0.13018 -0.3488l0.00004 -0.00008 0.0002 -0.00052c0.17946 -0.48288 0.3588 -0.96546 0.53566 -1.33498 0.11034 -0.23052 0.25398 -0.49322 0.4452 -0.71044" clip-rule="evenodd" stroke-width="2"></path>
  </g>
</svg>