<svg xmlns="http://www.w3.org/2000/svg" fill="none" viewBox="-0.94 -0.94 20 20" id="Share-Heart--Streamline-Flex" height="20" width="20">
  <desc>
    Share Heart Streamline Icon: https://streamlinehq.com
  </desc>
  <g id="share-heart--reward-social-rating-media-heart-hand">
    <path id="Vector" stroke="#000000" stroke-linecap="round" stroke-linejoin="round" d="M13.071120857142857 1.9319285142857143C10.944441171428572 -0.6775197428571428 8.698984885714285 1.1766027857142856 8.669436342857143 3.1753099714285713c0 2.975511085714286 3.5601658285714284 5.417802342857144 4.401684514285715 5.417802342857144 0.8415445714285714 0 4.401736285714286 -2.442291257142857 4.401736285714286 -5.417802342857144 -0.029509714285714285 -1.9987071857142855 -2.274966 -3.852829714285714 -4.401736285714286 -1.2433814571428572Z" stroke-width="1.88"></path>
    <path id="Vector 111" stroke="#000000" stroke-linecap="round" stroke-linejoin="round" d="m0.8695192628571429 8.614843371428572 0.9227558228571427 -0.05709094285714286c1.0649253428571428 -0.0658920857142857 2.1336429428571426 0.033211371428571425 3.1682949428571425 0.29380285714285714l1.532149542857143 0.3858783428571429c0.8322127714285713 0.20959662857142858 1.3843809428571427 0.9983343428571428 1.2965636571428572 1.8520322571428571 -0.10280511428571429 0.9993438857142858 -1.0333836 1.7005490571428572 -2.0223473142857142 1.5238402285714285L4.321490571428572 12.355044342857143l5.096392371428571 0.9139728 5.278731342857143 -1.252920342857143c0.8539697142857143 -0.20265925714285712 1.7137637142857143 0.3118452 1.93884 1.1601200571428572 0.20902714285714286 0.7878317142857143 -0.20022600000000002 1.6082794285714284 -0.9554417142857142 1.9151545714285714l-4.222464771428571 1.7155757142857142c-2.053979657142857 0.8345554285714286 -4.342703914285714 0.8868445714285714 -6.432625885714286 0.14690142857142857L0.6471428571428571 15.403941428571429" stroke-width="1.88"></path>
  </g>
</svg>