<svg xmlns="http://www.w3.org/2000/svg" fill="none" viewBox="0 0 24 24" id="Pencil--Streamline-Flex" height="24" width="24">
  <desc>
    Pencil Streamline Icon: https://streamlinehq.com
  </desc>
  <g id="pencil--change-edit-modify-pencil-write-writing">
    <path id="Subtract" fill="#000000" fill-rule="evenodd" d="M13.653068571428571 1.5786994285714284C15.813822857142855 -0.665328 19.595657142857142 -0.49387371428571425 22.047257142857145 1.9592571428571428c2.4498857142857142 2.4515999999999996 2.620285714285714 6.230691428571428 0.37817142857142855 8.390605714285714L13.074497142857142 19.35788571428571c-0.2097257142857143 0.20211428571428572 -0.5557028571428572 0.14057142857142857 -0.6913885714285714 -0.11708571428571428C10.663714285714287 15.975822857142855 7.996371428571429 13.313657142857142 4.7838 11.59938857142857c-0.2559942857142857 -0.1365942857142857 -0.3162857142857143 -0.4811314285714286 -0.11502857142857144 -0.6901371428571428L13.653068571428571 1.5786994285714284ZM2.921005714285714 13.122702857142857c-0.16213714285714284 -0.07232571428571428 -0.35168571428571427 -0.03310285714285714 -0.4748228571428571 0.09478285714285714l-0.08170285714285715 0.08485714285714285 -0.011194285714285714 0.01188c-0.0822342857142857 0.08840571428571428 -0.14243999999999998 0.19722857142857142 -0.17465142857142857 0.3193542857142857L0.055260342857142854 21.683999999999997C-0.2864142857142857 22.979314285714285 1.0162628571428571 24.284399999999998 2.3122285714285713 23.944971428571428l8.05044 -2.1080571428571426c0.13602857142857142 -0.03565714285714285 0.2556 -0.10594285714285714 0.34896 -0.20279999999999998l0.07098857142857143 -0.06839999999999999c0.12762857142857142 -0.12291428571428571 0.16690285714285713 -0.312 0.09502285714285713 -0.47400000000000003 -1.579902857142857 -3.560057142857143 -4.4360228571428575 -6.398605714285714 -7.956634285714285 -7.969011428571429Z" clip-rule="evenodd" stroke-width="1.7143"></path>
  </g>
</svg>