<svg preserveAspectRatio="none" width="100%" height="100%" overflow="visible" style="display: block;" viewBox="0 0 64 64" fill="none" xmlns="http://www.w3.org/2000/svg">
<g id="smiley-laughing-2">
<path id="Subtract" fill-rule="evenodd" clip-rule="evenodd" d="M55.605 8.3952C50.0091 2.79969 41.9293 0 32 0C22.0707 0 13.9907 2.79969 8.3952 8.3952C2.79969 13.9907 0 22.0707 0 32C0 41.9293 2.79969 50.0091 8.3952 55.605C13.9907 61.2005 22.0707 64 32 64C41.9293 64 50.0091 61.2005 55.605 55.605C61.2005 50.0091 64 41.9293 64 32C64 22.0707 61.2005 13.9907 55.605 8.3952ZM22.9486 16.1292C22.0733 14.8162 20.2994 14.4614 18.9865 15.3367C17.6735 16.212 17.3187 17.986 18.194 19.2989L19.5573 21.3438C18.2239 21.3897 16.8864 21.5262 15.5287 21.7531C13.9724 22.0133 12.9216 23.486 13.1819 25.0423C13.4421 26.5987 14.9147 27.6494 16.471 27.3892C19.251 26.9244 21.8917 26.9244 24.6716 27.3892C25.7951 27.5771 26.9229 27.0795 27.5416 26.1232C28.1604 25.1667 28.1519 23.9341 27.52 22.9863L22.9486 16.1292ZM15.8303 38.8569C15.8303 36.9633 17.3653 35.4283 19.2588 35.4283H44.7411C46.6345 35.4283 48.1696 36.9633 48.1696 38.8569V39.3531C48.1696 39.4653 48.1531 39.5769 48.1207 39.6843C47.0921 43.0809 45.1578 45.76 42.3844 47.5762C39.6243 49.3838 36.1135 50.2853 32 50.2853C27.8864 50.2853 24.3756 49.3838 21.6155 47.5762C18.8421 45.76 16.9079 43.0809 15.8793 39.6843C15.8468 39.5769 15.8303 39.4653 15.8303 39.3531V38.8569ZM45.0133 15.3367C43.7004 14.4614 41.9264 14.8162 41.0512 16.1292L36.4797 22.9863C35.8479 23.9341 35.8394 25.1667 36.4581 26.1232C37.0769 27.0795 38.2047 27.5771 39.3282 27.3892C42.1081 26.9244 44.7488 26.9244 47.5287 27.3892C49.0853 27.6494 50.5577 26.5987 50.8178 25.0423C51.0779 23.486 50.0274 22.0133 48.4709 21.7531C47.1136 21.5262 45.776 21.3897 44.4425 21.3438L45.8057 19.2989C46.6811 17.986 46.3264 16.212 45.0133 15.3367Z" fill="#727374"/>
</g>
</svg>
