<svg xmlns="http://www.w3.org/2000/svg" fill="none" viewBox="0 0 14 14">
  <g id="tools-design-services--tools-design-services-pen-ruler">
    <path id="Union" fill="#000000" fill-rule="evenodd" d="M1.70587 8.04027c-0.04226 0.04349 -0.07503 0.09269 -0.09833 0.14504 -0.00675 0.01485 -0.01284 0.03017 -0.01822 0.04593L0.0554632 12.7246c-0.2609732 0.7645 0.4461538 1.4832 1.2166168 1.223l4.51495 -1.5245c0.08681 -0.0293 0.16029 -0.0801 0.21649 -0.1445l6.92878 -6.69128c1.3353 -1.28952 1.4504 -3.42095 0.1605 -4.70528 -1.2637 -1.258098 -3.31801 -1.144923 -4.58489 0.15874L1.70587 8.04027ZM4.56157 0.394356c0.45224 0.422694 0.95815 0.898014 1.47948 1.391444L1.84402 6.10355C1.32961 5.56036 0.833301 5.0322 0.393868 4.56206c-0.4582495 -0.49028 -0.550185 -1.26473 -0.099507 -1.83232l0.391575 0.31091 -0.391575 -0.31091C0.955521 1.89706 1.89657 0.95601 2.72925 0.294849c0.56759 -0.450678 1.34204 -0.358742 1.83232 0.099507ZM9.43836 13.6065c-0.46531 -0.4349 -0.98744 -0.9255 -1.52473 -1.4342L12.244 7.99038c0.4829 0.51037 0.9478 1.0052 1.3621 1.44847 0.4582 0.49028 0.5501 1.26475 0.0995 1.83235 -0.6612 0.8326 -1.6022 1.7737 -2.4349 2.4349 -0.5676 0.4506 -1.34206 0.3587 -1.83234 -0.0996Z" clip-rule="evenodd" stroke-width="1"></path>
  </g>
</svg>