<svg xmlns="http://www.w3.org/2000/svg" fill="none" viewBox="-0.545 -0.545 14 14" id="User-Collaborate-Group--Streamline-Flex" height="14" width="14">
  <desc>
    User Collaborate Group Streamline Icon: https://streamlinehq.com
  </desc>
  <g id="user-collaborate-group">
    <path id="Intersect" stroke="#000000" stroke-linecap="round" stroke-linejoin="round" d="M1.7287965428571428 9.218892678571429c0.0071558285714285715 0.14159503571428572 0.014947935714285713 0.2836050357142857 0.023394764285714287 0.42607610714285715 0.05651813571428571 0.9542334285714286 0.8152296142857143 1.712880357142857 1.7694169357142857 1.7693155 0.4597804285714286 0.027111 0.9151991214285714 0.04758257142857143 1.36839545 0.061414714285714295" stroke-width="1.09"></path>
    <path id="Intersect_2" stroke="#000000" stroke-linecap="round" stroke-linejoin="round" d="M7.891117621428572 1.2494298c0.47956039285714286 0.013795257142857143 0.9614630285714286 0.03505987142857143 1.4482530214285714 0.06381228571428571 0.9541412142857143 0.05636137142857143 1.712880357142857 0.8150636285714286 1.7694077142857143 1.7692325071428572 0.018811714285714286 0.31773354285714284 0.03448814285714286 0.6331986142857143 0.04693707142857143 0.9471605928571429" stroke-width="1.09"></path>
    <path id="Intersect_3" stroke="#000000" stroke-linecap="round" stroke-linejoin="round" d="M3.0841344499999996 3.9525348214285714c1.4539518642857143 0 2.3925273071428568 1.1421845857142858 2.3925273071428568 2.648145307142857H0.6916071428571429c0 -1.5059607214285715 0.9385754428571428 -2.648145307142857 2.3925273071428568 -2.648145307142857Z" stroke-width="1.09"></path>
    <path id="Intersect_4" stroke="#000000" stroke-linecap="round" stroke-linejoin="round" d="M9.825985428571428 9.570275214285713c1.453942642857143 0 2.392499642857143 1.1421661428571428 2.392499642857143 2.648117642857143H7.433430457142857c0 -1.5059515 0.9385754428571428 -2.648117642857143 2.3925549714285714 -2.648117642857143Z" stroke-width="1.09"></path>
    <path id="Vector" stroke="#000000" stroke-linecap="round" stroke-linejoin="round" d="M3.084152892857143 3.9525440428571432c1.0434968571428571 0 1.63046845 -0.5869623714285714 1.63046845 -1.63046845C4.714621342857143 1.2785787357142857 4.12764975 0.6916071428571429 3.084152892857143 0.6916071428571429c-1.0435060785714285 0 -1.63046845 0.586971592857143 -1.63046845 1.63046845 0 1.0435060785714285 0.5869623714285714 1.63046845 1.63046845 1.63046845Z" stroke-width="1.09"></path>
    <path id="Vector_2" stroke="#000000" stroke-linecap="round" stroke-linejoin="round" d="M9.825985428571428 9.570367428571428c1.0434968571428571 0 1.6304407857142857 -0.5869992571428572 1.6304407857142857 -1.6305053357142858 0 -1.0434968571428571 -0.5869439285714285 -1.63046845 -1.6304407857142857 -1.63046845 -1.0435153000000001 0 -1.630486892857143 0.586971592857143 -1.630486892857143 1.63046845 0 1.0435060785714285 0.586971592857143 1.6305053357142858 1.630486892857143 1.6305053357142858Z" stroke-width="1.09"></path>
  </g>
</svg>