<svg xmlns="http://www.w3.org/2000/svg" fill="none" viewBox="0 0 48 48" id="Notification-Alarm-1--Streamline-Flex" height="48" width="48">
  <desc>
    Notification Alarm 1 Streamline Icon: https://streamlinehq.com
  </desc>
  <g id="notification-alarm-1--android-phone-mobile-device-smartphone-iphone-alert-bell-alarm">
    <path id="Union" fill="#000000" fill-rule="evenodd" d="M45.42 3c0 -1.3916571428571427 -1.128342857142857 -2.52 -2.52 -2.52s-2.52 1.128342857142857 -2.52 2.52V12.239999999999998c0 1.3916571428571427 1.128342857142857 2.52 2.52 2.52s2.52 -1.128342857142857 2.52 -2.52V3Zm0.84 16.8c0 -1.8555428571428572 -1.504457142857143 -3.36 -3.36 -3.36s-3.36 1.504457142857143 -3.36 3.36 1.5041142857142855 3.36 3.36 3.36 3.36 -1.504457142857143 3.36 -3.36Zm-31.642628571428574 23.859771428571428c-0.38194285714285714 -1.0032 0.5519999999999999 -1.910057142857143 1.6217142857142854 -1.8202285714285715 1.9717714285714283 0.1662857142857143 3.6836571428571427 0.2112 4.817142857142857 0.2112 1.1345142857142858 0 2.8474285714285714 -0.04491428571428571 4.820914285714285 -0.21154285714285712 1.0700571428571428 -0.08982857142857142 2.003657142857143 0.8170285714285714 1.6217142857142854 1.8202285714285715 -0.30274285714285715 0.7954285714285714 -0.7422857142857142 1.4856 -1.317942857142857 2.0557714285714286 -1.2144 1.203085714285714 -2.9677714285714285 1.8047999999999997 -5.122628571428571 1.8047999999999997s-3.908571428571428 -0.6017142857142856 -5.122971428571428 -1.8047999999999997c-0.5756571428571428 -0.5701714285714286 -1.0148571428571427 -1.26 -1.317942857142857 -2.0554285714285716Zm20.722628571428572 -23.859771428571428c0 -0.8122285714285714 0.12788571428571427 -1.5946285714285713 0.3651428571428571 -2.328 -0.16354285714285713 -4.025828571428571 -1.4262857142857142 -7.394057142857143 -3.8554285714285714 -9.80022857142857 -2.6081142857142856 -2.583428571428571 -6.3312 -3.8303999999999996 -10.791085714285714 -3.8303999999999996 -4.460228571428571 0 -8.182971428571427 1.2469714285714286 -10.791085714285714 3.8303999999999996 -2.6105142857142853 2.585485714285714 -3.8739428571428567 6.281828571428571 -3.8739428571428567 10.7112 0 1.8034285714285714 -0.26777142857142855 2.854285714285714 -0.5736 3.519771428571428 -0.29622857142857145 0.6449142857142857 -0.6826285714285714 1.0536 -1.2010285714285713 1.5229714285714284 -0.0665142857142857 0.06068571428571429 -0.13988571428571428 0.12514285714285714 -0.21805714285714287 0.1944 -0.4861714285714286 0.42925714285714284 -1.166057142857143 1.0296 -1.6769142857142856 1.843885714285714 -0.6408 1.0217142857142856 -0.9839999999999999 2.2772571428571426 -0.9839999999999999 3.971657142857143 0 2.238857142857143 1.2562285714285715 3.881142857142857 2.8498285714285716 5.008114285714286 1.560342857142857 1.1039999999999999 3.588342857142857 1.8329142857142855 5.604685714285714 2.3303999999999996 4.0532571428571424 1.0001142857142857 8.618057142857142 1.1945142857142856 10.864114285714285 1.1945142857142856s6.8108571428571425 -0.1944 10.864114285714285 -1.1945142857142856c2.016342857142857 -0.4974857142857143 4.044342857142857 -1.2264 5.604685714285714 -2.3303999999999996 1.5936 -1.1269714285714285 2.8498285714285716 -2.7692571428571426 2.8498285714285716 -5.008114285714286 0 -1.0296 -0.12651428571428572 -1.8973714285714285 -0.36994285714285713 -2.648571428571428 -2.7401142857142857 -1.1358857142857142 -4.667314285714285 -3.8362285714285713 -4.667314285714285 -6.987085714285714Z" clip-rule="evenodd" stroke-width="3.4286"></path>
  </g>
</svg>