<svg preserveAspectRatio="none" width="100%" height="100%" overflow="visible" style="display: block;" viewBox="-0.94 -0.94 20 20" fill="none" xmlns="http://www.w3.org/2000/svg">
  <g id="chat-bubble-square--messages-message-bubble-chat-square">
    <path id="Union" stroke="#999999" stroke-linecap="round" stroke-linejoin="round" d="M3.544440257142857 13.651608c-1.156496057142857 -0.10755514285714285 -2.128478742857143 -0.9535132285714285 -2.2886233028571428 -2.103900257142857C1.072564217142857 10.231328571428572 0.9707142857142856 8.877997542857143 0.9707142857142856 7.4849190000000005c0 -1.442274342857143 0.10188746571428571 -2.8614327428571427 0.2980843542857143 -4.2201609428571425C1.423973142857143 2.190151457142857 2.3011105714285716 1.3790225999999999 3.3809331428571427 1.26560952 5.205125314285715 1.07400864 7.110986914285714 0.9707142857142856 9.06 0.9707142857142856c1.9429558285714286 0 3.815153057142857 0.10951339714285713 5.641014857142856 0.29830179428571424 1.0982014285714286 0.11355286285714286 1.9900937142857142 0.94153332 2.1460551428571426 2.03453172 0.19233085714285716 1.3482186 0.3022157142857143 2.7515737714285713 0.3022157142857143 4.1813712 0 1.4184853714285715 -0.12010971428571428 2.7975338571428567 -0.3092048571428571 4.1364724285714285 -0.15725571428571428 1.1138752285714286 -1.0633851428571428 1.963949142857143 -2.1825539999999997 2.0777168571428573 -1.808181857142857 0.18365914285714285 -3.672302742857143 0.3000154285714286 -5.5975268571428565 0.3000154285714286 -0.04608951428571429 0 -0.0921402 -0.00012942857142857143 -0.13817794285714285 -0.00025885714285714287 -1.3575504 1.5615557142857142 -2.398376142857143 2.3333382857142855 -4.2175853142857145 3.150420857142857v-3.3902520000000003c-0.2949677142857143 -0.026662285714285715 -0.5882399142857143 -0.054101142857142855 -0.8797130571428572 -0.08128114285714284 -0.09355097142857143 -0.008671714285714286 -0.1869078 -0.01747285714285714 -0.2800834285714286 -0.026144571428571427Z" stroke-width="1.88"></path>
  </g>
</svg>
