<svg preserveAspectRatio="none" width="100%" height="100%" overflow="visible" style="display: block;" viewBox="-0.94 -0.94 20 20" fill="none" xmlns="http://www.w3.org/2000/svg">
  <g id="cog--work-loading-cog-gear-settings-machine">
    <path id="Vector" stroke="#999999" stroke-linecap="round" stroke-linejoin="round" d="M15.568315714285713 10.0382988c-0.00025885714285714287 0.06804059999999999 0.022779428571428572 0.13413977142857142 0.065232 0.1874772857142857l0.9028937142857143 1.1309339142857142c0.16333885714285715 0.2032675714285714 0.26118685714285717 0.45078677142857143 0.28073057142857144 0.7102263428571428 0.019673142857142858 0.25943957142857144 -0.039864000000000004 0.5187238285714286 -0.1707162857142857 0.743994257142857l-0.5293628571428571 0.9109571142857142c-0.13059342857142858 0.2254645714285714 -0.32654828571428574 0.4065351428571428 -0.5622377142857143 0.5195262857142857 -0.23568942857142858 0.11299114285714286 -0.500112 0.15272571428571427 -0.7588397142857143 0.11389714285714285l-1.4382102857142856 -0.21756942857142858c-0.06807942857142857 -0.009448285714285715 -0.13732371428571427 0.003624 -0.1969902857142857 0.03727542857142857l-1.7041601142857143 0.9783505714285714c-0.05921357142857143 0.03455742857142857 -0.10513482857142857 0.087882 -0.13052871428571428 0.15143142857142858l-0.5305794857142857 1.3460571428571428c-0.09500057142857143 0.241902 -0.26114802857142855 0.44976428571428567 -0.47673719999999997 0.5964068571428571 -0.2156021142857143 0.14664257142857143 -0.4706540571428572 0.22520571428571426 -0.7318538571428571 0.22559400000000002h-1.0587386571428572c-0.26121274285714285 -0.0003882857142857142 -0.5162517428571428 -0.07895142857142856 -0.7318538571428571 -0.22559400000000002 -0.2156021142857143 -0.14664257142857143 -0.3817495714285714 -0.3545048571428571 -0.47675014285714284 -0.5964068571428571l-0.5305794857142857 -1.3460571428571428c-0.025393885714285712 -0.06354942857142856 -0.07131514285714285 -0.116874 -0.13052871428571428 -0.15143142857142858l-1.7041342285714285 -0.9783505714285714c-0.05971834285714286 -0.03378085714285715 -0.12898851428571428 -0.04685314285714286 -0.19700322857142857 -0.03727542857142857l-1.4382361714285716 0.21756942857142858c-0.2587018285714286 0.03882857142857143 -0.5231761714285714 -0.000906 -0.7588397142857143 -0.11389714285714285 -0.2356764857142857 -0.11299114285714286 -0.43159251428571427 -0.2940617142857143 -0.5621600571428571 -0.5195262857142857l-0.5293628571428571 -0.9109571142857142c-0.13090405714285713 -0.2252704285714286 -0.19044119999999998 -0.48455468571428567 -0.17081982857142855 -0.743994257142857 0.019621371428571427 -0.25943957142857144 0.11748231428571429 -0.5069587714285714 0.2807952857142857 -0.7102263428571428l0.9076696285714285 -1.1309339142857142c0.04246551428571428 -0.05333751428571428 0.06547791428571428 -0.11943668571428571 0.06525788571428572 -0.1874772857142857V8.0817012c0.00022002857142857144 -0.06804059999999999 -0.02279237142857143 -0.13413977142857142 -0.06525788571428572 -0.1874772857142857l-0.9076696285714285 -1.1309339142857142c-0.1633129714285714 -0.2032675714285714 -0.2611739142857143 -0.45078677142857143 -0.2807952857142857 -0.7102263428571428 -0.019621371428571427 -0.25943957142857144 0.039915771428571424 -0.5187367714285714 0.17081982857142855 -0.743994257142857l0.5293628571428571 -0.9109959428571429c0.13056754285714284 -0.2254645714285714 0.3264835714285714 -0.40652219999999994 0.5621600571428571 -0.5195133428571429 0.23566354285714283 -0.11299114285714286 0.5001378857142856 -0.15267394285714284 0.7588397142857143 -0.11385831428571429l1.4346121714285713 0.21754354285714286c0.06800177142857143 0.009577714285714287 0.1372848857142857 -0.003520457142857143 0.19700322857142857 -0.03726248571428571l1.7077582285714286 -0.9831006c0.05921357142857143 -0.03466097142857143 0.10513482857142857 -0.08794671428571428 0.13052871428571428 -0.15143142857142858l0.5329998 -1.3412553428571428c0.09500057142857143 -0.2419537714285714 0.26114802857142855 -0.44981476285714284 0.47675014285714284 -0.5964599228571429C8.014372457142857 0.7260916971428572 8.2694244 0.6474741942857143 8.5306242 0.6471428571428571h1.0611589714285714c0.26121274285714285 0.00033133714285714285 0.5162517428571428 0.07894883999999999 0.7318538571428571 0.22559270571428572 0.2156021142857143 0.14664516 0.38173662857142854 0.35450615142857145 0.47675014285714284 0.5964599228571429l0.5305794857142857 1.3412553428571428c0.024462 0.06527082857142857 0.0704868 0.12035562857142858 0.13052871428571428 0.15623322857142857l1.7041083428571429 0.9782987999999999c0.059795999999999995 0.03365142857142857 0.12904028571428572 0.046749599999999995 0.1969902857142857 0.03726248571428571l1.4382102857142856 -0.21754354285714286c0.2587277142857143 -0.03881562857142857 0.5232797142857143 0.0008671714285714286 0.7589691428571429 0.11385831428571429 0.23556 0.11299114285714286 0.4315148571428571 0.29404877142857144 0.5621082857142857 0.5195133428571429l0.5293628571428571 0.9109959428571429c0.1308522857142857 0.22525748571428572 0.19038942857142857 0.48455468571428567 0.1708457142857143 0.743994257142857 -0.019673142857142858 0.25943957142857144 -0.11752114285714287 0.5069587714285714 -0.28086 0.7102263428571428l-0.9076825714285714 1.1309339142857142c-0.04245257142857143 0.05333751428571428 -0.06549085714285714 0.11943668571428571 -0.065232 0.1874772857142857v1.9565975999999998Z" stroke-width="1.88"></path>
    <path id="Vector_2" stroke="#999999" stroke-linecap="round" stroke-linejoin="round" d="M9.060012942857142 11.746548857142857c1.719588 0 2.686859485714286 -0.9672585428571429 2.686859485714286 -2.686846542857143s-0.9672714857142857 -2.686859485714286 -2.686859485714286 -2.686859485714286c-1.719588 0 -2.686859485714286 0.9672714857142857 -2.686859485714286 2.686859485714286 0 1.719588 0.9672714857142857 2.686846542857143 2.686859485714286 2.686846542857143Z" stroke-width="1.88"></path>
  </g>
</svg>
