<svg preserveAspectRatio="none" width="100%" height="100%" overflow="visible" style="display: block;" viewBox="0 0 9.99806 9.99811" fill="none" xmlns="http://www.w3.org/2000/svg">
<g id="add-1--expand-cross-buttons-button-more-remove-plus-add-+-mathematics-math">
<path id="Union" fill-rule="evenodd" clip-rule="evenodd" d="M5.71323 0.714284C5.71323 0.319797 5.39344 0 4.99895 0C4.60446 0 4.28466 0.319797 4.28466 0.714284V4.28476H0.714285C0.319797 4.28476 2.14286e-08 4.60456 0 4.99904C-1.42857e-08 5.39353 0.319796 5.71333 0.714285 5.71333H4.28466V9.28383C4.28466 9.67825 4.60446 9.99811 4.99895 9.99811C5.39344 9.99811 5.71323 9.67825 5.71323 9.28383V5.71333H9.28377C9.67827 5.71333 9.99806 5.39353 9.99806 4.99904C9.99806 4.60456 9.67827 4.28476 9.28377 4.28476H5.71323V0.714284Z" fill="white"/>
</g>
</svg>
