<svg xmlns="http://www.w3.org/2000/svg" fill="none" viewBox="0 0 24 24" id="User-Single-Neutral--Streamline-Flex" height="24" width="24">
  <desc>
    User Single Neutral Streamline Icon: https://streamlinehq.com
  </desc>
  <g id="user-single-neutral--close-geometric-human-person-single-up-user">
    <path id="Union" fill="#000000" fill-rule="evenodd" d="M12.000051428571428 0.42857142857142855c-1.8720685714285712 0 -3.45564 0.5291691428571429 -4.570388571428571 1.6439142857142857 -1.1147314285714285 1.1147314285714285 -1.6438971428571427 2.69832 -1.6438971428571427 4.570371428571428 0 1.8720514285714285 0.5291657142857142 3.45564 1.6438971428571427 4.570371428571428 1.1147485714285714 1.1147485714285714 2.69832 1.6439142857142857 4.570388571428571 1.6439142857142857 1.8720514285714285 0 3.45564 -0.5291657142857142 4.570371428571428 -1.6439142857142857 1.1146628571428572 -1.1147314285714285 1.643862857142857 -2.69832 1.643862857142857 -4.570371428571428 0 -1.8720514285714285 -0.5291999999999999 -3.45564 -1.643862857142857 -4.570371428571428C15.455691428571427 0.9577405714285714 13.872102857142856 0.42857142857142855 12.000051428571428 0.42857142857142855Zm-10.039902857142856 17.018057142857142c2.873742857142857 -1.9082057142857143 6.327668571428571 -3.0204342857142854 10.039902857142856 -3.0204342857142854 3.7122171428571424 0 7.166177142857142 1.1122285714285713 10.039834285714285 3.0204342857142854 0.7249714285714285 0.48137142857142856 1.2054857142857143 1.1166857142857143 1.4144571428571426 1.8325714285714283 0.20777142857142855 0.7114285714285714 0.12908571428571428 1.4410285714285713 -0.15548571428571428 2.0816571428571424 -0.5676 1.2769714285714284 -1.9453714285714285 2.2107428571428573 -3.6497142857142855 2.2107428571428573H4.350977142857142c-1.7044285714285712 0 -3.0821811428571424 -0.9337714285714285 -3.6496560000000002 -2.2107428571428573 -0.284676 -0.6406285714285713 -0.36329999999999996 -1.3702285714285714 -0.15557314285714285 -2.0816571428571424 0.20902114285714285 -0.7158857142857142 0.6895011428571428 -1.3512 1.4144005714285715 -1.8325714285714283Z" clip-rule="evenodd" stroke-width="1.7143"></path>
  </g>
</svg>