<svg xmlns="http://www.w3.org/2000/svg" fill="none" viewBox="0 0 48 48" height="48" width="48">
  <g id="mail-solo--mail-solo-no-symbol">
    <path id="Subtract" fill="#000000" d="M44.404114285714286 13.634777142857143c0.1337142857142857 0.4450285714285714 0.24445714285714285 0.8979085714285714 0.30788571428571426 1.36272v0.006685714285714285l0.27462857142857144 2.1830399999999996c0.25474285714285716 2.206765714285714 0.4419428571428571 4.488137142857142 0.4419428571428571 6.81696 0 2.32968 -0.18925714285714285 4.611154285714285 -0.4419428571428571 6.81696l-0.26777142857142855 2.17968 -0.0034285714285714284 0.010045714285714285 -0.16079999999999997 0.8671885714285713c-0.4762285714285714 1.9933714285714286 -1.6292571428571427 3.7895999999999996 -3.2677714285714283 5.173028571428571 -1.6343999999999999 1.3796571428571427 -3.680571428571428 2.2895999999999996 -5.865942857142857 2.6585142857142854l-0.9476571428571428 0.1272h-0.006857142857142857l-2.5512342857142856 0.2177142857142857c-2.576708571428571 0.2026285714285714 -5.222434285714285 0.34800000000000003 -7.915165714285714 0.34800000000000003 -3.5896114285714282 0 -7.095702857142857 -0.2602285714285714 -10.463177142857141 -0.5657142857142857h-0.006685714285714285c-2.538 -0.24239999999999998 -4.945131428571428 -1.2085714285714284 -6.813634285714285 -2.7857142857142856 -1.8728571428571428 -1.5809142857142857 -3.1096114285714287 -3.702171428571429 -3.428557714285714 -6.040217142857142v-0.006685714285714285C2.9069382857142854 30.13158857142857 2.571428571428571 27.109954285714284 2.571428571428571 24.004182857142855c0.00003428571428571428 -3.1058399999999997 0.33554742857142855 -6.125039999999999 0.7165165714285714 -9v-0.006685714285714285c0.06340799999999999 -0.4645028571428571 0.17096914285714285 -0.9179999999999999 0.30468342857142855 -1.36272l0.6897257142857142 0.6562285714285714c4.144594285714285 3.8860799999999998 8.488937142857143 7.52208 13.222114285714285 10.784605714285712l0.75 0.4754399999999999c3.8081828571428566 2.2138285714285715 8.569268571428571 2.055325714285714 12.241062857142857 -0.4754399999999999l2.0055771428571427 -1.4196342857142856c4.222662857142857 -3.073234285714286 8.139462857142858 -6.448525714285713 11.903005714285714 -10.021199999999999M24 5.605748571428571c3.5928 0 7.098651428571428 0.26352 10.463314285714285 0.5692114285714286h0.006514285714285714l0.9476571428571428 0.12387428571428571c2.1853714285714285 0.3689485714285714 4.231542857142856 1.281942857142857 5.865942857142857 2.6618399999999998 0.32159999999999994 0.27161142857142856 0.6178285714285714 0.5654057142857143 0.9006857142857142 0.8671885714285713 -3.890742857142857 3.7411199999999996 -7.896342857142857 7.227462857142857 -12.204205714285713 10.36272l-1.9151657142857144 1.356c-2.2997142857142854 1.5852 -5.276708571428571 1.6852457142857142 -7.660731428571427 0.29801142857142854l-0.46875428571428573 -0.29801142857142854C15.418148571428569 18.432891428571427 11.243074285714286 14.940205714285714 7.215394285714286 11.163771428571428l-1.402902857142857 -1.3359085714285712c0.2832 -0.3024 0.5817599999999999 -0.5950971428571429 0.9040114285714286 -0.8671885714285713 1.6345714285714286 -1.3798971428571427 3.680502857142857 -2.2928914285714286 5.866079999999999 -2.6618399999999998l0.9475542857142857 -0.12387428571428571h0.006685714285714285C16.904262857142857 5.869302857142857 20.407165714285714 5.605748571428571 24 5.605748571428571" stroke-width="3.4286"></path>
  </g>
</svg>