<svg xmlns="http://www.w3.org/2000/svg" fill="none" viewBox="0 0 48 48" id="Ai-Sparkles--Streamline-Flex" height="48" width="48">
  <desc>
    Ai Sparkles Streamline Icon: https://streamlinehq.com
  </desc>
  <g id="ai-sparkles--artificial-intelligence-ai-sparks-sparkles">
    <path id="Union" fill="#000000" fill-rule="evenodd" d="M10.78422857142857 1.620528C11.03934857142857 1.3307074285714284 11.575542857142857 0.8571428571428571 12.395245714285712 0.8571428571428571s1.3558971428571427 0.4735645714285714 1.611017142857143 0.7633885714285713c0.2599542857142857 0.2953302857142857 0.4406057142857143 0.6339634285714285 0.5634514285714286 0.8905714285714285 0.19772571428571428 0.41316342857142857 0.39791999999999994 0.9521999999999999 0.5839542857142856 1.453045714285714l0.00006857142857142857 0.00013714285714285713 0 0.00003428571428571428c0.043508571428571424 0.11712 0.08622857142857142 0.23218285714285714 0.12795428571428571 0.3430285714285714 0.49968 1.3271314285714284 1.0455771428571428 2.574102857142857 1.8502285714285711 3.3787542857142854 0.7900114285714286 0.7900457142857142 2.006468571428571 1.2918171428571428 3.3396342857142858 1.7697942857142857l0.24929142857142855 0.08883428571428571c0.528822857142857 0.18791999999999998 1.1221714285714284 0.3987085714285714 1.5804685714285713 0.6244799999999999 0.27020571428571427 0.13309714285714286 0.6248914285714285 0.33212571428571425 0.930582857142857 0.6284571428571428 0.3254742857142857 0.3155314285714286 0.7016571428571429 0.8522057142857142 0.7016571428571429 1.5979199999999998 0 0.7457485714285714 -0.3761828571428571 1.2823885714285712 -0.7016571428571429 1.5979199999999998 -0.30569142857142856 0.2963314285714286 -0.6603771428571429 0.49535999999999997 -0.930582857142857 0.6284571428571428 -0.45829714285714285 0.22577142857142857 -1.0516114285714284 0.43655999999999995 -1.5804 0.6244457142857142l-0.00006857142857142857 0.00003428571428571428 -0.24929142857142855 0.08883428571428571c-1.3331657142857143 0.4779771428571429 -2.549622857142857 0.9797828571428572 -3.3396342857142858 1.7697942857142857 -0.8046514285714286 0.8046514285714286 -1.3505485714285712 2.051657142857143 -1.8502285714285711 3.3787885714285713 -0.04172571428571428 0.11084571428571427 -0.08444571428571428 0.2258742857142857 -0.12795428571428571 0.3429942857142857 -0.1860342857142857 0.5009142857142858 -0.38626285714285713 1.0400228571428571 -0.5840228571428571 1.4532342857142857 -0.12284571428571428 0.2565942857142857 -0.30349714285714285 0.5952342857142856 -0.5634514285714286 0.8905714285714285 -0.25512 0.28981714285714283 -0.7913142857142856 0.7633714285714285 -1.611017142857143 0.7633714285714285s-1.3558971428571427 -0.47355428571428565 -1.611017142857143 -0.7633714285714285c-0.2599542857142857 -0.2953371428571428 -0.4406057142857143 -0.6339771428571428 -0.5634171428571428 -0.8905714285714285 -0.1977942857142857 -0.41321142857142856 -0.3980228571428571 -0.9523199999999999 -0.5840571428571428 -1.4532342857142857l-0.00010285714285714286 -0.00034285714285714285c-0.043474285714285715 -0.11701714285714285 -0.08616 -0.23194285714285715 -0.12785142857142856 -0.34265142857142855 -0.49968 -1.3271314285714284 -1.0455771428571428 -2.5741371428571425 -1.8502285714285711 -3.3787885714285713 -0.7900114285714286 -0.7900114285714286 -2.006468571428571 -1.2918171428571428 -3.3396 -1.7697942857142857l-0.2493257142857143 -0.08883428571428571 -0.00003428571428571428 -0.00003428571428571428c-0.528822857142857 -0.18788571428571427 -1.1221337142857142 -0.39867428571428565 -1.5804377142857142 -0.6244457142857142 -0.27018514285714285 -0.13309714285714286 -0.6248777142857143 -0.33212571428571425 -0.9305657142857143 -0.6284571428571428 -0.32549485714285714 -0.3155314285714286 -0.7016742857142857 -0.8521714285714285 -0.7016742857142857 -1.5979199999999998 0 -0.7457142857142857 0.37617942857142855 -1.2823885714285712 0.7016742857142857 -1.5979199999999998 0.305688 -0.2963314285714286 0.6603805714285714 -0.49535999999999997 0.9305657142857143 -0.6284571428571428 0.4583142857142857 -0.22577142857142857 1.0516491428571426 -0.43655999999999995 1.5804719999999999 -0.6244799999999999l0.2493257142857143 -0.08883428571428571c1.3331314285714286 -0.4779771428571429 2.5495885714285715 -0.9797485714285714 3.3396 -1.7697942857142857 0.8046514285714286 -0.8046514285714286 1.3505485714285712 -2.051657142857143 1.8502285714285711 -3.3787542857142854 0.04172571428571428 -0.11087999999999999 0.08447999999999999 -0.22590857142857143 0.12795428571428571 -0.3430285714285714 0.1860342857142857 -0.5009142857142858 0.38626285714285713 -1.0400091428571427 0.5840571428571428 -1.4532171428571428 0.12281142857142856 -0.25660799999999995 0.30346285714285715 -0.5952411428571428 0.5634171428571428 -0.8905748571428571M29.536731428571425 16.280982857142856c0.30044571428571426 -0.34128 0.88344 -0.8431885714285714 1.7534057142857142 -0.8431885714285714 0.8699999999999999 0 1.4529942857142857 0.5019085714285714 1.7534057142857142 0.8431885714285714 0.3053142857142857 0.3468342857142857 0.5297828571428571 0.76008 0.6968914285714285 1.1092799999999998 0.2682171428571428 0.5603314285714285 0.5400685714285713 1.29192 0.8072228571428571 2.0113714285714286 0.06445714285714285 0.17283428571428572 0.12822857142857144 0.34498285714285715 0.192 0.5138742857142857 0.7158857142857142 1.9011771428571427 1.548 3.842742857142857 2.834742857142857 5.129554285714285 1.272342857142857 1.2721714285714285 3.1803428571428567 2.040582857142857 5.0845714285714285 2.723314285714286l0.36788571428571426 0.13114285714285714c0.7662857142857142 0.27253714285714287 1.5702857142857143 0.5584457142857142 2.1867428571428573 0.86208 0.3624 0.17842285714285713 0.7909714285714284 0.4236685714285714 1.1478857142857142 0.7696114285714285 0.37679999999999997 0.3651428571428571 0.7810285714285714 0.9547199999999999 0.7810285714285714 1.7591314285714283 0 0.8043771428571429 -0.40422857142857144 1.3939542857142857 -0.7810285714285714 1.759097142857143 -0.3569142857142857 0.34594285714285716 -0.7854857142857142 0.5912228571428572 -1.1478857142857142 0.7696457142857143 -0.6164571428571428 0.3036342857142857 -1.4204571428571429 0.5893714285714285 -2.1867428571428573 0.8619428571428571l-0.36788571428571426 0.13131428571428572c-1.9042285714285714 0.6826285714285714 -3.8122285714285717 1.4509714285714286 -5.0845714285714285 2.723314285714286 -1.2867428571428572 1.2867428571428572 -2.1188571428571428 3.2283428571428567 -2.834742857142857 5.129485714285714 -0.06377142857142856 0.16902857142857142 -0.12754285714285712 0.34114285714285714 -0.192 0.5139428571428571 -0.2671885714285714 0.7193142857142856 -0.53904 1.4509714285714286 -0.8072228571428571 2.0112 -0.1671085714285714 0.34937142857142856 -0.39157714285714285 0.7625142857142856 -0.6968914285714285 1.1094857142857142 -0.30041142857142855 0.34114285714285714 -0.8834057142857142 0.8430857142857142 -1.7534057142857142 0.8430857142857142 -0.8699657142857143 0 -1.4529599999999998 -0.5019428571428571 -1.7534057142857142 -0.8430857142857142 -0.30527999999999994 -0.34697142857142854 -0.5297485714285715 -0.7601142857142857 -0.6968914285714285 -1.1094857142857142 -0.2681828571428571 -0.5602285714285714 -0.5399999999999999 -1.2918857142857143 -0.8073257142857143 -2.0112l-0.00003428571428571428 0 -0.00044571428571428567 -0.0013714285714285714 -0.00010285714285714286 0c-0.06404571428571428 -0.17245714285714284 -0.12781714285714285 -0.34422857142857144 -0.1912457142857143 -0.5125714285714286 -0.7158171428571428 -1.901142857142857 -1.548102857142857 -3.842742857142857 -2.8349142857142855 -5.129485714285714 -1.2721714285714285 -1.272342857142857 -3.180205714285714 -2.040685714285714 -5.0844 -2.723314285714286l-0.36785142857142855 -0.13131428571428572 -0.00010285714285714286 0c-0.7663542857142857 -0.2725714285714286 -1.5704228571428571 -0.5583428571428571 -2.1867771428571428 -0.8619428571428571 -0.36216 -0.17842285714285713 -0.79104 -0.4237028571428571 -1.1478857142857142 -0.7696457142857143 -0.3766285714285714 -0.3651428571428571 -0.78096 -0.9547199999999999 -0.78096 -1.759097142857143 0 -0.8044114285714286 0.4043314285714285 -1.3939885714285714 0.78096 -1.7591314285714283 0.35684571428571427 -0.34594285714285716 0.7857257142857142 -0.5911885714285714 1.1478857142857142 -0.7696114285714285 0.6163885714285714 -0.3036342857142857 1.4204914285714285 -0.5895771428571428 2.18688 -0.86208l0.36785142857142855 -0.13114285714285714c1.9041942857142857 -0.6827314285714285 3.8122285714285717 -1.451142857142857 5.0844 -2.723314285714286 1.2868114285714285 -1.2868114285714285 2.1190971428571426 -3.2283771428571426 2.8349142857142855 -5.129554285714285 0.06342857142857142 -0.16844571428571428 0.1272342857142857 -0.3401485714285714 0.19131428571428571 -0.5125714285714286l0.00047999999999999996 -0.001337142857142857c0.2673257142857143 -0.7194514285714285 0.5391771428571429 -1.451005714285714 0.80736 -2.0113371428571427 0.16714285714285715 -0.34919999999999995 0.39161142857142855 -0.7624457142857142 0.6968914285714285 -1.1092799999999998" clip-rule="evenodd" stroke-width="3.4286"></path>
  </g>
</svg>