<svg preserveAspectRatio="none" width="100%" height="100%" overflow="visible" style="display: block;" viewBox="0 0 12.6402 12.6404" fill="none" xmlns="http://www.w3.org/2000/svg">
<g id="calendar-event">
<path id="Intersect" d="M0.811695 9.53945C0.962116 10.8314 2.05291 11.8571 3.40176 11.9196C4.33407 11.9629 5.28645 11.9854 6.32009 11.9854C7.35373 11.9854 8.30611 11.9629 9.23842 11.9196C10.5873 11.8571 11.6781 10.8314 11.8285 9.53945C12.0374 7.74515 12.0374 6.21712 11.8285 4.42278C11.6781 3.13088 10.5873 2.10514 9.23842 2.04261C8.30612 1.99938 7.35373 1.97691 6.32009 1.97691C5.28645 1.97691 4.33407 1.99938 3.40176 2.04261C2.05291 2.10514 0.962116 3.13088 0.811695 4.42278C0.602768 6.21712 0.602769 7.74515 0.811695 9.53945Z" stroke="#2D2D2D" stroke-width="1.31" stroke-linecap="round" stroke-linejoin="round"/>
<path id="Line 3" d="M3.82927 0.655V3.14768" stroke="#2D2D2D" stroke-width="1.31" stroke-linecap="round" stroke-linejoin="round"/>
<path id="Line 4" d="M8.81109 0.655V3.14768" stroke="#2D2D2D" stroke-width="1.31" stroke-linecap="round" stroke-linejoin="round"/>
<path id="Intersect_2" d="M3.12105 7.80094C3.13976 7.96672 3.21409 8.12128 3.33191 8.23941C3.44974 8.35753 3.60411 8.43225 3.76985 8.45139C4.02202 8.47967 4.28055 8.50371 4.5445 8.50371C4.80845 8.50371 5.06722 8.47967 5.31915 8.45139C5.4849 8.43225 5.63926 8.35753 5.75709 8.23941C5.8749 8.12128 5.94924 7.96672 5.96796 7.80094C5.99483 7.55042 6.01745 7.29307 6.01745 7.03076C6.01745 6.76846 5.99483 6.51111 5.96796 6.26035C5.94924 6.09456 5.8749 5.94 5.75709 5.82188C5.63926 5.70375 5.4849 5.62904 5.31915 5.6099C5.06699 5.58209 4.80845 5.55782 4.5445 5.55782C4.28055 5.55782 4.02178 5.58186 3.76985 5.61014C3.60411 5.62927 3.44974 5.70399 3.33191 5.82211C3.21409 5.94024 3.13976 6.0948 3.12105 6.26059C3.09418 6.51087 3.07156 6.76823 3.07156 7.03076C3.07156 7.2933 3.09418 7.55042 3.12105 7.80094Z" stroke="#2D2D2D" stroke-width="1.31" stroke-linecap="round" stroke-linejoin="round"/>
</g>
</svg>
