<svg xmlns="http://www.w3.org/2000/svg" fill="none" viewBox="-1.25 -1.25 28 28" id="Inbox--Streamline-Flex" height="28" width="28">
  <desc>
    Inbox Streamline Icon: https://streamlinehq.com
  </desc>
  <g id="inbox--mail-email-outbox-drawer-empty-open-inbox">
    <path id="Intersect" stroke="#000000" stroke-linecap="round" stroke-linejoin="round" d="M1.7483291785714286 18.703339285714286C2.0290714285714286 21.327471428571428 4.1395607142857145 23.437960714285715 6.762345 23.7303 8.710453928571429 23.947414285714288 10.71067392857143 24.13392857142857 12.75 24.13392857142857s4.039546071428571 -0.18651428571428572 5.987582142857143 -0.4036285714285714c2.6228571428571428 -0.2923392857142857 4.733346428571428 -2.402828571428571 5.014028571428572 -5.026960714285714 0.20727857142857142 -1.9370528571428571 0.38231785714285715 -3.9258160714285713 0.38231785714285715 -5.953339285714286 0 -2.0275414285714284 -0.17503928571428573 -4.016286428571429 -0.38231785714285715 -5.953393928571429 -0.2806821428571428 -2.6240410714285716 -2.3911714285714285 -4.734548571428571 -5.014028571428572 -5.026889678571428C16.78954607142857 1.552571142857143 14.789326071428572 1.3660714285714286 12.75 1.3660714285714286S8.710453928571429 1.552571142857143 6.762345 1.7697163928571427C4.1395607142857145 2.0620575 2.0290714285714286 4.172565 1.7483291785714286 6.796606071428571 1.54107975 8.73371357142857 1.3660714285714286 10.722458571428572 1.3660714285714286 12.75c0 2.0275232142857145 0.17501014285714286 4.016286428571429 0.38225775 5.953339285714286Z" stroke-width="2.5"></path>
    <path id="Intersect_2" stroke="#000000" stroke-linecap="round" stroke-linejoin="round" d="M24.056882142857145 14.571483214285715c-2.5696714285714286 0 -6.717811071428572 -1.0594885714285713 -8.096067857142856 1.7573325C15.480813214285712 17.309818928571428 14.519608928571428 18.214285714285715 12.747085714285715 18.214285714285715S10.01334 17.309818928571428 9.533357142857144 16.328815714285714c-1.3782567857142856 -2.816802857142857 -5.526305357142857 -1.7573325 -8.09613707142857 -1.7573325 0.057915964285714286 1.5288342857142856 0.18157639285714286 3.044026071428571 0.3338824285714286 4.512716785714286 0.25443535714285714 2.4536464285714286 2.183036785714286 4.406217857142857 4.627448571428571 4.669596428571428 2.056083214285714 0.22148571428571429 4.197664285714286 0.38013214285714286 6.3485346428571425 0.38013214285714286 2.1508885714285713 0 4.292469642857143 -0.15864642857142855 6.348589285714286 -0.38013214285714286 2.444357142857143 -0.26337857142857146 4.372885714285714 -2.21595 4.627339285714286 -4.669596428571428 0.1524535714285714 -1.4686907142857142 0.27594642857142854 -2.9838825 0.3338678571428571 -4.512716785714286Z" stroke-width="2.5"></path>
  </g>
</svg>