<svg xmlns="http://www.w3.org/2000/svg" fill="none" viewBox="0 0 14 14" id="Landscape-1--Streamline-Flex">
  <desc>
    Landscape 1 Streamline Icon: https://streamlinehq.com
  </desc>
  <g id="landscape-1--photos-photo-landscape-picture-photography-camera-pictures-image">
    <path id="Subtract" fill="#000000" fill-rule="evenodd" d="M7 0.125c-1.14832 0 -2.26888 0.10499 -3.34273 0.224686C1.98532 0.536049 0.641907 1.8783 0.462704 3.55328 0.348408 4.62158 0.25 5.73464 0.25 6.875c0 1.14035 0.098408 2.25341 0.212704 3.3217 0.179204 1.675 1.522616 3.0173 3.194566 3.2036C4.73112 13.52 5.85168 13.625 7 13.625s2.26888 -0.105 3.3427 -0.2247c1.672 -0.1863 3.0154 -1.5286 3.1946 -3.2036 0.1143 -1.06829 0.2127 -2.18135 0.2127 -3.3217 0 -1.14036 -0.0984 -2.25342 -0.2127 -3.32172C13.3581 1.8783 12.0147 0.536049 10.3427 0.349686 9.26888 0.22999 8.14832 0.125 7 0.125Zm2.18555 2.3125c-0.53985 0 -1.03221 0.15338 -1.38912 0.51029 -0.35692 0.35692 -0.5103 0.84928 -0.5103 1.38912 0 0.53985 0.15338 1.03221 0.5103 1.38912 0.35691 0.35692 0.84927 0.5103 1.38912 0.5103 0.53984 0 1.03225 -0.15338 1.38915 -0.5103 0.3569 -0.35691 0.5103 -0.84927 0.5103 -1.38912 0 -0.53984 -0.1534 -1.0322 -0.5103 -1.38912 -0.3569 -0.35691 -0.84931 -0.51029 -1.38915 -0.51029ZM3.82752 6.875c2.06149 0 3.78796 3.02068 4.73902 5.1883 -0.52129 0.0381 -1.04278 0.0617 -1.56644 0.0617 -1.06228 0 -2.11566 -0.0972 -3.17657 -0.2155 -0.97605 -0.1088 -1.76526 -0.9005 -1.86924 -1.8724 -0.07814 -0.73028 -0.14604 -1.4585 -0.18036 -2.18917 0.62888 -0.59044 1.32002 -0.97293 2.05359 -0.97293Zm5.73333 1.65625c0.91135 0 1.75725 0.56097 2.49965 1.36837l-0.0146 0.13748c-0.104 0.9719 -0.8932 1.7637 -1.8692 1.8724 -0.1007 0.0113 -0.20131 0.0223 -0.30185 0.0331 -0.37666 -0.9 -0.89958 -1.99713 -1.54156 -3.01064l-0.03168 -0.0498c0.40197 -0.22245 0.82311 -0.35091 1.25924 -0.35091Z" clip-rule="evenodd" stroke-width="1"></path>
  </g>
</svg>