<svg preserveAspectRatio="none" width="100%" height="100%" overflow="visible" style="display: block;" viewBox="-0.94 -0.94 20 20" fill="none" xmlns="http://www.w3.org/2000/svg">
  <g id="chart-column--chart-column-bar-graph">
    <path id="Vector 332" stroke="#999999" stroke-linecap="round" stroke-linejoin="round" d="M0.9707142857142856 0.9707142857142856v13.434038571428571c0 1.3650831428571428 1.0587257142857143 2.494865142857143 2.4220356857142855 2.5641094285714288C5.082271714285714 17.054802857142857 7.334238257142856 17.149285714285714 9.06 17.149285714285714c3.1615905428571427 0 8.089285714285714 -0.3172294285714286 8.089285714285714 -0.3172294285714286" stroke-width="1.88"></path>
    <path id="Vector 339" stroke="#999999" stroke-linecap="round" stroke-linejoin="round" d="m11.956029000000001 16.825714285714284 0 -12.578839285714286c0 -0.7148081142857142 -0.5794776 -1.2942857142857143 -1.2942857142857143 -1.2942857142857143l-1.4317647428571427 0c-0.7148081142857142 0 -1.2942857142857143 0.5794776 -1.2942857142857143 1.2942857142857143L7.935705771428571 16.825714285714284" stroke-width="1.88"></path>
    <path id="Vector 340" stroke="#999999" stroke-linecap="round" stroke-linejoin="round" d="m15.976403999999999 16.826232 0 -4.1108844c0 -0.714821057142857 -0.5795811428571428 -1.2942857142857143 -1.2942857142857143 -1.2942857142857143l-2.7261022285714285 0 0 5.405170114285713" stroke-width="1.88"></path>
    <path id="Vector 341" stroke="#999999" stroke-linecap="round" stroke-linejoin="round" d="M7.936029342857143 16.787791714285714 7.935912857142857 7.9376083714285715l-2.7260375142857143 0c-0.714821057142857 0 -1.2942857142857143 0.5794905428571429 -1.2942857142857143 1.2943116l0.0001164857142857143 7.555871742857143" stroke-width="1.88"></path>
  </g>
</svg>
