<svg xmlns="http://www.w3.org/2000/svg" fill="none" viewBox="-1.25 -1.25 24 24" id="Champagne-Party-Alcohol--Streamline-Flex" height="24" width="24">
  <desc>
    Champagne Party Alcohol Streamline Icon: https://streamlinehq.com
  </desc>
  <g id="champagne-party-alcohol">
    <path id="Vector 168" stroke="#000000" stroke-linecap="round" stroke-linejoin="round" d="M13.026205 20.348214285714285c2.4915735714285714 -1.0793 4.990487857142857 -1.7272178571428571 7.705937857142857 -1.9979642857142854" stroke-width="2.5"></path>
    <path id="Vector 169" stroke="#000000" stroke-linecap="round" stroke-linejoin="round" d="m16.795032142857142 19.04592857142857 -1.3157999999999999 -4.751899285714285" stroke-width="2.5"></path>
    <path id="Intersect" stroke="#000000" stroke-linecap="round" stroke-linejoin="round" d="M5.401030357142857 14.117084285714284c0.42657535714285716 0.1315492857142857 0.8088146428571428 0.23069499999999996 1.2460939285714283 0.32320642857142856 2.567545357142857 0.5431514285714285 5.117046071428571 -0.9218585714285714 5.9640539285714285 -3.3294132142857142 0.7696539285714286 -2.1876710714285714 1.0134946428571427 -4.469588928571428 1.1372425 -6.770104285714285 0.0332175 -0.6172496428571428 -0.3418653571428571 -1.180150357142857 -0.935695357142857 -1.4077892857142855 -2.226263571428571 -0.8533964285714285 -4.4396425 -1.4273542857142856 -6.808589285714286 -1.7654755714285715 -0.6321614285714285 -0.09022782142857141 -1.2480596428571429 0.21607499999999996 -1.5380792857142858 0.7670616428571427 -1.0807282142857142 2.0532039285714285 -2.0475217857142853 4.148271428571428 -2.510125 6.416045357142856 -0.5087744642857143 2.494030714285714 0.9420685714285714 4.994572857142856 3.4450985714285713 5.766468928571428Z" stroke-width="2.5"></path>
    <path id="Vector 166" stroke="#000000" stroke-linecap="round" stroke-linejoin="round" d="M8.473794999999999 20.348214285714285C5.982206071428571 19.268914285714285 3.4833532142857138 18.620996428571427 0.7678571428571428 18.35025" stroke-width="2.5"></path>
    <path id="Vector 167" stroke="#000000" stroke-linecap="round" stroke-linejoin="round" d="m4.704814285714286 19.04592857142857 1.3157999999999999 -4.751899285714285" stroke-width="2.5"></path>
    <path id="Intersect_2" stroke="#000000" stroke-linecap="round" stroke-linejoin="round" d="M6.647124285714285 14.440259999999999c-0.43727928571428565 -0.09251142857142856 -0.8195185714285713 -0.1916725 -1.2460939285714283 -0.32322178571428567 -2.239962142857143 -0.6907642857142856 -3.6372932142857137 -2.7659289285714284 -3.541633571428571 -4.981933928571428 1.5276057142857142 -0.1543085714285714 3.9485671428571423 -0.36490107142857137 5.739593928571428 -0.3595721428571428 1.7425135714285713 0.005175357142857143 4.1052407142857135 0.21834785714285712 5.568008571428571 0.3696310714285714 -0.14621535714285713 0.6621846428571428 -0.32796714285714285 1.3180574999999999 -0.5558210714285713 1.9656835714285712 -0.8470078571428571 2.4075546428571424 -3.396508571428571 3.8725646428571423 -5.9640539285714285 3.3294132142857142Z" stroke-width="2.5"></path>
    <path id="Subtract" stroke="#000000" stroke-linecap="round" stroke-linejoin="round" d="M15.495817857142855 1.1674146785714286c0.6322535714285714 -0.09022782142857141 1.2480749999999998 0.21607499999999996 1.5381714285714285 0.7670631785714285 1.0806821428571427 2.0532039285714285 2.0474142857142854 4.148271428571428 2.510125 6.416029999999999 0.5087821428571427 2.4940460714285715 -0.9421607142857142 4.994588214285714 -3.445221428571428 5.766484285714285 -0.4264678571428571 0.1315492857142857 -0.8087532142857143 0.23069499999999996 -1.2460324999999999 0.32320642857142856 -0.09628928571428572 0.020363571428571425 -0.1925478571428571 0.03791678571428571 -0.28869892857142854 0.052690357142857136" stroke-width="2.5"></path>
    <path id="Subtract_2" stroke="#000000" stroke-linecap="round" stroke-linejoin="round" d="M14.43912357142857 14.510595714285714c0.13767678571428568 -0.017768214285714286 0.27566071428571426 -0.04115714285714286 0.4137060714285714 -0.07036642857142857 0.43727928571428565 -0.09249607142857141 0.819595357142857 -0.19165714285714283 1.2460632142857142 -0.32320642857142856 2.2399928571428567 -0.6907642857142856 3.6373392857142854 -2.765898214285714 3.5416642857142855 -4.981857142857143 -0.8205321428571428 -0.08289785714285713 -1.8990642857142854 -0.18204357142857142 -2.9990964285714283 -0.2552203571428571" stroke-width="2.5"></path>
  </g>
</svg>