<svg xmlns="http://www.w3.org/2000/svg" fill="none" viewBox="0 0 48 48" id="Trending-Content--Streamline-Flex" height="48" width="48">
  <desc>
    Trending Content Streamline Icon: https://streamlinehq.com
  </desc>
  <g id="trending-content--lit-flame-torch-trending">
    <path id="Subtract" fill="#000000" fill-rule="evenodd" d="M22.910365714285714 3.8843999999999994C24.598937142857142 1.7732811428571427 26.862102857142858 0 29.72269714285714 0c2.86056 0 5.123588571428571 1.7732982857142856 6.8121599999999995 3.8844342857142853 1.7077714285714285 2.13504 3.067885714285714 4.903131428571428 4.117714285714285 7.554548571428571 1.0577142857142856 2.6712 1.840457142857143 5.3274857142857135 2.357485714285714 7.306491428571428 0.2592 0.9921942857142856 0.4536 1.8203657142857141 0.5831999999999999 2.40312 0.06514285714285714 0.29153142857142855 0.11417142857142858 0.5219657142857143 0.1470857142857143 0.6812228571428571l0.03771428571428571 0.1843542857142857 0.009942857142857142 0.04981714285714285 0.0034285714285714284 0.01806857142857143 -1.7146285714285714 0.3392228571428571c1.7149714285714284 -0.33696 1.7146285714285714 -0.3387428571428571 1.7146285714285714 -0.3392228571428571l0.0013714285714285714 0.006582857142857143c1.6909714285714286 8.833851428571428 1.0086857142857142 17.324502857142857 -5.8896 22.827702857142857 -2.4236571428571425 1.9333714285714283 -5.425988571428571 2.6873142857142858 -8.21718857142857 2.9036571428571425 -7.993817142857142 0.6195428571428571 -14.460582857142857 -0.3178285714285714 -19.02438857142857 -3.473485714285714 -4.671462857142857 -3.2304 -6.982834285714285 -8.516228571428572 -7.227462857142857 -15.675257142857143l-0.0007542857142857143 -0.02232c-0.06896228571428571 -3.1999199999999997 0.6022285714285714 -6.373405714285714 1.9554171428571427 -9.179622857142856 0.7254857142857143 -1.504422857142857 1.6343657142857142 -2.8769142857142853 2.698422857142857 -4.0752685714285715 1.1119885714285713 -1.2523542857142855 2.6513142857142857 -1.552422857142857 3.999942857142857 -1.2091542857142856 1.2956914285714285 0.3297942857142857 2.4382971428571425 1.2407657142857142 3.1146514285714284 2.4590742857142858 0.38715428571428573 0.6973714285714285 0.8080114285714285 1.3651885714285712 1.2599657142857141 2.0002285714285715 0.5172342857142856 -1.9678628571428571 1.2912 -4.579371428571428 2.3309485714285714 -7.205314285714286 1.0498285714285716 -2.651382857142857 2.4099085714285713 -5.41944 4.117611428571428 -7.55448ZM21.688114285714285 26.269302857142854c0.8165485714285714 -0.8386971428571428 1.8528342857142854 -1.488342857142857 3.099428571428571 -1.488342857142857 1.2486171428571429 0 2.276262857142857 0.6516 3.0794742857142854 1.4936571428571428 0.8025599999999999 0.8413371428571428 1.4439428571428572 1.9351199999999997 1.939542857142857 2.9846399999999997 0.49875428571428565 1.0561714285714285 0.8676685714285715 2.1061714285714284 1.1114057142857143 2.8882285714285714 0.1221942857142857 0.3921942857142857 0.21377142857142856 0.7196914285714285 0.2751085714285714 0.9503999999999999 0.03065142857142857 0.11540571428571429 0.05382857142857142 0.20674285714285712 0.06946285714285715 0.27006857142857144l0.017897142857142855 0.07347428571428571 0.0047657142857142855 0.02002285714285714 0.001337142857142857 0.005691428571428571 -0.7013142857142857 0.1651542857142857c0.7019657142857143 -0.16241142857142857 0.7013828571428571 -0.1649142857142857 0.7013142857142857 -0.1651542857142857l0.0011314285714285714 0.0048c0.3982971428571428 1.7449714285714286 0.52776 3.367028571428571 0.12528 4.797428571428571 -0.41256 1.4664 -1.36056 2.6502857142857144 -2.9427771428571425 3.5396571428571426 -2.4857485714285716 1.3974857142857142 -5.040068571428572 1.3974857142857142 -7.525851428571428 0 -1.5822171428571428 -0.8893714285714286 -2.5302171428571425 -2.073257142857143 -2.9427771428571425 -3.5396571428571426 -0.40247999999999995 -1.4304 -0.27301714285714285 -3.0524571428571425 0.1253142857142857 -4.797428571428571l0.003462857142857143 -0.015154285714285714 0.0873942857142857 0.022045714285714283 0.6093942857142857 0.1529485714285714 -0.6967885714285714 -0.1749942857142857 0.002262857142857143 -0.008365714285714285 0.005177142857142857 -0.02002285714285714 0.01930285714285714 -0.07337142857142856c0.016902857142857143 -0.06325714285714286 0.04186285714285714 -0.15456 0.07477714285714285 -0.26989714285714284 0.06582857142857142 -0.23060571428571427 0.16385142857142856 -0.5579314285714286 0.29376 -0.9499199999999999 0.25906285714285715 -0.7817485714285713 0.64848 -1.8310628571428569 1.1676685714285713 -2.886377142857143 0.5159999999999999 -1.0488685714285715 1.1778857142857142 -2.1404914285714285 1.9948457142857141 -2.9795314285714283Z" clip-rule="evenodd" stroke-width="3.4286"></path>
  </g>
</svg>