<svg xmlns="http://www.w3.org/2000/svg" fill="none" viewBox="0 0 14 14" id="Thick-Arrow-Diagonal-Upper-Right--Streamline-Flex">
  <desc>
    Thick Arrow Diagonal Upper Right Streamline Icon: https://streamlinehq.com
  </desc>
  <g id="thick-arrow-diagonal-upper-right--keyboard-top-arrow-right-up">
    <path id="Union" fill="#000000" fill-rule="evenodd" d="M10.9829 0.665825C9.5144 0.489097 8.08322 0.412916 6.75456 0.64505c-0.95161 0.166257 -1.51182 0.86417 -1.62752 1.65665 -0.11075 0.75859 0.18171 1.59528 0.85932 2.16414 -1.7448 1.4247 -3.45447 3.12654 -4.89232 4.86811 -0.674616 0.81715 -0.857256 2.07015 -0.099739 2.97165 0.214659 0.2554 0.447119 0.4879 0.702549 0.7025 0.90144 0.7575 2.1545 0.5749 2.97161 -0.0997 1.74417 -1.44 3.44849 -3.15265 4.8745 -4.90016 0.57194 0.6753 1.40994 0.96434 2.16814 0.85018 0.7922 -0.11927 1.4873 -0.68305 1.649 -1.63575 0.2255 -1.32877 0.144 -2.75882 -0.0377 -4.22531 -0.1512 -1.2211 -1.1178 -2.184508 -2.3395 -2.331535Z" clip-rule="evenodd" stroke-width="1"></path>
  </g>
</svg>