<svg preserveAspectRatio="none" width="100%" height="100%" overflow="visible" style="display: block;" viewBox="0 0 12.6405 12.6404" fill="none" xmlns="http://www.w3.org/2000/svg">
<g id="code-monitor-1--code-tags-angle-bracket-monitor">
<path id="Vector" d="M5.64346 6.73583L7.0031 2.6569" stroke="#999999" stroke-width="1.31" stroke-linecap="round" stroke-linejoin="round"/>
<path id="Vector_2" d="M4.05721 6.28262C3.51335 6.01069 2.96949 5.46683 2.69756 4.92299C2.96949 4.37912 3.51335 3.83526 4.05721 3.56333" stroke="#999999" stroke-width="1.31" stroke-linecap="round" stroke-linejoin="round"/>
<path id="Vector_3" d="M8.58935 6.28262C9.13319 6.01069 9.67705 5.46683 9.94897 4.92299C9.67705 4.37912 9.13319 3.83526 8.58935 3.56333" stroke="#999999" stroke-width="1.31" stroke-linecap="round" stroke-linejoin="round"/>
<path id="Vector 8" d="M9.63653 11.9854C7.41251 11.7425 5.23506 11.7425 3.01104 11.9854" stroke="#999999" stroke-width="1.31" stroke-linecap="round" stroke-linejoin="round"/>
<path id="Intersect" d="M11.7971 7.65066C11.6743 8.51491 10.9749 9.18712 10.1221 9.26408C7.55947 9.4954 5.08106 9.4954 2.51845 9.26408C1.66567 9.18712 0.966249 8.51491 0.843447 7.65066C0.592184 5.88234 0.592184 4.21021 0.843447 2.44189C0.966249 1.57764 1.66567 0.90541 2.51846 0.82845C5.08106 0.597183 7.55947 0.597183 10.1221 0.82845C10.9749 0.90541 11.6743 1.57764 11.7971 2.44189C12.0484 4.21021 12.0484 5.88234 11.7971 7.65066Z" stroke="#999999" stroke-width="1.31" stroke-linecap="round" stroke-linejoin="round"/>
<path id="Subtract" d="M7.71107 9.41418C6.78288 9.44536 5.85887 9.44536 4.93066 9.41409L4.4967 11.8588C5.71536 11.7847 6.9262 11.7846 8.14484 11.8585L7.71107 9.41418Z" stroke="#999999" stroke-width="1.31" stroke-linecap="round" stroke-linejoin="round"/>
</g>
</svg>
