<svg preserveAspectRatio="none" width="100%" height="100%" overflow="visible" style="display: block;" viewBox="-0.94 -0.94 20 20" fill="none" xmlns="http://www.w3.org/2000/svg">
  <g id="code-monitor-1--code-tags-angle-bracket-monitor">
    <path id="Vector" stroke="#999999" stroke-linecap="round" stroke-linejoin="round" d="m8.093712171428571 9.653507657142857 1.9414285714285713 -5.824285714285714" stroke-width="1.88"></path>
    <path id="Vector_2" stroke="#999999" stroke-linecap="round" stroke-linejoin="round" d="M5.828712171428571 9.0063648c-0.7765714285714286 -0.3882857142857143 -1.5531428571428572 -1.1648571428571428 -1.9414285714285713 -1.9414026857142859 0.3882857142857143 -0.7765973142857142 1.1648571428571428 -1.553168742857143 1.9414285714285713 -1.941454457142857" stroke-width="1.88"></path>
    <path id="Vector_3" stroke="#999999" stroke-linecap="round" stroke-linejoin="round" d="M12.300140742857144 9.0063648c0.7765455428571428 -0.3882857142857143 1.5531169714285715 -1.1648571428571428 1.9414026857142859 -1.9414026857142859 -0.3882857142857143 -0.7765973142857142 -1.1648571428571428 -1.553168742857143 -1.9414026857142859 -1.941454457142857" stroke-width="1.88"></path>
    <path id="Vector 8" stroke="#999999" stroke-linecap="round" stroke-linejoin="round" d="M13.795403142857142 17.149285714285714c-3.175672371428571 -0.3467391428571429 -6.284844342857142 -0.3467391428571429 -9.460503771428572 0" stroke-width="1.88"></path>
    <path id="Intersect" stroke="#999999" stroke-linecap="round" stroke-linejoin="round" d="M16.88046257142857 10.959791399999999c-0.1753757142857143 1.2340626000000001 -1.1740465714285715 2.1939048857142858 -2.3917105714285714 2.303789742857143 -3.659178685714285 0.33030171428571425 -7.198079399999999 0.33030171428571425 -10.857219257142855 0 -1.2176898857142857 -0.10988485714285715 -2.2163866285714287 -1.0697271428571429 -2.391735162857143 -2.303789742857143 -0.35877729428571425 -2.5249831714285715 -0.35877729428571425 -4.912603799999999 0 -7.437586971428571C1.4151461142857142 2.2881418285714283 2.413842857142857 1.328273657142857 3.6315456857142854 1.2183836228571427c3.6591269142857143 -0.33022535142857146 7.198027628571428 -0.33022535142857146 10.857206314285714 0 1.2176639999999999 0.10989003428571427 2.216334857142857 1.0697582057142858 2.3917105714285714 2.303820805714286 0.358776 2.5249831714285715 0.358776 4.912603799999999 0 7.437586971428571Z" stroke-width="1.88"></path>
    <path id="Subtract" stroke="#999999" stroke-linecap="round" stroke-linejoin="round" d="M11.046055542857143 13.477914857142856c-1.3253615142857145 0.04452342857142857 -2.6447563714285716 0.04452342857142857 -3.9701437714285714 -0.00012942857142857143l-0.6196522285714285 3.4908179999999995c1.7401283142857142 -0.10587257142857143 3.469074 -0.106002 5.209163485714286 -0.0005177142857142857l-0.6193674857142857 -3.490170857142857Z" stroke-width="1.88"></path>
  </g>
</svg>
