<svg xmlns="http://www.w3.org/2000/svg" fill="none" viewBox="0 0 24 24" id="Send-Email--Streamline-Flex" height="24" width="24">
  <desc>
    Send Email Streamline Icon: https://streamlinehq.com
  </desc>
  <g id="send-email--mail-send-email-paper-airplane">
    <path id="Subtract" fill="#000000" fill-rule="evenodd" d="M18.90702857142857 0.07988314285714286c1.992514285714286 -0.2531357142857143 3.1755428571428572 0.11673857142857143 4.029257142857142 0.9510128571428571 0.4014857142857142 0.3923005714285714 0.7301142857142857 0.8879554285714286 0.9106285714285713 1.5648411428571427 0.17537142857142857 0.6580457142857142 0.19885714285714284 1.4432399999999999 0.07062857142857143 2.407422857142857 -0.25457142857142856 1.9120457142857141 -1.1352 4.7208685714285705 -2.9480571428571425 9.034628571428572 -1.2431999999999999 2.9585657142857142 -2.2902857142857145 5.444725714285714 -3.5394857142857146 7.091297142857142 -0.63828 0.8412 -1.36608 1.516457142857143 -2.2522285714285712 1.9266857142857141 -0.8967942857142857 0.41519999999999996 -1.8863142857142856 0.5271428571428571 -2.9877599999999997 0.3531428571428571 -0.8036571428571428 -0.1270285714285714 -1.7128457142857143 -0.5062285714285714 -2.622805714285714 -1.0100571428571428l-1.0296 0.9143999999999999c-1.7053542857142856 1.5149142857142857 -4.505125714285714 0.3689142857142857 -4.505125714285714 -1.971428571428571v-3.293485714285714c4.26276 -4.098411428571429 8.778771428571428 -7.832125714285714 13.639405714285713 -11.28072 0.4825714285714285 -0.34241142857142853 0.5962285714285714 -1.0112057142857143 0.25388571428571427 -1.4938114285714286 -0.3425142857142857 -0.48260571428571425 -1.01124 -0.5962628571428571 -1.4938457142857142 -0.25385142857142856 -4.90212 3.478028571428571 -9.461725714285713 7.242565714285714 -13.766914285714284 11.3706 -0.40035428571428566 -0.5084742857142857 -0.7729885714285714 -1.024182857142857 -1.1038817142857142 -1.53216C0.830004 13.736005714285714 0.24885771428571427 12.570497142857143 0.08300571428571428 11.568085714285713l0.5695337142857143 -0.0942342857142857 -0.5695338857142858 0.0942342857142857C-0.09679045714285714 10.4814 0.018915428571428573 9.5028 0.4483457142857143 8.617371428571428c0.42293828571428566 -0.8720228571428571 1.1163497142857142 -1.5838114285714284 1.9744714285714284 -2.205377142857143 1.682005714285714 -1.2183599999999999 4.22184 -2.239765714285714 7.250828571428571 -3.4549714285714286C14.088479999999999 1.1858177142857143 16.95790285714286 0.3275194285714286 18.90702857142857 0.07988314285714286Z" clip-rule="evenodd" stroke-width="1.7143"></path>
  </g>
</svg>