<svg xmlns="http://www.w3.org/2000/svg" viewBox="0 0 28 28" width="28" height="28" fill="none" id="Junto-Mark">
  <g id="junto-mark">
    <path d="M11.2819 0.0106967C12.1591 -0.0370693 13.0102 0.0682168 13.7927 0.467132C14.6408 0.894075 15.266 1.62905 15.523 2.50102C15.8592 3.60131 15.6051 4.84122 15.0166 5.82123C14.3776 6.88511 13.4427 7.53579 12.2111 7.88417C11.8729 7.97981 11.5276 8.05782 11.1914 8.14356C9.73686 8.49667 8.50113 9.32513 7.74376 10.555C6.99939 11.7638 6.51226 13.037 4.92755 13.4527C4.78513 13.4875 4.6398 13.5106 4.49313 13.5218C2.26599 13.7033 0.722598 11.8057 0.592462 9.87534C0.455361 7.84152 1.51158 5.90844 2.89738 4.41664C4.85379 2.31056 8.26524 0.216643 11.2819 0.0106967Z" fill="#2D2D2D"/>
    <path d="M20.863 4.32257C22.7796 4.17479 24.6088 5.14331 25.8027 6.50048C27.2604 8.15789 28.1565 10.3333 27.9773 12.5008C27.7896 14.7693 26.0638 17.3291 23.3641 17.0861C22.9486 17.0495 22.4531 16.8779 22.1081 16.6551C20.2658 15.465 20.9504 13.5013 19.7485 11.9549C19.1275 11.0646 18.0583 10.8923 17.2289 10.2498C15.779 9.12691 16.0074 7.20904 17.1769 5.9825C18.1348 4.97769 19.4489 4.41846 20.863 4.32257Z" fill="#2D2D2D"/>
    <path d="M3.02842 14.5069C4.01737 14.4239 5.33388 14.9548 6.16813 15.4747C8.26758 16.7834 10.5078 19.093 11.0745 21.4581C11.3528 22.6193 11.1749 23.9466 10.4737 24.9409C9.91552 25.7325 9.16726 26.1508 8.19456 26.3427C3.99217 26.9434 0.305384 21.9993 0.0172104 18.4805C-0.140979 16.5493 0.785747 14.6553 3.02842 14.5069Z" fill="#2D2D2D"/>
    <path d="M20.0383 17.6273C21.3947 17.5546 22.6466 17.8443 23.7185 18.6475C26.1429 20.4648 25.3255 23.5415 23.5918 25.5026C22.383 26.8695 20.7559 27.8027 18.8544 27.972C17.6361 28.117 16.1546 27.6871 15.2265 26.9535C12.8778 25.0969 13.4066 21.9838 15.2412 19.9885C16.4951 18.6249 18.1166 17.7707 20.0383 17.6273Z" fill="#2D2D2D"/>
  </g>
</svg>
