<svg xmlns="http://www.w3.org/2000/svg" fill="none" viewBox="0 0 48 48" height="48" width="48">
  <g id="medal-1st-place-champion--medal-1st-place-champion-reward-prize">
    <path id="Subtract" fill="#000000" d="M36.743314285714284 35.1528c0.06445714285714285 1.0573714285714286 0.11382857142857142 2.099657142857143 0.11382857142857142 3.0370285714285714 0 1.605942857142857 -0.12000000000000001 3.508114285714286 -0.26777142857142855 5.2463999999999995 -0.33394285714285715 3.9243428571428574 -4.742708571428571 5.816228571428571 -7.881771428571428 3.6596571428571423L24 43.858285714285714l-4.7076 3.2376c-3.139062857142857 2.1565714285714286 -7.547897142857143 0.2646857142857143 -7.881702857142857 -3.6596571428571423 -0.1478057142857143 -1.7382857142857142 -0.26783999999999997 -3.640457142857143 -0.26783999999999997 -5.2463999999999995 0 -0.9353142857142857 0.04656 -1.9751999999999996 0.11050285714285714 -3.0301714285714283 3.6352114285714285 2.3674285714285714 8.042948571428571 3.4117714285714285 12.739954285714285 3.4117714285714285 4.701325714285715 0 9.112834285714285 -1.0464 12.75 -3.418628571428571M23.993314285714284 0c5.252674285714286 0 9.59856 1.482486857142857 12.629314285714285 4.513405714285715C39.65382857142857 7.5442971428571415 41.135999999999996 11.890182857142857 41.135999999999996 17.142857142857142s-1.4821714285714285 9.59856 -4.513371428571428 12.629451428571429C33.59187428571428 32.80323428571428 29.24598857142857 34.285714285714285 23.993314285714284 34.285714285714285c-5.252708571428571 0 -9.59856 -1.4824799999999998 -12.629485714285714 -4.513405714285715C8.332937142857142 26.74141714285714 6.850457142857143 22.395531428571427 6.850457142857143 17.142857142857142s1.4824799999999998 -9.59856 4.513371428571428 -12.629451428571429C14.394754285714287 1.482486857142857 18.740617028571428 2.4e-9 23.993314285714284 0M20.470971428571428 8.43414857142857c-1.183062857142857 0.00044571428571428567 -2.142857142857143 0.9596571428571428 -2.142857142857143 2.142857142857143 0.00034285714285714285 1.1828914285714285 0.9600000000000001 2.1424114285714286 2.142857142857143 2.142857142857143h1.4598171428571427c0.42809142857142857 0.00034285714285714285 0.7734514285714286 0.34865142857142856 0.7734514285714286 0.7767771428571428v8.069211428571428h-2.2299085714285716c-1.18272 0.00041142857142857143 -2.14224 0.9601371428571428 -2.142857142857143 2.142857142857143 0.00030857142857142856 1.1828914285714285 0.9599657142857143 2.1423771428571428 2.142857142857143 2.142857142857143h8.752217142857143c1.1832685714285713 -0.00003428571428571428 2.1425485714285712 -0.9596914285714285 2.142857142857143 -2.142857142857143 -0.0005828571428571429 -1.1829942857142857 -0.9597257142857143 -2.1428914285714282 -2.142857142857143 -2.142857142857143h-2.2365942857142858V13.49664c0 -2.7950742857142856 -2.26416 -5.062148571428572 -5.059165714285714 -5.062491428571429z" stroke-width="3.4286"></path>
  </g>
</svg>