<svg xmlns="http://www.w3.org/2000/svg" fill="none" viewBox="0 0 14 14" id="Instagram-Logo--Streamline-Flex">
  <desc>
    Instagram Logo Streamline Icon: https://streamlinehq.com
  </desc>
  <g id="instagram">
    <path id="Subtract" fill="#000000" fill-rule="evenodd" d="M7 0.25c-1.14832 0 -2.26888 0.10499 -3.34273 0.224686C1.98532 0.661049 0.641907 2.0033 0.462704 3.67828 0.348408 4.74658 0.25 5.85964 0.25 7c0 1.14035 0.098408 2.25341 0.212704 3.3217 0.179204 1.675 1.522616 3.0173 3.194566 3.2036C4.73112 13.645 5.85168 13.75 7 13.75s2.26888 -0.105 3.3427 -0.2247c1.672 -0.1863 3.0154 -1.5286 3.1946 -3.2036 0.1143 -1.06829 0.2127 -2.18135 0.2127 -3.3217 0 -1.14036 -0.0984 -2.25342 -0.2127 -3.32172C13.3581 2.0033 12.0147 0.661049 10.3427 0.474686 9.26888 0.35499 8.14832 0.25 7 0.25Zm0.00073 4.31763c-0.74438 0 -1.36122 0.21013 -1.79173 0.64064C4.77849 5.63878 4.56836 6.25562 4.56836 7c0 0.74437 0.21013 1.36121 0.64064 1.79172 0.43051 0.43051 1.04735 0.64064 1.79173 0.64064 0.74437 0 1.36122 -0.21013 1.79173 -0.64064C9.22297 8.36121 9.4331 7.74437 9.4331 7c0 -0.74438 -0.21013 -1.36122 -0.64064 -1.79173 -0.43051 -0.43051 -1.04736 -0.64064 -1.79173 -0.64064Zm4.46117 -1.21607c0 0.48 -0.27 0.75 -0.75 0.75s-0.74999 -0.27 -0.74999 -0.75 0.26999 -0.75 0.74999 -0.75c0.48 0 0.75 0.27 0.75 0.75Z" clip-rule="evenodd" stroke-width="1"></path>
  </g>
</svg>