<svg preserveAspectRatio="none" width="100%" height="100%" overflow="visible" style="display: block;" viewBox="0 0 14.8538 14.8607" fill="none" xmlns="http://www.w3.org/2000/svg">
<g id="line-arrow-left-large-1--arrow-keyboard-left-large-head">
<path id="Union" fill-rule="evenodd" clip-rule="evenodd" d="M7.73701 12.3209C8.35071 12.8168 8.44628 13.7162 7.95045 14.3299C7.45462 14.9436 6.55516 15.0392 5.94145 14.5433C3.78182 12.7985 2.44107 11.562 0.898109 9.80965C-0.299369 8.44963 -0.29937 6.41111 0.898109 5.05108C2.44107 3.29868 3.78182 2.06221 5.94145 0.317401C6.55516 -0.17843 7.45461 -0.0828689 7.95045 0.530841C8.44628 1.14454 8.35071 2.04401 7.73701 2.53984C6.09246 3.8685 4.98879 4.85148 3.90027 5.99893H13.4252C14.2141 5.99893 14.8538 6.63852 14.8538 7.42751C14.8538 8.21648 14.2141 8.85608 13.4252 8.85608H3.89484C4.98513 10.006 6.08973 10.99 7.73701 12.3209Z" fill="#2D2D2D"/>
</g>
</svg>
