<svg xmlns="http://www.w3.org/2000/svg" fill="none" viewBox="0 0 14 14" id="Linkedin-Logo--Streamline-Flex">
  <desc>
    Linkedin Logo Streamline Icon: https://streamlinehq.com
  </desc>
  <g id="linkedin--network-linkedin-professional">
    <path id="Union" fill="#000000" fill-rule="evenodd" d="M2.31436 4.37872c-0.59263 0 -1.12622 -0.16822 -1.51118 -0.55318C0.418224 3.44059 0.25 2.90699 0.25 2.31436S0.418224 1.18814 0.80318 0.80318C1.18814 0.418224 1.72173 0.25 2.31436 0.25s1.12622 0.168224 1.51118 0.55318c0.38496 0.38496 0.55318 0.91855 0.55318 1.51118s-0.16822 1.12623 -0.55318 1.51118c-0.38496 0.38496 -0.91855 0.55318 -1.51118 0.55318ZM0.350586 7.09419c0 -1.04383 0.846194 -1.89003 1.890034 -1.89003 1.04384 0 1.89003 0.8462 1.89003 1.89003V11.86c0 1.0439 -0.84619 1.8901 -1.89003 1.8901S0.350586 12.9039 0.350586 11.86V7.09419ZM9.47705 5.20416c-2.35988 0 -4.27295 1.91306 -4.27295 4.27295V11.86c0 1.0439 0.8462 1.8901 1.89003 1.8901 1.04384 0 1.89004 -0.8462 1.89004 -1.8901V9.47711c0 -0.27221 0.22067 -0.49288 0.49288 -0.49288 0.27221 0 0.49288 0.22067 0.49288 0.49288V11.86c0 1.0439 0.84617 1.8901 1.89007 1.8901 1.0438 0 1.89 -0.8462 1.89 -1.8901V9.47711c0 -2.35989 -1.9131 -4.27295 -4.27295 -4.27295Z" clip-rule="evenodd" stroke-width="1"></path>
  </g>
</svg>