<svg xmlns="http://www.w3.org/2000/svg" fill="none" viewBox="-0.94 -0.94 20 20" id="Ai-Sparkles--Streamline-Flex" height="20" width="20">
  <desc>
    Ai Sparkles Streamline Icon: https://streamlinehq.com
  </desc>
  <g id="ai-sparkles--artificial-intelligence-ai-sparks-sparkles">
    <path id="Vector 2145" stroke="#000000" stroke-linecap="round" stroke-linejoin="round" d="M3.3487183714285713 3.359098542857143C4.177682485714286 2.5301344285714285 4.3335792 0.9707142857142856 4.679205257142857 0.9707142857142856s0.5015357142857143 1.5594201428571428 1.3304868857142857 2.388384257142857c0.8289641142857144 0.8289641142857144 2.378081742857143 0.916768457142857 2.378081742857143 1.3202361428571427 0 0.4034806285714286 -1.5491176285714285 0.4912720285714286 -2.378081742857143 1.3202361428571427 -0.8289511714285714 0.8289641142857144 -0.9848608285714285 2.388384257142857 -1.3304868857142857 2.388384257142857s-0.5015227714285714 -1.5594201428571428 -1.3304868857142857 -2.388384257142857S0.9706353342857142 5.082815314285714 0.9706353342857142 4.679334685714285c0 -0.4034676857142857 1.5491189228571427 -0.4912720285714286 2.3780830371428574 -1.3202361428571427" stroke-width="1.88"></path>
    <path id="Vector 2145_2" stroke="#000000" stroke-linecap="round" stroke-linejoin="round" d="M9.897273428571427 9.912105942857142c1.1929949142857144 -1.1929819714285714 1.4173593428571427 -3.437195742857143 1.9147533428571428 -3.437195742857143 0.4974069428571428 0 0.7217713714285715 2.2442137714285715 1.9147792285714285 3.437195742857143 1.1929431428571429 1.1929949142857144 3.422350285714286 1.3193430857142858 3.422350285714286 1.8999984857142855s-2.2294071428571427 0.7070035714285714 -3.422350285714286 1.8999467142857143c-1.193007857142857 1.1930725714285713 -1.4173722857142856 3.4372345714285713 -1.9147792285714285 3.4372345714285713 -0.49739399999999995 0 -0.7217584285714286 -2.2441619999999998 -1.9147533428571428 -3.4372345714285713 -1.1929819714285714 -1.1929431428571429 -3.4223632285714287 -1.3192913142857143 -3.4223632285714287 -1.8999467142857143S8.704291457142858 11.105100857142856 9.897273428571427 9.912105942857142" stroke-width="1.88"></path>
  </g>
</svg>